<svg id="Grupo_13271" data-name="Grupo 13271" xmlns="http://www.w3.org/2000/svg" width="128.143" height="128.143" viewBox="0 0 128.143 128.143">
  <rect id="Rectángulo_3164" data-name="Rectángulo 3164" width="128.143" height="128.143" fill="none"/>
  <g id="Grupo_13270" data-name="Grupo 13270" transform="translate(13.267 15.689)">
    <circle id="Elipse_514" data-name="Elipse 514" cx="48.382" cy="48.382" r="48.382" fill="#d1d3d4"/>
    <g id="Grupo_13269" data-name="Grupo 13269" transform="translate(3.54 8.282)">
      <g id="Grupo_13268" data-name="Grupo 13268">
        <g id="Grupo_13267" data-name="Grupo 13267">
          <g id="Grupo_13265" data-name="Grupo 13265" transform="translate(1.091 1.091)">
            <path id="Trazado_19660" data-name="Trazado 19660" d="M2177.832,5054.658c.938,0,9.7,14.547,9.7,25.861,0,8.356-5.124,9.7-35.559,9.7-42.153,0-48.489,0-48.489-9.7a11.078,11.078,0,0,1,.194-2.248c.518-2.762,2.2-3.167,4.655-4.217,3.007-1.277,18.313-4.445,29.094-12.931,0,0,.84.161,2.295.388a107.885,107.885,0,0,0,15.484,1.228c10.361,0,15.678-4.606,19.4-6.869A6.593,6.593,0,0,1,2177.832,5054.658Z" transform="translate(-2090.552 -5009.401)" fill="#93dff9"/>
            <path id="Trazado_19661" data-name="Trazado 19661" d="M2308.831,4847.329c2.312-8.454,1.39-21.53,1.39-41.62h30.71c-.275,4.849-3.233,35.963-3.233,42.024v4.445c-3.717,2.263-9.035,6.869-19.4,6.869a107.972,107.972,0,0,1-15.484-1.228,55.15,55.15,0,0,0,3.331-4.574A18.284,18.284,0,0,0,2308.831,4847.329Z" transform="translate(-2253.65 -4805.709)" fill="#fff"/>
            <path id="Trazado_19662" data-name="Trazado 19662" d="M2248.969,4805.709c0,20.09.922,33.166-1.39,41.62-2.068,1.051-6.012.373-6.012.373a109.336,109.336,0,0,1-13.609-1.31,32.362,32.362,0,0,0,4.009-4.461c4.686-6.53,4.282-17.634,4.072-36.222Z" transform="translate(-2192.398 -4805.709)" fill="#fff"/>
            <path id="Trazado_19663" data-name="Trazado 19663" d="M2087.534,5029.2a18.269,18.269,0,0,1-2.682,5.916,55.15,55.15,0,0,1-3.331,4.574c-1.455-.227-2.295-.388-2.295-.388-10.781,8.485-26.087,11.653-29.094,12.931-2.456,1.051-4.137,1.455-4.655,4.217-10.861-.937-13.125-3.264-13.125-9.066,0-4.849,1.842-5.188,4.849-6.465s18.313-4.445,29.094-12.931c0,0,.582.114,1.616.275a109.144,109.144,0,0,0,13.609,1.31S2085.466,5030.248,2087.534,5029.2Z" transform="translate(-2032.354 -4987.577)" fill="#93dff9"/>
          </g>
          <g id="Grupo_13266" data-name="Grupo 13266">
            <path id="Trazado_19664" data-name="Trazado 19664" d="M2245.1,4838.112a1.091,1.091,0,0,1-.885-1.727c4.227-5.889,4.1-15.962,3.9-32.65q-.018-1.43-.034-2.923a1.091,1.091,0,1,1,2.181-.024q.017,1.493.035,2.921c.207,17.135.333,27.478-4.312,33.949A1.089,1.089,0,0,1,2245.1,4838.112Z" transform="translate(-2204.442 -4799.708)" fill="#303e58"/>
            <path id="Trazado_19665" data-name="Trazado 19665" d="M2489.779,4843.914a1.091,1.091,0,0,1-1.091-1.091c0-4.024,1.289-18.97,2.23-29.883.489-5.662.91-10.551,1-12.2a1.091,1.091,0,0,1,2.178.124c-.1,1.684-.5,6.354-1.008,12.267-.938,10.874-2.223,25.766-2.223,29.7A1.091,1.091,0,0,1,2489.779,4843.914Z" transform="translate(-2404.64 -4799.708)" fill="#303e58"/>
            <path id="Trazado_19666" data-name="Trazado 19666" d="M2316.228,4849.426a1.091,1.091,0,0,1-.885-1.727,17.2,17.2,0,0,0,2.516-5.569c1.716-6.272,1.606-15.39,1.454-28.008-.048-3.978-.1-8.485-.1-13.323a1.091,1.091,0,1,1,2.181,0c0,4.824.054,9.325.1,13.3.154,12.8.265,22.042-1.531,28.611a19.331,19.331,0,0,1-2.848,6.264A1.089,1.089,0,0,1,2316.228,4849.426Z" transform="translate(-2262.64 -4799.708)" fill="#303e58"/>
            <path id="Trazado_19667" data-name="Trazado 19667" d="M2147.062,5086.4c-21.469,0-33.295,0-40.242-1.229-6.894-1.22-9.338-3.721-9.338-9.56a12.084,12.084,0,0,1,.215-2.46c.576-3.049,2.429-3.817,4.574-4.706.232-.1.473-.2.722-.3.694-.295,1.876-.648,3.511-1.137,5.94-1.776,17-5.083,25.337-11.647a1.09,1.09,0,0,1,.88-.214c.008,0,.842.161,2.256.382a106.662,106.662,0,0,0,15.318,1.215c8.583,0,13.524-3.249,17.131-5.621.6-.392,1.161-.763,1.7-1.089a7.676,7.676,0,0,1,3.8-1.372c.587,0,1.135.213,2.838,2.967a59.545,59.545,0,0,1,3.354,6.359c2.1,4.59,4.6,11.374,4.6,17.626,0,4.255-1.219,7.42-7.171,9.035C2171.136,5086.112,2161.639,5086.4,2147.062,5086.4Zm-14.262-29.024c-8.613,6.618-19.682,9.929-25.67,11.72-1.509.451-2.7.808-3.281,1.054-.254.109-.5.211-.742.311-2,.828-2.911,1.206-3.267,3.1l0,.023a10.106,10.106,0,0,0-.171,2.023c0,4.2,1.088,6.271,7.536,7.411,6.759,1.2,19.219,1.2,39.862,1.2,31.29,0,34.468-1.631,34.468-8.607,0-10.209-7.307-22.889-8.937-24.744a6.844,6.844,0,0,0-2.335,1.027c-.5.307-1.052.667-1.633,1.049-3.621,2.381-9.093,5.979-18.33,5.979a108.781,108.781,0,0,1-15.646-1.24h-.006C2133.821,5057.552,2133.2,5057.445,2132.8,5057.375Zm39.618-6.685Z" transform="translate(-2084.552 -5003.401)" fill="#303e58"/>
            <path id="Trazado_19668" data-name="Trazado 19668" d="M2226.963,5146.554a1.091,1.091,0,0,1-.523-2.049l6.287-3.427a1.091,1.091,0,0,1,1.044,1.916l-6.287,3.427A1.086,1.086,0,0,1,2226.963,5146.554Z" transform="translate(-2189.601 -5078.911)" fill="#303e58"/>
            <path id="Trazado_19669" data-name="Trazado 19669" d="M2147.743,5189.11a1.091,1.091,0,0,1-.544-2.037l5.3-3.038a1.09,1.09,0,1,1,1.085,1.892l-5.3,3.039A1.084,1.084,0,0,1,2147.743,5189.11Z" transform="translate(-2124.782 -5114.049)" fill="#303e58"/>
            <path id="Trazado_19670" data-name="Trazado 19670" d="M2516.452,5175.44a1.091,1.091,0,0,1-.553-2.031c1.954-1.147,1.254-4.878,1.246-4.916a1.091,1.091,0,0,1,2.136-.443c.045.215,1.059,5.282-2.277,7.24A1.085,1.085,0,0,1,2516.452,5175.44Z" transform="translate(-2426.463 -5100.379)" fill="#303e58"/>
            <path id="Trazado_19671" data-name="Trazado 19671" d="M2441.232,5095.39a1.091,1.091,0,0,1-.348-2.125c.48-.162,1.025-.328,1.6-.5a32.4,32.4,0,0,0,5.495-2.061,7.352,7.352,0,0,0,2.787-2.262,1.091,1.091,0,0,1,1.811,1.217,9.456,9.456,0,0,1-3.587,2.979,34.1,34.1,0,0,1-5.868,2.214c-.562.171-1.093.333-1.543.485A1.085,1.085,0,0,1,2441.232,5095.39Z" transform="translate(-2364.919 -5035.554)" fill="#303e58"/>
            <path id="Trazado_19672" data-name="Trazado 19672" d="M2384.767,5126.908a1.089,1.089,0,0,1-.851-.407l-2.531-3.153c-1.277.078-2.85.034-4.261-.005-.691-.019-1.343-.037-1.86-.037a1.091,1.091,0,0,1,0-2.182c.547,0,1.215.019,1.921.038a40.393,40.393,0,0,0,4.577-.032,1.091,1.091,0,0,1,.963.4l2.893,3.6a1.09,1.09,0,0,1-.85,1.773Z" transform="translate(-2310.942 -5062.693)" fill="#303e58"/>
            <path id="Trazado_19673" data-name="Trazado 19673" d="M2281.144,5110.191a1.091,1.091,0,0,1-1.071-.893l-.418-2.265c-11.656-.163-14.6-4.066-14.9-4.521l1.815-1.209-.013-.019c.026.036,2.735,3.574,13.86,3.574.05,0,.1,0,.147,0a1.091,1.091,0,0,1,1.073.893l.583,3.152a1.091,1.091,0,0,1-.874,1.271A1.112,1.112,0,0,1,2281.144,5110.191Z" transform="translate(-2221.414 -5046.46)" fill="#303e58"/>
            <path id="Trazado_19674" data-name="Trazado 19674" d="M2482.723,5107.95a1.09,1.09,0,0,1-.992-.636l-1.567-3.411a1.091,1.091,0,0,1,1.982-.911l1.567,3.411a1.091,1.091,0,0,1-.991,1.546Z" transform="translate(-2397.584 -5047.338)" fill="#303e58"/>
            <path id="Trazado_19675" data-name="Trazado 19675" d="M2040.571,5052.628c-.031,0-.063,0-.1,0-10.822-.934-14.121-3.306-14.121-10.153,0-4.941,1.834-5.948,4.826-7.183.222-.091.451-.186.687-.286.691-.293,1.873-.647,3.509-1.136,5.94-1.776,17-5.083,25.336-11.647a1.088,1.088,0,0,1,.883-.214c.006,0,.579.112,1.575.268a108.1,108.1,0,0,0,13.474,1.3,1.091,1.091,0,0,1-.066,2.181,110.5,110.5,0,0,1-13.75-1.323c-.49-.077-.88-.142-1.158-.191-8.612,6.618-19.682,9.928-25.67,11.719-1.509.452-2.7.808-3.281,1.054-.244.1-.479.2-.708.295-2.53,1.044-3.477,1.435-3.477,5.167,0,4.713,1.2,7.036,12.128,7.98a1.091,1.091,0,0,1-.093,2.177Z" transform="translate(-2026.354 -4981.576)" fill="#303e58"/>
            <path id="Trazado_19676" data-name="Trazado 19676" d="M2155.835,5084.316a1.091,1.091,0,0,1-.523-2.049l6.287-3.427a1.091,1.091,0,0,1,1.044,1.916l-6.287,3.427A1.086,1.086,0,0,1,2155.835,5084.316Z" transform="translate(-2131.403 -5027.988)" fill="#303e58"/>
            <path id="Trazado_19677" data-name="Trazado 19677" d="M2076.615,5126.873a1.091,1.091,0,0,1-.543-2.037l5.3-3.039a1.091,1.091,0,1,1,1.085,1.893l-5.3,3.038A1.086,1.086,0,0,1,2076.615,5126.873Z" transform="translate(-2066.584 -5063.125)" fill="#303e58"/>
            <path id="Trazado_19678" data-name="Trazado 19678" d="M2207.8,5044.794h-.033c-11.059-.331-13.863-4.085-14.146-4.512l1.818-1.206-.013-.019c.023.032,2.48,3.259,12.406,3.556a1.091,1.091,0,0,1-.032,2.181Z" transform="translate(-2163.212 -4995.545)" fill="#303e58"/>
          </g>
        </g>
      </g>
    </g>
  </g>
</svg>
