<svg id="Grupo_13277" data-name="Grupo 13277" xmlns="http://www.w3.org/2000/svg" width="128.143" height="128.143" viewBox="0 0 128.143 128.143">
  <rect id="Rectángulo_3165" data-name="Rectángulo 3165" width="128.143" height="128.143" fill="none"/>
  <g id="Grupo_13276" data-name="Grupo 13276" transform="translate(12.794 15.689)">
    <circle id="Elipse_515" data-name="Elipse 515" cx="48.382" cy="48.382" r="48.382" transform="translate(2.895)" fill="#d1d3d4"/>
    <g id="Grupo_13275" data-name="Grupo 13275" transform="translate(0 13.559)">
      <g id="Grupo_13274" data-name="Grupo 13274">
        <g id="Grupo_13272" data-name="Grupo 13272" transform="translate(1.091 1.091)">
          <path id="Trazado_19679" data-name="Trazado 19679" d="M3534.144,5048.043a16.472,16.472,0,0,1,1.622,1.121A14.6,14.6,0,0,1,3534.144,5048.043Z" transform="translate(-3460.336 -5009.266)" fill="#ebedf0"/>
          <path id="Trazado_19680" data-name="Trazado 19680" d="M3288.208,5037.634a43.785,43.785,0,0,1-16.847,3.715c-.25,0-.5.016-.77.016h-2.375c-.552,0-1.088,0-1.59-.016a43.777,43.777,0,0,1-16.729-3.715c-6.574-3.009-10.874-7.561-10.874-12.6,0-2.694,1.874-5.185,4.734-7.311.016-.018.034-.034.051-.034a14.664,14.664,0,0,0,1.622-1.121,45.761,45.761,0,0,1,47.243,0,14.661,14.661,0,0,0,1.622,1.121c.016,0,.034.016.051.034,2.861,2.125,4.734,4.617,4.734,7.311C3299.082,5030.074,3294.782,5034.625,3288.208,5037.634Z" transform="translate(-3218.867 -4977.796)" fill="#ebedf0"/>
          <path id="Trazado_19681" data-name="Trazado 19681" d="M3266.968,5048.043a14.6,14.6,0,0,1-1.622,1.121A16.5,16.5,0,0,1,3266.968,5048.043Z" transform="translate(-3240.403 -5009.266)" fill="#ebedf0"/>
          <path id="Trazado_19682" data-name="Trazado 19682" d="M3203.62,4874.67c-.016-.018-.034-.034-.051-.034a16.443,16.443,0,0,0-1.622-1.121,45.761,45.761,0,0,0-47.243,0,16.475,16.475,0,0,0-1.622,1.121c-.016,0-.034.016-.051.034-2.861,2.125-4.734,4.617-4.734,7.311,0,5.035,4.3,9.586,10.874,12.6a43.765,43.765,0,0,0,16.729,3.715c.5.017,1.037.017,1.59.017h2.375c.268,0,.52-.017.77-.017a43.774,43.774,0,0,0,16.846-3.715c6.574-3.009,10.874-7.561,10.874-12.6C3208.354,4879.287,3206.48,4876.8,3203.62,4874.67Zm19.037-10.941c1.539,3.764,5.855,4.751,5.855,14.5s-6.139,10.322-8.365,13.383-3.479,6.273-7.244,8.365-5.855,1.389-8.649,2.091c-1.657.418-4.6,2.091-6.976,2.091-2.359,0-6.541-.836-8.917-.836s-3.9,1.673-10.037,1.673-7.662-1.673-10.037-1.673-6.558.836-8.917.836c-2.375,0-5.319-1.673-6.976-2.091-2.794-.7-4.885,0-8.649-2.091s-5.019-5.3-7.244-8.365-8.365-3.63-8.365-13.383,4.316-10.74,5.855-14.5,2.51-11.56,8.649-16.311c2.81-2.176,11.326-4.868,13.935-5.989,5.571-2.376,8.783-6.692,21.748-6.692s16.177,4.316,21.748,6.692c2.609,1.121,11.125,3.813,13.935,5.989C3220.148,4852.169,3221.118,4859.965,3222.657,4863.729Z" transform="translate(-3128.139 -4834.738)" fill="#93dff9"/>
        </g>
        <g id="Grupo_13273" data-name="Grupo 13273">
          <path id="Trazado_19683" data-name="Trazado 19683" d="M3173.417,4901.18a22.912,22.912,0,0,1-7.7-1.173,7.778,7.778,0,0,0-2.339-.5,39.913,39.913,0,0,0-4.335.411,40.84,40.84,0,0,1-4.582.426,15.362,15.362,0,0,1-5.335-1.43,17.435,17.435,0,0,0-1.907-.695,15.673,15.673,0,0,0-2.5-.363,14.3,14.3,0,0,1-6.407-1.832c-3.069-1.705-4.61-4.112-6.1-6.439-.473-.739-.962-1.5-1.5-2.237a10.007,10.007,0,0,0-2.322-2c-2.638-1.876-6.251-4.446-6.251-12.028,0-7.165,2.283-9.954,4.118-12.195a10.85,10.85,0,0,0,1.819-2.722c.329-.8.636-1.822.991-3,1.256-4.167,2.976-9.873,8-13.76,2.173-1.683,7.268-3.552,10.988-4.917,1.34-.492,2.5-.916,3.185-1.212a35.77,35.77,0,0,0,3.8-1.986c3.915-2.247,8.352-4.793,18.374-4.793s14.459,2.547,18.374,4.793a35.873,35.873,0,0,0,3.8,1.985c.691.3,1.848.721,3.188,1.213,3.72,1.365,8.815,3.234,10.988,4.917,5.024,3.888,6.744,9.594,8,13.76.355,1.178.662,2.2.991,3a10.845,10.845,0,0,0,1.819,2.722c1.834,2.241,4.117,5.03,4.117,12.195,0,7.583-3.613,10.152-6.251,12.028a10.007,10.007,0,0,0-2.322,2c-.534.735-1.023,1.5-1.5,2.237-1.49,2.328-3.031,4.734-6.1,6.439a14.3,14.3,0,0,1-6.407,1.832,15.64,15.64,0,0,0-2.5.364,17.346,17.346,0,0,0-1.906.694,15.365,15.365,0,0,1-5.335,1.43,40.841,40.841,0,0,1-4.582-.426,39.913,39.913,0,0,0-4.335-.411,7.779,7.779,0,0,0-2.339.5A22.909,22.909,0,0,1,3173.417,4901.18Zm-10.037-3.854a9.587,9.587,0,0,1,2.991.6,23.657,23.657,0,0,0,14.093,0,9.589,9.589,0,0,1,2.991-.6,41.036,41.036,0,0,1,4.611.428,39.71,39.71,0,0,0,4.305.408,13.871,13.871,0,0,0,4.521-1.272,18.5,18.5,0,0,1,2.188-.786,17.637,17.637,0,0,1,2.843-.421,12.121,12.121,0,0,0,5.543-1.566c2.588-1.438,3.855-3.417,5.323-5.709.49-.765,1-1.557,1.569-2.343a11.662,11.662,0,0,1,2.822-2.492c2.5-1.778,5.334-3.793,5.334-10.25,0-6.386-1.925-8.738-3.624-10.813a12.668,12.668,0,0,1-2.15-3.278c-.368-.9-.689-1.965-1.06-3.2-1.171-3.884-2.774-9.2-7.246-12.665-1.906-1.476-7.02-3.353-10.4-4.594-1.369-.5-2.552-.937-3.294-1.255a37.489,37.489,0,0,1-4.029-2.1c-3.858-2.214-7.848-4.5-17.288-4.5s-13.43,2.29-17.288,4.5a37.46,37.46,0,0,1-4.031,2.1c-.74.317-1.923.751-3.292,1.254-3.384,1.242-8.5,3.118-10.4,4.594-4.472,3.461-6.076,8.781-7.247,12.665-.371,1.231-.692,2.295-1.06,3.2a12.668,12.668,0,0,1-2.15,3.278c-1.7,2.075-3.624,4.427-3.624,10.813,0,6.457,2.834,8.473,5.334,10.25a11.657,11.657,0,0,1,2.822,2.492c.572.787,1.079,1.578,1.569,2.343,1.467,2.292,2.735,4.271,5.323,5.709a12.121,12.121,0,0,0,5.543,1.566,17.6,17.6,0,0,1,2.842.421,18.428,18.428,0,0,1,2.189.786,13.871,13.871,0,0,0,4.521,1.272,39.713,39.713,0,0,0,4.306-.408A41.036,41.036,0,0,1,3163.38,4897.326Z" transform="translate(-3122.14 -4828.738)" fill="#303e58"/>
          <path id="Trazado_19684" data-name="Trazado 19684" d="M3354.12,4968.114c-6.6,0-10.842-8.613-11.019-8.98a1.091,1.091,0,0,1,1.963-.951h0c.038.077,3.827,7.75,9.056,7.75,5.244,0,9.018-7.671,9.056-7.749a1.091,1.091,0,0,1,1.963.951C3364.962,4959.5,3360.717,4968.114,3354.12,4968.114Z" transform="translate(-3302.843 -4934.147)" fill="#303e58"/>
          <path id="Trazado_19685" data-name="Trazado 19685" d="M3449.318,4992.145l-.333,0a31.138,31.138,0,0,1-3.846-.382,1.091,1.091,0,1,1,.337-2.156,29.284,29.284,0,0,0,3.563.357c4,.069,5.986-1.292,9.551-5.17a1.091,1.091,0,1,1,1.606,1.477C3456.484,4990.306,3453.992,4992.145,3449.318,4992.145Z" transform="translate(-3385.666 -4956.134)" fill="#303e58"/>
          <path id="Trazado_19686" data-name="Trazado 19686" d="M3285.892,4992.145c-4.687,0-7.177-1.838-10.89-5.876a1.091,1.091,0,1,1,1.606-1.477c3.565,3.878,5.543,5.24,9.566,5.169a29.254,29.254,0,0,0,3.548-.356,1.091,1.091,0,0,1,.337,2.156,31.089,31.089,0,0,1-3.831.381Z" transform="translate(-3246.977 -4956.134)" fill="#303e58"/>
          <path id="Trazado_19687" data-name="Trazado 19687" d="M3516.867,5029.667a6.132,6.132,0,0,1-3.062-.839,1.03,1.03,0,0,1-.088-.056,14.185,14.185,0,0,1-1.545-1.058l-.268-.2a9.14,9.14,0,0,0-3.193-1.841,1.091,1.091,0,0,1,.553-2.11,11.119,11.119,0,0,1,3.971,2.223l.249.188a12.756,12.756,0,0,0,1.279.886,1.149,1.149,0,0,1,.2.116c1.7.929,4.082,1.327,10.425-4.688a1.091,1.091,0,1,1,1.5,1.583C3522.723,5027.813,3519.6,5029.667,3516.867,5029.667Zm-2.579-.733h0Zm0,0h0Z" transform="translate(-3437.77 -4986.854)" fill="#303e58"/>
          <path id="Trazado_19688" data-name="Trazado 19688" d="M3204.551,5029.667c-2.729,0-5.856-1.853-10.018-5.8a1.091,1.091,0,0,1,1.5-1.583c6.345,6.017,8.729,5.616,10.426,4.688a1.14,1.14,0,0,1,.194-.114,12.754,12.754,0,0,0,1.28-.887l.249-.188a11.119,11.119,0,0,1,3.971-2.223,1.091,1.091,0,0,1,.553,2.11,9.138,9.138,0,0,0-3.193,1.841l-.268.2a14.133,14.133,0,0,1-1.546,1.059.976.976,0,0,1-.087.055A6.131,6.131,0,0,1,3204.551,5029.667Zm2.579-.733h0Zm0,0h0Z" transform="translate(-3181.094 -4986.854)" fill="#303e58"/>
          <path id="Trazado_19689" data-name="Trazado 19689" d="M3325.679,5176.906a1.091,1.091,0,0,1-.531-2.044c1.832-1.019,2.185-1.093,3.782-.8a41.941,41.941,0,0,0,7.723.644c.5.016,1.021.016,1.572.016h2.375c.124,0,.245,0,.364-.008.137,0,.272-.008.406-.008a42.6,42.6,0,0,0,7.817-.65c1.623-.3,1.942-.233,3.792.806a1.091,1.091,0,0,1-1.068,1.9,7.054,7.054,0,0,0-1.362-.67,2.947,2.947,0,0,0-.965.107,44.635,44.635,0,0,1-8.2.686c-.129,0-.24,0-.354.008-.141,0-.285.009-.433.009h-2.375c-.568,0-1.106,0-1.625-.017a43.906,43.906,0,0,1-8.068-.679,2.923,2.923,0,0,0-.958-.106,7.131,7.131,0,0,0-1.366.665A1.086,1.086,0,0,1,3325.679,5176.906Z" transform="translate(-3287.784 -5111.155)" fill="#303e58"/>
          <path id="Trazado_19690" data-name="Trazado 19690" d="M3489.757,5144.532a1.091,1.091,0,0,1-.773-1.86c.538-.54,1.473-.828,3.24-1.231l.36-.084c2.456-.574,5.819-1.36,7.522-3.246a1.091,1.091,0,1,1,1.619,1.462c-2.161,2.393-5.908,3.269-8.644,3.909l-.363.085a10.72,10.72,0,0,0-2.2.657A1.087,1.087,0,0,1,3489.757,5144.532Zm.773-.322,0,0Z" transform="translate(-3422.035 -5081.574)" fill="#303e58"/>
          <path id="Trazado_19691" data-name="Trazado 19691" d="M3258.619,5144.532a1.088,1.088,0,0,1-.761-.31,10.66,10.66,0,0,0-2.192-.656l-.37-.086c-2.736-.64-6.483-1.516-8.644-3.909a1.091,1.091,0,0,1,1.619-1.462c1.7,1.886,5.066,2.672,7.522,3.246l.366.086c1.76.4,2.7.689,3.234,1.23a1.091,1.091,0,0,1-.773,1.86Zm-.773-.321,0,0Z" transform="translate(-3223.786 -5081.574)" fill="#303e58"/>
          <path id="Trazado_19692" data-name="Trazado 19692" d="M3570.192,5087.625c-3.733,0-5.357-.372-6.2-1.348-.808-.935-.618-2.082-.416-3.3a9.62,9.62,0,0,0-.056-4.405,1.091,1.091,0,0,1,2.1-.573,11.635,11.635,0,0,1,.1,5.336c-.1.6-.224,1.351-.085,1.511.269.312,1.51.665,5.885.58a1.091,1.091,0,1,1,.042,2.181Q3570.836,5087.624,3570.192,5087.625Z" transform="translate(-3483.182 -5032.03)" fill="#303e58"/>
          <path id="Trazado_19693" data-name="Trazado 19693" d="M3196.639,5087.623c-.43,0-.888,0-1.376-.014a1.091,1.091,0,0,1,.021-2.182h.022c4.376.087,5.616-.268,5.885-.58.138-.161.014-.91-.086-1.511a11.633,11.633,0,0,1,.1-5.336,1.091,1.091,0,0,1,2.1.573,9.616,9.616,0,0,0-.055,4.405c.2,1.214.392,2.36-.416,3.3C3202,5087.251,3200.371,5087.623,3196.639,5087.623Z" transform="translate(-3181.094 -5032.029)" fill="#303e58"/>
        </g>
      </g>
    </g>
  </g>
</svg>
