<svg xmlns="http://www.w3.org/2000/svg" width="265" height="414.95" viewBox="0 0 265 414.95">
  <g id="Grupo_13605" data-name="Grupo 13605" transform="translate(-5225 1803.95)">
    <rect id="Rectángulo_3319" data-name="Rectángulo 3319" width="265" height="281" rx="7" transform="translate(5225 -1692)" fill="#e8eef3"/>
    <circle id="Elipse_855" data-name="Elipse 855" cx="111.9" cy="111.9" r="111.9" transform="translate(5246 -1803.95)" fill="#ff9100"/>
    <circle id="Elipse_858" data-name="Elipse 858" cx="106.3" cy="106.3" r="106.3" transform="translate(5251 -1798.35)" fill="#fff"/>
    <line id="Línea_243" data-name="Línea 243" x2="218" transform="translate(5248.5 -1508.5)" fill="none" stroke="#707070" stroke-width="3" opacity="0.2"/>
    <g id="Grupo_13600" data-name="Grupo 13600" transform="translate(5273 -1754.485)">
      <circle id="Elipse_512" data-name="Elipse 512" cx="67.259" cy="67.259" r="67.259" transform="translate(16.985)" fill="#d1d3d4"/>
      <g id="Grupo_13255" data-name="Grupo 13255" transform="translate(0 28.046)">
        <g id="Grupo_13254" data-name="Grupo 13254">
          <g id="Grupo_13253" data-name="Grupo 13253">
            <g id="Grupo_13251" data-name="Grupo 13251" transform="translate(34.911 1.516)">
              <path id="Trazado_19630" data-name="Trazado 19630" d="M24.366,5068.383c.773,5.378,1.655,9.845,1.655,9.845s-20.958,16.465-49.416,16.546c-28.431-.081-49.389-16.546-49.389-16.546s.883-4.467,1.655-9.845c5.46,3.808,23.992,15.28,47.734,15.361C.376,5083.663,18.906,5072.191,24.366,5068.383Z" transform="translate(72.95 -5017.561)" fill="#93dff9"/>
              <path id="Trazado_19631" data-name="Trazado 19631" d="M-72.254,4886.917c-.634-4.883-1.186-8.6-1.186-8.6,4.826-4.136,20.792-3.778,27.742-5.516,6.149-1.545,12.63-5.461,21.813-5.515,9.183.054,15.691,3.97,21.84,5.515,6.949,1.737,22.916,1.38,27.742,5.516,0,0-.663,4.524-1.379,10.12-5.957-3.172-19.966-3-26.363-4.6-6.15-1.546-12.657-5.462-21.84-5.516-9.183.054-15.664,3.97-21.813,5.516a93.93,93.93,0,0,1-11.636,1.516s-13.816.385-14.285,1.573Z" transform="translate(73.44 -4867.282)" fill="#93dff9"/>
              <path id="Trazado_19632" data-name="Trazado 19632" d="M-67.064,4940.573c.028-.717.055-1.406.055-2.068,0-1.874-.166-4.357-.413-7.061-.331-3.889-.855-8.217-1.324-11.912h.634c.469-1.187,14.285-1.572,14.285-1.572a93.743,93.743,0,0,0,11.636-1.516c6.149-1.546,12.63-5.462,21.813-5.516,9.183.054,15.691,3.97,21.84,5.516,6.4,1.6,20.406,1.432,26.363,4.6-.413,3.337-.855,7.034-1.158,10.4-.221,2.7-.386,5.187-.386,7.061,0,.662.027,1.352.055,2.068.137,3.146.579,6.813,1.048,10.147-5.46,3.808-23.99,15.279-47.761,15.36-23.743-.081-42.274-11.553-47.734-15.36C-67.643,4947.386-67.2,4943.719-67.064,4940.573Z" transform="translate(69.932 -4899.898)" fill="#93dff9"/>
            </g>
            <g id="Grupo_13252" data-name="Grupo 13252">
              <path id="Trazado_19633" data-name="Trazado 19633" d="M-22.085,5081.369c-24.331-.083-43.222-11.945-48.432-15.579a1.212,1.212,0,0,1-.3-1.688,1.212,1.212,0,0,1,1.689-.3c5.065,3.532,23.425,15.062,47.045,15.143,23.637-.081,42-11.611,47.063-15.143a1.213,1.213,0,0,1,1.388,1.99C21.156,5069.424,2.264,5081.286-22.085,5081.369Z" transform="translate(106.554 -5012.457)" fill="#fff"/>
              <path id="Trazado_19634" data-name="Trazado 19634" d="M68.353,4918.676a1.208,1.208,0,0,1-.569-.143c-3.489-1.857-10.25-2.535-16.215-3.133a78.3,78.3,0,0,1-9.872-1.365,61.967,61.967,0,0,1-6.136-2.019c-4.382-1.605-9.349-3.426-15.417-3.461-6.05.035-11,1.854-15.373,3.458a61.862,61.862,0,0,1-6.138,2.021,78.562,78.562,0,0,1-10.287,1.4l-1.526.148a1.213,1.213,0,0,1-1.326-1.089,1.212,1.212,0,0,1,1.088-1.325l1.53-.149a77.191,77.191,0,0,0,9.928-1.336,60.012,60.012,0,0,0,5.893-1.945c4.557-1.673,9.721-3.568,16.209-3.606,6.505.038,11.683,1.935,16.251,3.609a60.793,60.793,0,0,0,5.891,1.942,77.165,77.165,0,0,0,9.524,1.3c6.189.62,13.2,1.323,17.114,3.406a1.213,1.213,0,0,1-.571,2.283Z" transform="translate(64.314 -4894.796)" fill="#fff"/>
              <path id="Trazado_19635" data-name="Trazado 19635" d="M313.7,4941.29a1.516,1.516,0,0,1-1.147-2.508c6.388-7.389,12.65-11.886,18.175-15.854,8.76-6.291,14.547-10.447,14.547-21.761,0-7.266-3.224-15.029-12.271-15.029-2.4,0-5.442,1.24-8.664,2.553-3.5,1.427-7.12,2.9-10.446,2.962H313.7a1.516,1.516,0,1,1,0-3.031h.151c2.758-.056,6.107-1.42,9.344-2.739,3.5-1.429,6.815-2.777,9.808-2.777a13.977,13.977,0,0,1,11.6,5.447c2.426,3.186,3.709,7.547,3.709,12.615,0,12.869-6.977,17.88-15.811,24.225-5.388,3.869-11.5,8.257-17.65,15.374A1.514,1.514,0,0,1,313.7,4941.29Z" transform="translate(-179.82 -4877.589)" fill="#303e58"/>
              <path id="Trazado_19636" data-name="Trazado 19636" d="M-176.972,4941.29a1.513,1.513,0,0,1-1.148-.524c-6.154-7.117-12.261-11.5-17.65-15.374-8.833-6.345-15.811-11.355-15.811-24.225,0-5.068,1.283-9.43,3.709-12.615a13.977,13.977,0,0,1,11.6-5.447c2.992,0,6.3,1.349,9.8,2.776,3.3,1.347,6.714,2.74,9.5,2.74a1.516,1.516,0,0,1,1.516,1.516,1.516,1.516,0,0,1-1.516,1.516c-3.385,0-7.079-1.506-10.651-2.963-3.217-1.312-6.255-2.552-8.653-2.552-9.048,0-12.272,7.764-12.272,15.029,0,11.313,5.787,15.47,14.547,21.761,5.525,3.968,11.787,8.466,18.174,15.854a1.516,1.516,0,0,1-.155,2.139A1.515,1.515,0,0,1-176.972,4941.29Z" transform="translate(211.58 -4877.589)" fill="#303e58"/>
              <path id="Trazado_19637" data-name="Trazado 19637" d="M236.311,4973.426a1.226,1.226,0,0,1-.486-.1,65.2,65.2,0,0,0-22.878-5.415,1.214,1.214,0,0,1,.125-2.424A67.622,67.622,0,0,1,236.8,4971.1a1.213,1.213,0,0,1-.488,2.323Z" transform="translate(-104.801 -4939.15)" fill="#fff"/>
              <path id="Trazado_19638" data-name="Trazado 19638" d="M-67.1,4973.424a1.213,1.213,0,0,1-1.112-.729,1.213,1.213,0,0,1,.626-1.6,67.919,67.919,0,0,1,23.752-5.616,1.215,1.215,0,0,1,1.274,1.149,1.213,1.213,0,0,1-1.149,1.274,65.506,65.506,0,0,0-22.906,5.416A1.2,1.2,0,0,1-67.1,4973.424Z" transform="translate(104.516 -4939.148)" fill="#fff"/>
              <path id="Trazado_19639" data-name="Trazado 19639" d="M219.775,5033.107a1.213,1.213,0,0,1-.06-2.425,39.546,39.546,0,0,0,20.629-7.036,1.213,1.213,0,0,1,1.386,1.992,41.976,41.976,0,0,1-21.893,7.468Z" transform="translate(-109.858 -4982.451)" fill="#fff"/>
              <path id="Trazado_19640" data-name="Trazado 19640" d="M-44.416,5033.107h-.062a41.978,41.978,0,0,1-21.893-7.468,1.213,1.213,0,0,1-.3-1.689,1.213,1.213,0,0,1,1.688-.3,39.546,39.546,0,0,0,20.629,7.036,1.214,1.214,0,0,1,1.151,1.273A1.213,1.213,0,0,1-44.416,5033.107Z" transform="translate(103.457 -4982.451)" fill="#fff"/>
              <path id="Trazado_19641" data-name="Trazado 19641" d="M-28.364,4941.528a86.786,86.786,0,0,1-36-8.447,80.083,80.083,0,0,1-14.326-8.423,1.515,1.515,0,0,1-.551-1.486c.009-.044.885-4.494,1.641-9.767.583-4.145.921-7.417,1.034-10,.026-.667.054-1.362.054-2,0-1.646-.137-3.976-.407-6.922-.337-3.961-.881-8.417-1.318-11.859-.624-4.806-1.176-8.535-1.182-8.572a1.517,1.517,0,0,1,.513-1.374c3.507-3.006,11.327-3.787,18.888-4.542a76.521,76.521,0,0,0,9.472-1.293,59.766,59.766,0,0,0,5.86-1.936c4.58-1.681,9.771-3.586,16.312-3.625,6.562.038,11.766,1.945,16.357,3.628a60.473,60.473,0,0,0,5.861,1.933,76.545,76.545,0,0,0,9.47,1.292c7.562.755,15.382,1.536,18.889,4.542a1.516,1.516,0,0,1,.513,1.371c-.007.045-.669,4.576-1.375,10.092-.4,3.219-.848,6.97-1.152,10.339-.176,2.161-.38,4.914-.38,6.924,0,.64.028,1.336.054,2.008.112,2.574.451,5.846,1.034,10,.757,5.269,1.632,9.719,1.641,9.763a1.516,1.516,0,0,1-.551,1.486,80.054,80.054,0,0,1-14.329,8.423A86.854,86.854,0,0,1-28.364,4941.528Zm-47.726-18.712A83.635,83.635,0,0,0-63,4930.374a83.7,83.7,0,0,0,34.635,8.122,83.771,83.771,0,0,0,34.65-8.122,83.539,83.539,0,0,0,13.094-7.558c-.3-1.6-.926-5.071-1.488-8.98-.6-4.252-.945-7.619-1.061-10.3-.028-.708-.057-1.434-.057-2.134,0-2.12.209-4.953.392-7.185.309-3.426.762-7.208,1.164-10.458.524-4.1,1.025-7.65,1.253-9.25-3.229-2.026-10.583-2.761-16.573-3.359a78.047,78.047,0,0,1-9.906-1.368,62.139,62.139,0,0,1-6.167-2.028c-4.359-1.6-9.3-3.407-15.314-3.442-5.993.035-10.92,1.844-15.267,3.439a62.041,62.041,0,0,1-6.168,2.029,77.93,77.93,0,0,1-9.908,1.369c-5.989.6-13.342,1.332-16.571,3.357.2,1.4.612,4.29,1.058,7.728.44,3.475.989,7.972,1.331,11.978.282,3.071.419,5.426.419,7.189,0,.7-.029,1.426-.056,2.128-.117,2.685-.464,6.052-1.061,10.3C-75.163,4917.744-75.789,4921.211-76.09,4922.816Zm-1.668.649h0Z" transform="translate(112.834 -4861.282)" fill="#303e58"/>
            </g>
          </g>
        </g>
      </g>
    </g>
    <path id="Trazado_20127" data-name="Trazado 20127" d="M43.661,6.62H38.827V9.5H43V11.8H38.827V17H36.173V4.3h7.488ZM45.911,17V4.3h2.637V17Zm11.54.176a7.089,7.089,0,0,1-2.588-.466,6.087,6.087,0,0,1-2.061-1.3,5.864,5.864,0,0,1-1.354-2.065,7.2,7.2,0,0,1-.492-2.7A6.879,6.879,0,0,1,51.8,7.2a5.744,5.744,0,0,1,2.316-2.281,6.935,6.935,0,0,1,3.335-.791,6.739,6.739,0,0,1,3.727,1.028,5.629,5.629,0,0,1,2.276,2.83l-2.461.9a3.479,3.479,0,0,0-1.362-1.714,3.891,3.891,0,0,0-2.18-.615,3.73,3.73,0,0,0-2.777,1.107,4.075,4.075,0,0,0-1.09,2.988,4.081,4.081,0,0,0,1.094,2.993,3.726,3.726,0,0,0,2.773,1.112,3.876,3.876,0,0,0,2.175-.62,3.5,3.5,0,0,0,1.367-1.718l2.461.9a5.652,5.652,0,0,1-2.276,2.834A6.718,6.718,0,0,1,57.451,17.176ZM73.623,4.3H76.26V17H73.623V11.779h-5.37V17H65.616V4.3h2.637V9.485h5.37ZM88.046,17l-.923-2.619H81.788L80.865,17h-2.7L82.843,4.3h3.226L90.744,17Zm-5.484-4.825H86.35L84.46,6.787ZM104.332,4.3V6.62h-3.015V17h-2.61V6.62H95.675V4.3ZM112.84.767l-2,2.347h-1.556l2.3-3.234Zm.853,5.854h-4.711V9.5h4.175V11.8h-4.175v2.874h4.711V17h-7.365V4.3h7.365Zm7.857,10.556a7.089,7.089,0,0,1-2.588-.466,6.087,6.087,0,0,1-2.061-1.3,5.864,5.864,0,0,1-1.354-2.065,7.2,7.2,0,0,1-.492-2.7A6.879,6.879,0,0,1,115.9,7.2a5.744,5.744,0,0,1,2.316-2.281,6.935,6.935,0,0,1,3.335-.791,6.739,6.739,0,0,1,3.727,1.028,5.629,5.629,0,0,1,2.276,2.83l-2.461.9a3.479,3.479,0,0,0-1.362-1.714,3.891,3.891,0,0,0-2.18-.615,3.73,3.73,0,0,0-2.777,1.107,4.075,4.075,0,0,0-1.09,2.988,4.081,4.081,0,0,0,1.094,2.993,3.726,3.726,0,0,0,2.773,1.112,3.876,3.876,0,0,0,2.175-.62,3.5,3.5,0,0,0,1.367-1.718l2.461.9a5.652,5.652,0,0,1-2.276,2.834A6.718,6.718,0,0,1,121.55,17.176ZM138.39,4.3h2.628V17h-3.05l-5.625-9.079V17h-2.628V4.3h3.015l5.66,9.026ZM144.3,17V4.3h2.637V17Zm11.54.176a7.089,7.089,0,0,1-2.588-.466,6.087,6.087,0,0,1-2.061-1.3,5.864,5.864,0,0,1-1.354-2.065,7.2,7.2,0,0,1-.492-2.7,6.879,6.879,0,0,1,.844-3.45,5.744,5.744,0,0,1,2.316-2.281,6.935,6.935,0,0,1,3.335-.791,6.739,6.739,0,0,1,3.727,1.028,5.629,5.629,0,0,1,2.276,2.83l-2.461.9a3.479,3.479,0,0,0-1.362-1.714,3.891,3.891,0,0,0-2.18-.615,3.73,3.73,0,0,0-2.777,1.107,4.075,4.075,0,0,0-1.09,2.988,4.081,4.081,0,0,0,1.094,2.993,3.726,3.726,0,0,0,2.773,1.112,3.876,3.876,0,0,0,2.175-.62,3.5,3.5,0,0,0,1.367-1.718l2.461.9a5.652,5.652,0,0,1-2.276,2.834A6.718,6.718,0,0,1,155.845,17.176ZM172.509,17l-.923-2.619h-5.335L165.328,17h-2.7l4.676-12.7h3.226L175.207,17Zm-5.484-4.825h3.788l-1.89-5.388ZM59.543,26.3v2.32H56.528V39h-2.61V28.62H50.886V26.3ZM68.956,39l-.923-2.619H62.7L61.775,39h-2.7l4.676-12.7h3.226L71.654,39Zm-5.484-4.825H67.26l-1.89-5.388ZM78.844,26.3a3.822,3.822,0,0,1,2.927,1.182A4.112,4.112,0,0,1,82.878,30.4a4.011,4.011,0,0,1-1.1,2.9,3.891,3.891,0,0,1-2.936,1.138H76.2V39H73.562V26.3ZM78.4,32.241a1.938,1.938,0,0,0,1.45-.5,2.166,2.166,0,0,0,0-2.733,1.92,1.92,0,0,0-1.446-.505H76.2v3.735ZM92.317,39l-.923-2.619H86.06L85.137,39h-2.7l4.676-12.7H90.34L95.016,39Zm-5.484-4.825h3.788l-1.89-5.388Zm16.91-1.881a2.971,2.971,0,0,1,2.391,3.146,3.41,3.41,0,0,1-1.011,2.606,4.176,4.176,0,0,1-2.971.954H96.923V26.3h4.113a4.66,4.66,0,0,1,3.107.918,3.186,3.186,0,0,1,1.077,2.562,2.988,2.988,0,0,1-.374,1.507A2.46,2.46,0,0,1,103.743,32.294Zm-2.681-3.806h-1.6v2.988h1.714a1.606,1.606,0,0,0,1.213-.422,1.534,1.534,0,0,0,.4-1.107,1.363,1.363,0,0,0-.439-1.059A1.859,1.859,0,0,0,101.063,28.488Zm.6,8.253a2.025,2.025,0,0,0,1.455-.448,1.524,1.524,0,0,0,.461-1.143,1.6,1.6,0,0,0-.466-1.178,2.061,2.061,0,0,0-1.5-.466H99.463v3.234ZM113.9,39.176a6.9,6.9,0,0,1-3.335-.8,5.766,5.766,0,0,1-2.316-2.29,7.465,7.465,0,0,1,0-6.9,5.744,5.744,0,0,1,2.316-2.281,7.418,7.418,0,0,1,6.667,0,5.752,5.752,0,0,1,2.312,2.281,7.465,7.465,0,0,1,0,6.9,5.766,5.766,0,0,1-2.316,2.29A6.885,6.885,0,0,1,113.9,39.176Zm-2.777-3.529a4.025,4.025,0,0,0,5.555,0,4.1,4.1,0,0,0,1.09-3,4.075,4.075,0,0,0-1.09-2.988,4.036,4.036,0,0,0-5.555,0,4.075,4.075,0,0,0-1.09,2.988A4.1,4.1,0,0,0,111.126,35.647Zm17.314,3.529a7.089,7.089,0,0,1-2.588-.466,6.087,6.087,0,0,1-2.061-1.3,5.864,5.864,0,0,1-1.354-2.065,7.2,7.2,0,0,1-.492-2.7,6.879,6.879,0,0,1,.844-3.45,5.744,5.744,0,0,1,2.316-2.281,6.935,6.935,0,0,1,3.335-.791,6.739,6.739,0,0,1,3.727,1.028,5.629,5.629,0,0,1,2.276,2.83l-2.461.9a3.479,3.479,0,0,0-1.362-1.714,3.891,3.891,0,0,0-2.18-.615,3.73,3.73,0,0,0-2.777,1.107,4.075,4.075,0,0,0-1.09,2.988,4.081,4.081,0,0,0,1.094,2.993,3.726,3.726,0,0,0,2.773,1.112,3.876,3.876,0,0,0,2.175-.62,3.5,3.5,0,0,0,1.367-1.718l2.461.9a5.652,5.652,0,0,1-2.276,2.834A6.718,6.718,0,0,1,128.44,39.176ZM145.1,39l-.923-2.619h-5.335L137.924,39h-2.7L139.9,26.3h3.226L147.8,39Zm-5.484-4.825h3.788l-1.89-5.388Zm14.309,5A6.136,6.136,0,0,1,150.4,38.2a3.9,3.9,0,0,1-1.714-2.72l2.725-.624a2.314,2.314,0,0,0,.839,1.6,2.785,2.785,0,0,0,1.78.558,2.3,2.3,0,0,0,1.389-.391,1.319,1.319,0,0,0,.527-1.156,1.233,1.233,0,0,0-.448-.94,2.929,2.929,0,0,0-.892-.576q-.444-.171-1.428-.47-.132-.044-.193-.062-.5-.158-.809-.264t-.76-.294a5.063,5.063,0,0,1-.738-.369,5.405,5.405,0,0,1-.611-.457,2.394,2.394,0,0,1-.51-.584,3.1,3.1,0,0,1-.308-.729,3.219,3.219,0,0,1-.123-.905,3.4,3.4,0,0,1,.593-2,3.633,3.633,0,0,1,1.6-1.274,5.822,5.822,0,0,1,2.29-.426,7.233,7.233,0,0,1,1.657.185,5.8,5.8,0,0,1,1.481.567,3.628,3.628,0,0,1,1.182,1.046,3.933,3.933,0,0,1,.672,1.542l-2.549.633a2.065,2.065,0,0,0-2.285-1.819,2.5,2.5,0,0,0-1.415.369,1.251,1.251,0,0,0-.554,1.116q0,.694.923,1.125a13.752,13.752,0,0,0,1.767.606q.519.158.844.264t.817.308a5.68,5.68,0,0,1,.8.391,5.918,5.918,0,0,1,.668.488,2.627,2.627,0,0,1,.567.633,3.422,3.422,0,0,1,.347.787,3.288,3.288,0,0,1,.141.98,3.85,3.85,0,0,1-.255,1.433,3.118,3.118,0,0,1-.7,1.081,4.058,4.058,0,0,1-1.05.743,5.1,5.1,0,0,1-1.292.439A7.431,7.431,0,0,1,153.929,39.176Z" transform="translate(5253 -1564)" fill="#002b45"/>
    <path id="Trazado_20128" data-name="Trazado 20128" d="M8.029,5.489H4.078V8.634H7.523V9.741H4.078V14H2.827V4.375h5.2Zm2.358.212a.805.805,0,0,1-.8-.8.758.758,0,0,1,.236-.561.775.775,0,0,1,.564-.232.767.767,0,0,1,.557.232.758.758,0,0,1,.236.561.77.77,0,0,1-.236.564A.762.762,0,0,1,10.387,5.7Zm-.6,8.3V7.28h1.189V14Zm6.385.123a3.237,3.237,0,0,1-2.406-.964,3.438,3.438,0,0,1-.95-2.522,3.445,3.445,0,0,1,.947-2.522,3.234,3.234,0,0,1,2.41-.964,3.26,3.26,0,0,1,1.945.588,2.967,2.967,0,0,1,1.131,1.634l-1.107.178A2.045,2.045,0,0,0,17.38,8.5a2.066,2.066,0,0,0-1.217-.369,1.987,1.987,0,0,0-1.555.69A2.63,2.63,0,0,0,14,10.637a2.617,2.617,0,0,0,.612,1.808,1.991,1.991,0,0,0,1.555.687,2.066,2.066,0,0,0,1.217-.369,2.045,2.045,0,0,0,.759-1.046l1.107.185a2.97,2.97,0,0,1-1.138,1.63A3.255,3.255,0,0,1,16.17,14.123ZM24.2,7.15a2.245,2.245,0,0,1,1.661.622,2.415,2.415,0,0,1,.622,1.784V14H25.3V9.782a1.653,1.653,0,0,0-.41-1.237,1.461,1.461,0,0,0-1.06-.4,1.626,1.626,0,0,0-1.186.458,1.862,1.862,0,0,0-.475,1.374V14H20.99V3.5h1.183V8.169a2.186,2.186,0,0,1,.844-.752A2.574,2.574,0,0,1,24.2,7.15Zm6.111,6.979a2.287,2.287,0,0,1-1.473-.461,1.657,1.657,0,0,1-.578-1.377,1.957,1.957,0,0,1,.185-.878,1.549,1.549,0,0,1,.547-.612,3.281,3.281,0,0,1,.79-.379,7.3,7.3,0,0,1,1.022-.243L31.893,10q.595-.109.595-.622a1.174,1.174,0,0,0-.42-1A1.713,1.713,0,0,0,31,8.06a1.745,1.745,0,0,0-1.053.308,1.287,1.287,0,0,0-.5.943l-1.066-.226a2.052,2.052,0,0,1,.841-1.439,3.141,3.141,0,0,1,1.832-.482,3.716,3.716,0,0,1,.974.12,2.647,2.647,0,0,1,.813.376,1.686,1.686,0,0,1,.581.725,2.7,2.7,0,0,1,.208,1.1v2.775a1.136,1.136,0,0,0,.154.7.664.664,0,0,0,.53.181h.109V14h-.588a1.121,1.121,0,0,1-1.271-.909h-.055A2.568,2.568,0,0,1,30.314,14.13Zm.273-.957a1.793,1.793,0,0,0,1.442-.649,2.674,2.674,0,0,0,.547-1.777l-1.777.342a2.392,2.392,0,0,0-1.042.373.867.867,0,0,0-.338.735.857.857,0,0,0,.325.738A1.388,1.388,0,0,0,30.587,13.173ZM41.88,14a1.766,1.766,0,0,1-1.312-.482,1.823,1.823,0,0,1-.479-1.343V8.224H38.715V7.28h.506a.971.971,0,0,0,.742-.236,1.161,1.161,0,0,0,.215-.79V5.038h1.1V7.28h1.545v.943H41.279v3.828a1.019,1.019,0,0,0,.256.742.9.9,0,0,0,.673.263h.615V14Zm7.273-9.673L47.623,6.1h-.813l1.716-2.229Zm1.176,6.18-.014.321h-5.25a2.375,2.375,0,0,0,.643,1.719,2.11,2.11,0,0,0,1.531.6,2.015,2.015,0,0,0,1.114-.321,2.085,2.085,0,0,0,.766-.889l1.066.226A3.031,3.031,0,0,1,49.038,13.6a3.133,3.133,0,0,1-1.784.526,3.246,3.246,0,0,1-2.42-.937,3.484,3.484,0,0,1-.923-2.557,3.467,3.467,0,0,1,.926-2.55,3.206,3.206,0,0,1,2.382-.937,3.034,3.034,0,0,1,2.259.861A3.4,3.4,0,0,1,50.33,10.507ZM47.219,8.06a2.1,2.1,0,0,0-1.4.475,2.177,2.177,0,0,0-.708,1.384H49.14a2,2,0,0,0-.588-1.384A1.9,1.9,0,0,0,47.219,8.06Zm7.752,6.063a3.237,3.237,0,0,1-2.406-.964,3.438,3.438,0,0,1-.95-2.522,3.445,3.445,0,0,1,.947-2.522,3.5,3.5,0,0,1,4.354-.376,2.967,2.967,0,0,1,1.131,1.634L56.94,9.55A2.045,2.045,0,0,0,56.181,8.5a2.066,2.066,0,0,0-1.217-.369,1.987,1.987,0,0,0-1.555.69,2.63,2.63,0,0,0-.612,1.812,2.617,2.617,0,0,0,.612,1.808,1.991,1.991,0,0,0,1.555.687,2.066,2.066,0,0,0,1.217-.369,2.045,2.045,0,0,0,.759-1.046l1.107.185a2.97,2.97,0,0,1-1.138,1.63A3.255,3.255,0,0,1,54.971,14.123ZM62.962,7.15a2.337,2.337,0,0,1,1.692.608,2.269,2.269,0,0,1,.632,1.716V14H64.1V9.741a1.589,1.589,0,0,0-.41-1.2,1.466,1.466,0,0,0-1.053-.39,1.626,1.626,0,0,0-1.2.461,1.872,1.872,0,0,0-.472,1.371V14H59.791V7.28h1.183v.861A2.244,2.244,0,0,1,62.962,7.15ZM68.171,5.7a.805.805,0,0,1-.8-.8.758.758,0,0,1,.236-.561.775.775,0,0,1,.564-.232.767.767,0,0,1,.557.232.758.758,0,0,1,.236.561.77.77,0,0,1-.236.564A.762.762,0,0,1,68.171,5.7Zm-.6,8.3V7.28h1.189V14Zm6.385.123a3.237,3.237,0,0,1-2.406-.964,3.438,3.438,0,0,1-.95-2.522,3.445,3.445,0,0,1,.947-2.522A3.5,3.5,0,0,1,75.9,7.738a2.967,2.967,0,0,1,1.131,1.634l-1.107.178A2.045,2.045,0,0,0,75.165,8.5a2.066,2.066,0,0,0-1.217-.369,1.987,1.987,0,0,0-1.555.69,2.63,2.63,0,0,0-.612,1.812,2.617,2.617,0,0,0,.612,1.808,1.991,1.991,0,0,0,1.555.687,2.066,2.066,0,0,0,1.217-.369,2.045,2.045,0,0,0,.759-1.046l1.107.185a2.97,2.97,0,0,1-1.138,1.63A3.255,3.255,0,0,1,73.955,14.123Zm6.371.007a2.287,2.287,0,0,1-1.473-.461,1.657,1.657,0,0,1-.578-1.377,1.957,1.957,0,0,1,.185-.878,1.549,1.549,0,0,1,.547-.612,3.281,3.281,0,0,1,.79-.379,7.3,7.3,0,0,1,1.022-.243L81.9,10q.595-.109.595-.622a1.174,1.174,0,0,0-.42-1,1.713,1.713,0,0,0-1.063-.318,1.745,1.745,0,0,0-1.053.308,1.287,1.287,0,0,0-.5.943L78.4,9.085a2.052,2.052,0,0,1,.841-1.439,3.141,3.141,0,0,1,1.832-.482,3.716,3.716,0,0,1,.974.12,2.647,2.647,0,0,1,.813.376,1.686,1.686,0,0,1,.581.725,2.7,2.7,0,0,1,.208,1.1v2.775a1.136,1.136,0,0,0,.154.7.664.664,0,0,0,.53.181h.109V14h-.588a1.121,1.121,0,0,1-1.271-.909h-.055A2.568,2.568,0,0,1,80.326,14.13Zm.273-.957a1.793,1.793,0,0,0,1.442-.649,2.674,2.674,0,0,0,.547-1.777l-1.777.342a2.392,2.392,0,0,0-1.042.373.867.867,0,0,0-.338.735.857.857,0,0,0,.325.738A1.388,1.388,0,0,0,80.6,13.173ZM93.293,7.15A3.056,3.056,0,0,1,94.51,7.4a2.993,2.993,0,0,1,1,.69,3.227,3.227,0,0,1,.673,1.107,4.083,4.083,0,0,1,.25,1.449,3.553,3.553,0,0,1-.906,2.536,2.942,2.942,0,0,1-2.232.964,2.66,2.66,0,0,1-1.4-.383,2.509,2.509,0,0,1-.96-1.032v4.655H89.746V7.28h1.142l.027,1.306a2.46,2.46,0,0,1,.957-1.049A2.685,2.685,0,0,1,93.293,7.15Zm-.232,5.968a2.04,2.04,0,0,0,1.555-.68,2.53,2.53,0,0,0,.632-1.794,2.518,2.518,0,0,0-.632-1.791,2.121,2.121,0,0,0-3.134.031,2.52,2.52,0,0,0-.643,1.76,2.53,2.53,0,0,0,.643,1.767A2.05,2.05,0,0,0,93.061,13.118Zm6.788,1.012a2.287,2.287,0,0,1-1.473-.461,1.657,1.657,0,0,1-.578-1.377,1.957,1.957,0,0,1,.185-.878,1.549,1.549,0,0,1,.547-.612,3.281,3.281,0,0,1,.79-.379,7.3,7.3,0,0,1,1.022-.243L101.428,10q.595-.109.595-.622a1.174,1.174,0,0,0-.42-1,1.713,1.713,0,0,0-1.063-.318,1.745,1.745,0,0,0-1.053.308,1.287,1.287,0,0,0-.5.943l-1.066-.226a2.052,2.052,0,0,1,.841-1.439,3.141,3.141,0,0,1,1.832-.482,3.716,3.716,0,0,1,.974.12,2.647,2.647,0,0,1,.813.376,1.686,1.686,0,0,1,.581.725,2.7,2.7,0,0,1,.208,1.1v2.775a1.136,1.136,0,0,0,.154.7.664.664,0,0,0,.53.181h.109V14h-.588a1.121,1.121,0,0,1-1.271-.909h-.055A2.568,2.568,0,0,1,99.849,14.13Zm.273-.957a1.793,1.793,0,0,0,1.442-.649,2.674,2.674,0,0,0,.547-1.777l-1.777.342a2.392,2.392,0,0,0-1.042.373.867.867,0,0,0-.338.735.857.857,0,0,0,.325.738A1.388,1.388,0,0,0,100.123,13.173Zm6.665-4.71a2.032,2.032,0,0,1,.834-.9,2.512,2.512,0,0,1,1.292-.355V8.319a2.214,2.214,0,0,0-1.562.5,2.084,2.084,0,0,0-.537,1.593V14h-1.183V7.28h1.155Zm4.983,5.667a2.287,2.287,0,0,1-1.473-.461,1.657,1.657,0,0,1-.578-1.377,1.957,1.957,0,0,1,.185-.878,1.549,1.549,0,0,1,.547-.612,3.281,3.281,0,0,1,.79-.379,7.3,7.3,0,0,1,1.022-.243L113.35,10q.595-.109.595-.622a1.174,1.174,0,0,0-.42-1,1.713,1.713,0,0,0-1.063-.318,1.745,1.745,0,0,0-1.053.308,1.287,1.287,0,0,0-.5.943l-1.066-.226a2.052,2.052,0,0,1,.841-1.439,3.141,3.141,0,0,1,1.832-.482,3.716,3.716,0,0,1,.974.12,2.647,2.647,0,0,1,.813.376,1.686,1.686,0,0,1,.581.725,2.7,2.7,0,0,1,.208,1.1v2.775a1.136,1.136,0,0,0,.154.7.664.664,0,0,0,.53.181h.109V14H115.3a1.121,1.121,0,0,1-1.271-.909h-.055A2.568,2.568,0,0,1,111.771,14.13Zm.273-.957a1.793,1.793,0,0,0,1.442-.649,2.674,2.674,0,0,0,.547-1.777l-1.777.342a2.392,2.392,0,0,0-1.042.373.867.867,0,0,0-.338.735.857.857,0,0,0,.325.738A1.388,1.388,0,0,0,112.044,13.173Zm9.146.827V3.5h1.2V14Zm5.154.13a2.287,2.287,0,0,1-1.473-.461,1.657,1.657,0,0,1-.578-1.377,1.957,1.957,0,0,1,.185-.878,1.549,1.549,0,0,1,.547-.612,3.281,3.281,0,0,1,.79-.379,7.3,7.3,0,0,1,1.022-.243L127.924,10q.595-.109.595-.622a1.174,1.174,0,0,0-.42-1,1.713,1.713,0,0,0-1.063-.318,1.745,1.745,0,0,0-1.053.308,1.287,1.287,0,0,0-.5.943l-1.066-.226a2.052,2.052,0,0,1,.841-1.439,3.141,3.141,0,0,1,1.832-.482,3.716,3.716,0,0,1,.974.12,2.647,2.647,0,0,1,.813.376,1.686,1.686,0,0,1,.581.725,2.7,2.7,0,0,1,.208,1.1v2.775a1.136,1.136,0,0,0,.154.7.664.664,0,0,0,.53.181h.109V14h-.588a1.121,1.121,0,0,1-1.271-.909h-.055A2.568,2.568,0,0,1,126.345,14.13Zm.273-.957a1.793,1.793,0,0,0,1.442-.649,2.674,2.674,0,0,0,.547-1.777l-1.777.342a2.392,2.392,0,0,0-1.042.373.867.867,0,0,0-.338.735.857.857,0,0,0,.325.738A1.388,1.388,0,0,0,126.619,13.173Zm15.025-2.666-.014.321h-5.25a2.375,2.375,0,0,0,.643,1.719,2.11,2.11,0,0,0,1.531.6,2.015,2.015,0,0,0,1.114-.321,2.085,2.085,0,0,0,.766-.889l1.066.226a3.031,3.031,0,0,1-1.148,1.442,3.133,3.133,0,0,1-1.784.526,3.246,3.246,0,0,1-2.42-.937,3.484,3.484,0,0,1-.923-2.557,3.467,3.467,0,0,1,.926-2.55,3.206,3.206,0,0,1,2.382-.937,3.034,3.034,0,0,1,2.259.861A3.4,3.4,0,0,1,141.644,10.507Zm-3.11-2.447a2.1,2.1,0,0,0-1.4.475,2.177,2.177,0,0,0-.708,1.384h4.026a2,2,0,0,0-.588-1.384A1.9,1.9,0,0,0,138.534,8.06ZM143.5,14V3.5h1.2V14Zm5.154.13a2.287,2.287,0,0,1-1.473-.461,1.657,1.657,0,0,1-.578-1.377,1.957,1.957,0,0,1,.185-.878,1.549,1.549,0,0,1,.547-.612,3.28,3.28,0,0,1,.79-.379,7.3,7.3,0,0,1,1.022-.243L150.23,10q.595-.109.595-.622a1.174,1.174,0,0,0-.42-1,1.713,1.713,0,0,0-1.063-.318,1.745,1.745,0,0,0-1.053.308,1.287,1.287,0,0,0-.5.943l-1.066-.226a2.052,2.052,0,0,1,.841-1.439,3.141,3.141,0,0,1,1.832-.482,3.716,3.716,0,0,1,.974.12,2.647,2.647,0,0,1,.813.376,1.686,1.686,0,0,1,.581.725,2.7,2.7,0,0,1,.208,1.1v2.775a1.136,1.136,0,0,0,.154.7.664.664,0,0,0,.53.181h.109V14h-.588a1.121,1.121,0,0,1-1.271-.909h-.055A2.568,2.568,0,0,1,148.651,14.13Zm.273-.957a1.793,1.793,0,0,0,1.442-.649,2.674,2.674,0,0,0,.547-1.777l-1.777.342a2.392,2.392,0,0,0-1.042.373.867.867,0,0,0-.338.735.857.857,0,0,0,.325.738A1.388,1.388,0,0,0,148.924,13.173ZM158,7.15a2.928,2.928,0,0,1,2.222.971,3.541,3.541,0,0,1,.909,2.522,3.567,3.567,0,0,1-.9,2.529,2.922,2.922,0,0,1-2.229.971,2.7,2.7,0,0,1-1.432-.39,2.466,2.466,0,0,1-.96-1.06L155.576,14h-1.142V3.5h1.176l.007,5.065a2.477,2.477,0,0,1,.96-1.036A2.7,2.7,0,0,1,158,7.15Zm-.26,5.968a2.057,2.057,0,0,0,1.572-.687,2.528,2.528,0,0,0,.636-1.788,2.528,2.528,0,0,0-.636-1.788,2.057,2.057,0,0,0-1.572-.687,2.011,2.011,0,0,0-1.559.711,2.549,2.549,0,0,0-.636,1.764,2.554,2.554,0,0,0,.632,1.767A2.012,2.012,0,0,0,157.736,13.118Zm8.08,1.012a3.542,3.542,0,0,1-1.723-.417,3.036,3.036,0,0,1-1.213-1.22,3.748,3.748,0,0,1-.448-1.856,3.423,3.423,0,0,1,.954-2.533,3.578,3.578,0,0,1,4.864,0,3.43,3.43,0,0,1,.95,2.533,3.432,3.432,0,0,1-.954,2.54A3.292,3.292,0,0,1,165.816,14.13Zm-.007-.984a2.064,2.064,0,0,0,1.589-.69,2.587,2.587,0,0,0,.632-1.818,2.577,2.577,0,0,0-.632-1.812,2.064,2.064,0,0,0-1.589-.69,2.035,2.035,0,0,0-1.576.69,2.594,2.594,0,0,0-.625,1.812,2.6,2.6,0,0,0,.625,1.818A2.035,2.035,0,0,0,165.809,13.146Zm6.4-4.683a2.032,2.032,0,0,1,.834-.9,2.512,2.512,0,0,1,1.292-.355V8.319a2.214,2.214,0,0,0-1.562.5,2.084,2.084,0,0,0-.537,1.593V14h-1.183V7.28h1.155Zm4.983,5.667a2.287,2.287,0,0,1-1.473-.461,1.657,1.657,0,0,1-.578-1.377,1.957,1.957,0,0,1,.185-.878,1.549,1.549,0,0,1,.547-.612,3.28,3.28,0,0,1,.79-.379,7.3,7.3,0,0,1,1.022-.243L178.77,10q.595-.109.595-.622a1.174,1.174,0,0,0-.42-1,1.713,1.713,0,0,0-1.063-.318,1.745,1.745,0,0,0-1.053.308,1.287,1.287,0,0,0-.5.943l-1.066-.226a2.052,2.052,0,0,1,.841-1.439,3.141,3.141,0,0,1,1.832-.482,3.716,3.716,0,0,1,.974.12,2.647,2.647,0,0,1,.813.376,1.686,1.686,0,0,1,.581.725,2.7,2.7,0,0,1,.208,1.1v2.775a1.136,1.136,0,0,0,.154.7.664.664,0,0,0,.53.181h.109V14h-.588a1.121,1.121,0,0,1-1.271-.909h-.055A2.568,2.568,0,0,1,177.191,14.13Zm.273-.957a1.793,1.793,0,0,0,1.442-.649,2.674,2.674,0,0,0,.547-1.777l-1.777.342a2.392,2.392,0,0,0-1.042.373.867.867,0,0,0-.338.735.857.857,0,0,0,.325.738A1.388,1.388,0,0,0,177.464,13.173Zm8.162.95a3.237,3.237,0,0,1-2.406-.964,3.438,3.438,0,0,1-.95-2.522,3.445,3.445,0,0,1,.947-2.522,3.5,3.5,0,0,1,4.354-.376A2.967,2.967,0,0,1,188.7,9.372L187.6,9.55a2.045,2.045,0,0,0-.759-1.046,2.066,2.066,0,0,0-1.217-.369,1.987,1.987,0,0,0-1.555.69,2.63,2.63,0,0,0-.612,1.812,2.617,2.617,0,0,0,.612,1.808,1.991,1.991,0,0,0,1.555.687,2.066,2.066,0,0,0,1.217-.369,2.045,2.045,0,0,0,.759-1.046l1.107.185a2.97,2.97,0,0,1-1.138,1.63A3.255,3.255,0,0,1,185.626,14.123ZM191.047,5.7a.805.805,0,0,1-.8-.8.758.758,0,0,1,.236-.561.775.775,0,0,1,.564-.232.767.767,0,0,1,.557.232.758.758,0,0,1,.236.561.77.77,0,0,1-.236.564A.762.762,0,0,1,191.047,5.7Zm-.6,8.3V7.28h1.189V14Zm5.975-7.875L198.136,3.9l.629.458-1.531,1.771Zm.451,8a3.542,3.542,0,0,1-1.723-.417,3.036,3.036,0,0,1-1.213-1.22,3.748,3.748,0,0,1-.448-1.856,3.423,3.423,0,0,1,.954-2.533,3.578,3.578,0,0,1,4.864,0,3.43,3.43,0,0,1,.95,2.533,3.432,3.432,0,0,1-.954,2.54A3.292,3.292,0,0,1,196.872,14.13Zm-.007-.984a2.064,2.064,0,0,0,1.589-.69,2.587,2.587,0,0,0,.632-1.818,2.577,2.577,0,0,0-.632-1.812,2.064,2.064,0,0,0-1.589-.69,2.035,2.035,0,0,0-1.576.69,2.594,2.594,0,0,0-.625,1.812,2.6,2.6,0,0,0,.625,1.818A2.035,2.035,0,0,0,196.865,13.146Zm8.415-6a2.338,2.338,0,0,1,1.692.608,2.269,2.269,0,0,1,.632,1.716V14h-1.183V9.741a1.589,1.589,0,0,0-.41-1.2,1.466,1.466,0,0,0-1.053-.39,1.626,1.626,0,0,0-1.2.461,1.872,1.872,0,0,0-.472,1.371V14h-1.183V7.28h1.183v.861A2.244,2.244,0,0,1,205.28,7.15ZM29.524,21.5h1.183V32H29.565l-.027-1.306a2.473,2.473,0,0,1-.957,1.06,2.667,2.667,0,0,1-1.422.39,3.054,3.054,0,0,1-2.218-.947,3.236,3.236,0,0,1-.677-1.111,4.063,4.063,0,0,1-.25-1.442,3.533,3.533,0,0,1,.913-2.522,2.946,2.946,0,0,1,2.232-.971,2.678,2.678,0,0,1,1.4.379,2.487,2.487,0,0,1,.96,1.029Zm-2.119,9.618a2.012,2.012,0,0,0,1.562-.708,2.775,2.775,0,0,0,0-3.531,2.011,2.011,0,0,0-1.559-.711,2.056,2.056,0,0,0-1.572.687,2.831,2.831,0,0,0,0,3.575A2.056,2.056,0,0,0,27.405,31.118Zm11.587-2.611-.014.321h-5.25a2.375,2.375,0,0,0,.643,1.719,2.11,2.11,0,0,0,1.531.6,2.015,2.015,0,0,0,1.114-.321,2.085,2.085,0,0,0,.766-.889l1.066.226A3.031,3.031,0,0,1,37.7,31.6a3.133,3.133,0,0,1-1.784.526,3.246,3.246,0,0,1-2.42-.937,3.484,3.484,0,0,1-.923-2.557,3.467,3.467,0,0,1,.926-2.55,3.206,3.206,0,0,1,2.382-.937,3.034,3.034,0,0,1,2.259.861A3.4,3.4,0,0,1,38.992,28.507Zm-3.11-2.447a2.1,2.1,0,0,0-1.4.475,2.177,2.177,0,0,0-.708,1.384H37.8a2,2,0,0,0-.588-1.384A1.9,1.9,0,0,0,35.882,26.06ZM46.628,32a1.766,1.766,0,0,1-1.312-.482,1.823,1.823,0,0,1-.479-1.343V26.224H43.463V25.28h.506a.971.971,0,0,0,.742-.236,1.161,1.161,0,0,0,.215-.79V23.038h1.1V25.28h1.545v.943H46.026v3.828a1.019,1.019,0,0,0,.256.742.9.9,0,0,0,.673.263h.615V32Zm4.122.13a2.287,2.287,0,0,1-1.473-.461,1.657,1.657,0,0,1-.578-1.377,1.957,1.957,0,0,1,.185-.878,1.549,1.549,0,0,1,.547-.612,3.28,3.28,0,0,1,.79-.379,7.3,7.3,0,0,1,1.022-.243L52.329,28q.595-.109.595-.622a1.174,1.174,0,0,0-.42-1,1.713,1.713,0,0,0-1.063-.318,1.745,1.745,0,0,0-1.053.308,1.287,1.287,0,0,0-.5.943l-1.066-.226a2.052,2.052,0,0,1,.841-1.439,3.141,3.141,0,0,1,1.832-.482,3.716,3.716,0,0,1,.974.12,2.647,2.647,0,0,1,.813.376,1.686,1.686,0,0,1,.581.725,2.7,2.7,0,0,1,.208,1.1v2.775a1.136,1.136,0,0,0,.154.7.664.664,0,0,0,.53.181h.109V32h-.588a1.121,1.121,0,0,1-1.271-.909h-.055A2.568,2.568,0,0,1,50.75,32.13Zm.273-.957a1.793,1.793,0,0,0,1.442-.649,2.674,2.674,0,0,0,.547-1.777l-1.777.342a2.392,2.392,0,0,0-1.042.373.867.867,0,0,0-.338.735.857.857,0,0,0,.325.738A1.388,1.388,0,0,0,51.023,31.173Zm9.058-6.022A3.056,3.056,0,0,1,61.3,25.4a2.993,2.993,0,0,1,1,.69,3.227,3.227,0,0,1,.673,1.107,4.084,4.084,0,0,1,.25,1.449,3.553,3.553,0,0,1-.906,2.536,2.942,2.942,0,0,1-2.232.964,2.66,2.66,0,0,1-1.4-.383,2.509,2.509,0,0,1-.96-1.032v4.655H56.533V25.28h1.142l.027,1.306a2.46,2.46,0,0,1,.957-1.049A2.685,2.685,0,0,1,60.081,25.15Zm-.232,5.968a2.04,2.04,0,0,0,1.555-.68,2.857,2.857,0,0,0,0-3.585,2.121,2.121,0,0,0-3.134.031,2.742,2.742,0,0,0,0,3.527A2.05,2.05,0,0,0,59.849,31.118Zm6.788,1.012a2.287,2.287,0,0,1-1.473-.461,1.657,1.657,0,0,1-.578-1.377,1.957,1.957,0,0,1,.185-.878,1.549,1.549,0,0,1,.547-.612,3.281,3.281,0,0,1,.79-.379,7.3,7.3,0,0,1,1.022-.243L68.216,28q.595-.109.595-.622a1.174,1.174,0,0,0-.42-1,1.713,1.713,0,0,0-1.063-.318,1.745,1.745,0,0,0-1.053.308,1.287,1.287,0,0,0-.5.943l-1.066-.226a2.052,2.052,0,0,1,.841-1.439,3.141,3.141,0,0,1,1.832-.482,3.716,3.716,0,0,1,.974.12,2.647,2.647,0,0,1,.813.376,1.686,1.686,0,0,1,.581.725,2.7,2.7,0,0,1,.208,1.1v2.775a1.136,1.136,0,0,0,.154.7.664.664,0,0,0,.53.181h.109V32h-.588a1.121,1.121,0,0,1-1.271-.909h-.055A2.568,2.568,0,0,1,66.637,32.13Zm.273-.957a1.793,1.793,0,0,0,1.442-.649,2.674,2.674,0,0,0,.547-1.777l-1.777.342a2.392,2.392,0,0,0-1.042.373.867.867,0,0,0-.338.735.857.857,0,0,0,.325.738A1.388,1.388,0,0,0,66.91,31.173Zm9.071-6.022a2.928,2.928,0,0,1,2.222.971,3.541,3.541,0,0,1,.909,2.522,3.567,3.567,0,0,1-.9,2.529,2.922,2.922,0,0,1-2.229.971,2.7,2.7,0,0,1-1.432-.39,2.466,2.466,0,0,1-.96-1.06L73.562,32H72.42V21.5H73.6l.007,5.065a2.477,2.477,0,0,1,.96-1.036A2.7,2.7,0,0,1,75.981,25.15Zm-.26,5.968a2.056,2.056,0,0,0,1.572-.687,2.831,2.831,0,0,0,0-3.575,2.056,2.056,0,0,0-1.572-.687,2.011,2.011,0,0,0-1.559.711,2.775,2.775,0,0,0,0,3.531A2.012,2.012,0,0,0,75.722,31.118ZM83.8,32.13a3.542,3.542,0,0,1-1.723-.417,3.036,3.036,0,0,1-1.213-1.22,3.748,3.748,0,0,1-.448-1.856,3.423,3.423,0,0,1,.954-2.533,3.578,3.578,0,0,1,4.864,0,3.43,3.43,0,0,1,.95,2.533,3.432,3.432,0,0,1-.954,2.54A3.292,3.292,0,0,1,83.8,32.13Zm-.007-.984a2.064,2.064,0,0,0,1.589-.69,2.921,2.921,0,0,0,0-3.63,2.064,2.064,0,0,0-1.589-.69,2.035,2.035,0,0,0-1.576.69,2.946,2.946,0,0,0,0,3.63A2.035,2.035,0,0,0,83.795,31.146Zm8.032.978a3.237,3.237,0,0,1-2.406-.964,3.438,3.438,0,0,1-.95-2.522,3.445,3.445,0,0,1,.947-2.522,3.5,3.5,0,0,1,4.354-.376A2.967,2.967,0,0,1,94.9,27.372L93.8,27.55a2.045,2.045,0,0,0-.759-1.046,2.066,2.066,0,0,0-1.217-.369,1.987,1.987,0,0,0-1.555.69,2.983,2.983,0,0,0,0,3.62,1.991,1.991,0,0,0,1.555.687,2.066,2.066,0,0,0,1.217-.369,2.045,2.045,0,0,0,.759-1.046L94.9,29.9a2.97,2.97,0,0,1-1.138,1.63A3.255,3.255,0,0,1,91.827,32.123Zm6.371.007a2.287,2.287,0,0,1-1.473-.461,1.657,1.657,0,0,1-.578-1.377,1.957,1.957,0,0,1,.185-.878,1.549,1.549,0,0,1,.547-.612,3.281,3.281,0,0,1,.79-.379,7.3,7.3,0,0,1,1.022-.243L99.777,28q.595-.109.595-.622a1.174,1.174,0,0,0-.42-1,1.713,1.713,0,0,0-1.063-.318,1.745,1.745,0,0,0-1.053.308,1.287,1.287,0,0,0-.5.943l-1.066-.226a2.052,2.052,0,0,1,.841-1.439,3.141,3.141,0,0,1,1.832-.482,3.716,3.716,0,0,1,.974.12,2.647,2.647,0,0,1,.813.376,1.686,1.686,0,0,1,.581.725,2.7,2.7,0,0,1,.208,1.1v2.775a1.136,1.136,0,0,0,.154.7.664.664,0,0,0,.53.181h.109V32h-.588a1.121,1.121,0,0,1-1.271-.909H100.4A2.568,2.568,0,0,1,98.2,32.13Zm.273-.957a1.793,1.793,0,0,0,1.442-.649,2.674,2.674,0,0,0,.547-1.777l-1.777.342a2.392,2.392,0,0,0-1.042.373.867.867,0,0,0-.338.735.857.857,0,0,0,.325.738A1.388,1.388,0,0,0,98.472,31.173Zm7.636.957a3.186,3.186,0,0,1-1.812-.485,2.007,2.007,0,0,1-.882-1.381l1.032-.294a1.44,1.44,0,0,0,.55.933,1.785,1.785,0,0,0,1.1.332,2.2,2.2,0,0,0,.646-.089,1.036,1.036,0,0,0,.5-.332.925.925,0,0,0,.144-.889,1.187,1.187,0,0,0-.109-.222.677.677,0,0,0-.191-.185,2.524,2.524,0,0,0-.232-.144,2.386,2.386,0,0,0-.3-.126q-.2-.072-.325-.109t-.376-.109l-.39-.113a7.288,7.288,0,0,1-.7-.246,3.058,3.058,0,0,1-.567-.325,1.306,1.306,0,0,1-.441-.53,1.792,1.792,0,0,1-.147-.752,1.738,1.738,0,0,1,.328-1.073,1.846,1.846,0,0,1,.851-.632,3.4,3.4,0,0,1,1.193-.195,2.92,2.92,0,0,1,1.637.438,1.867,1.867,0,0,1,.817,1.313l-.971.246a1.287,1.287,0,0,0-.513-.851,1.632,1.632,0,0,0-.964-.284,1.664,1.664,0,0,0-.9.236.793.793,0,0,0-.376.721.718.718,0,0,0,.1.373,1.183,1.183,0,0,0,.2.263,1.24,1.24,0,0,0,.369.2q.267.106.4.144t.492.126q.068.021.1.027.4.1.646.181a3.97,3.97,0,0,1,.581.246,1.932,1.932,0,0,1,.523.366,1.694,1.694,0,0,1,.328.52,1.834,1.834,0,0,1,.137.725,1.957,1.957,0,0,1-.2.906,1.577,1.577,0,0,1-.55.619,2.661,2.661,0,0,1-.783.338A3.729,3.729,0,0,1,106.107,32.13Zm11.184-6.979a2.245,2.245,0,0,1,1.661.622,2.415,2.415,0,0,1,.622,1.784V32h-1.183V27.782a1.653,1.653,0,0,0-.41-1.237,1.461,1.461,0,0,0-1.06-.4,1.626,1.626,0,0,0-1.186.458,1.862,1.862,0,0,0-.475,1.374V32h-1.183V21.5h1.183v4.669a2.186,2.186,0,0,1,.844-.752A2.574,2.574,0,0,1,117.291,25.15Zm7.39,6.979a3.542,3.542,0,0,1-1.723-.417,3.036,3.036,0,0,1-1.213-1.22,3.748,3.748,0,0,1-.448-1.856,3.423,3.423,0,0,1,.954-2.533,3.578,3.578,0,0,1,4.864,0,3.43,3.43,0,0,1,.95,2.533,3.432,3.432,0,0,1-.954,2.54A3.292,3.292,0,0,1,124.681,32.13Zm-.007-.984a2.064,2.064,0,0,0,1.589-.69,2.921,2.921,0,0,0,0-3.63,2.064,2.064,0,0,0-1.589-.69,2.035,2.035,0,0,0-1.576.69,2.946,2.946,0,0,0,0,3.63A2.035,2.035,0,0,0,124.674,31.146Zm7.369.984a3.186,3.186,0,0,1-1.812-.485,2.007,2.007,0,0,1-.882-1.381l1.032-.294a1.44,1.44,0,0,0,.55.933,1.785,1.785,0,0,0,1.1.332,2.2,2.2,0,0,0,.646-.089,1.036,1.036,0,0,0,.5-.332.925.925,0,0,0,.144-.889,1.187,1.187,0,0,0-.109-.222.677.677,0,0,0-.191-.185,2.525,2.525,0,0,0-.232-.144,2.385,2.385,0,0,0-.3-.126q-.2-.072-.325-.109t-.376-.109l-.39-.113a7.29,7.29,0,0,1-.7-.246,3.058,3.058,0,0,1-.567-.325,1.306,1.306,0,0,1-.441-.53,1.793,1.793,0,0,1-.147-.752,1.738,1.738,0,0,1,.328-1.073,1.846,1.846,0,0,1,.851-.632,3.4,3.4,0,0,1,1.193-.195,2.92,2.92,0,0,1,1.637.438,1.867,1.867,0,0,1,.817,1.313l-.971.246a1.287,1.287,0,0,0-.513-.851,1.632,1.632,0,0,0-.964-.284,1.664,1.664,0,0,0-.9.236.793.793,0,0,0-.376.721.718.718,0,0,0,.1.373,1.183,1.183,0,0,0,.2.263,1.24,1.24,0,0,0,.369.2q.267.106.4.144t.492.126q.068.021.1.027.4.1.646.181a3.97,3.97,0,0,1,.581.246,1.932,1.932,0,0,1,.523.366,1.694,1.694,0,0,1,.328.52,1.834,1.834,0,0,1,.137.725,1.957,1.957,0,0,1-.2.906,1.577,1.577,0,0,1-.55.619,2.662,2.662,0,0,1-.783.338A3.729,3.729,0,0,1,132.043,32.13Zm7.882-6.979a3.056,3.056,0,0,1,1.217.246,2.993,2.993,0,0,1,1,.69,3.227,3.227,0,0,1,.673,1.107,4.084,4.084,0,0,1,.25,1.449,3.553,3.553,0,0,1-.906,2.536,2.942,2.942,0,0,1-2.232.964,2.66,2.66,0,0,1-1.4-.383,2.509,2.509,0,0,1-.96-1.032v4.655h-1.183V25.28h1.142l.027,1.306a2.46,2.46,0,0,1,.957-1.049A2.685,2.685,0,0,1,139.925,25.15Zm-.232,5.968a2.04,2.04,0,0,0,1.555-.68,2.857,2.857,0,0,0,0-3.585,2.121,2.121,0,0,0-3.134.031,2.742,2.742,0,0,0,0,3.527A2.05,2.05,0,0,0,139.692,31.118ZM145.53,23.7a.805.805,0,0,1-.8-.8.758.758,0,0,1,.236-.561.775.775,0,0,1,.564-.232.767.767,0,0,1,.557.232.758.758,0,0,1,.236.561.77.77,0,0,1-.236.564A.762.762,0,0,1,145.53,23.7Zm-.6,8.3V25.28h1.189V32Zm5.742,0a1.766,1.766,0,0,1-1.312-.482,1.823,1.823,0,0,1-.479-1.343V26.224h-1.374V25.28h.506a.971.971,0,0,0,.742-.236,1.161,1.161,0,0,0,.215-.79V23.038h1.1V25.28h1.545v.943h-1.545v3.828a1.019,1.019,0,0,0,.256.742.9.9,0,0,0,.673.263h.615V32Zm4.122.13a2.287,2.287,0,0,1-1.473-.461,1.657,1.657,0,0,1-.578-1.377,1.957,1.957,0,0,1,.185-.878,1.549,1.549,0,0,1,.547-.612,3.28,3.28,0,0,1,.79-.379,7.3,7.3,0,0,1,1.022-.243L156.372,28q.595-.109.595-.622a1.174,1.174,0,0,0-.42-1,1.713,1.713,0,0,0-1.063-.318,1.745,1.745,0,0,0-1.053.308,1.287,1.287,0,0,0-.5.943l-1.066-.226a2.052,2.052,0,0,1,.841-1.439,3.141,3.141,0,0,1,1.832-.482,3.716,3.716,0,0,1,.974.12,2.647,2.647,0,0,1,.813.376,1.686,1.686,0,0,1,.581.725,2.7,2.7,0,0,1,.208,1.1v2.775a1.136,1.136,0,0,0,.154.7.664.664,0,0,0,.53.181h.109V32h-.588a1.121,1.121,0,0,1-1.271-.909h-.055A2.568,2.568,0,0,1,154.793,32.13Zm.273-.957a1.793,1.793,0,0,0,1.442-.649,2.674,2.674,0,0,0,.547-1.777l-1.777.342a2.392,2.392,0,0,0-1.042.373.867.867,0,0,0-.338.735.857.857,0,0,0,.325.738A1.388,1.388,0,0,0,155.066,31.173Zm5.51.827V21.5h1.2V32Zm5.154.13a2.287,2.287,0,0,1-1.473-.461,1.657,1.657,0,0,1-.578-1.377,1.957,1.957,0,0,1,.185-.878,1.549,1.549,0,0,1,.547-.612,3.28,3.28,0,0,1,.79-.379,7.3,7.3,0,0,1,1.022-.243L167.31,28q.595-.109.595-.622a1.174,1.174,0,0,0-.42-1,1.713,1.713,0,0,0-1.063-.318,1.745,1.745,0,0,0-1.053.308,1.287,1.287,0,0,0-.5.943l-1.066-.226a2.052,2.052,0,0,1,.841-1.439,3.141,3.141,0,0,1,1.832-.482,3.716,3.716,0,0,1,.974.12,2.647,2.647,0,0,1,.813.376,1.686,1.686,0,0,1,.581.725,2.7,2.7,0,0,1,.208,1.1v2.775a1.136,1.136,0,0,0,.154.7.664.664,0,0,0,.53.181h.109V32h-.588a1.121,1.121,0,0,1-1.271-.909h-.055A2.568,2.568,0,0,1,165.73,32.13Zm.273-.957a1.793,1.793,0,0,0,1.442-.649,2.674,2.674,0,0,0,.547-1.777l-1.777.342a2.392,2.392,0,0,0-1.042.373.867.867,0,0,0-.338.735.857.857,0,0,0,.325.738A1.388,1.388,0,0,0,166,31.173Zm6.665-4.71a2.032,2.032,0,0,1,.834-.9,2.512,2.512,0,0,1,1.292-.355v1.114a2.214,2.214,0,0,0-1.562.5,2.084,2.084,0,0,0-.537,1.593V32h-1.183V25.28h1.155Zm4.115-2.762a.805.805,0,0,1-.8-.8.758.758,0,0,1,.236-.561.775.775,0,0,1,.564-.232.767.767,0,0,1,.557.232.758.758,0,0,1,.236.561.77.77,0,0,1-.236.564A.762.762,0,0,1,176.784,23.7Zm-.6,8.3V25.28h1.189V32Zm6.426.13a3.542,3.542,0,0,1-1.723-.417,3.036,3.036,0,0,1-1.213-1.22,3.748,3.748,0,0,1-.448-1.856,3.423,3.423,0,0,1,.954-2.533,3.578,3.578,0,0,1,4.864,0,3.43,3.43,0,0,1,.95,2.533,3.432,3.432,0,0,1-.954,2.54A3.292,3.292,0,0,1,182.608,32.13Zm-.007-.984a2.064,2.064,0,0,0,1.589-.69,2.921,2.921,0,0,0,0-3.63,2.064,2.064,0,0,0-1.589-.69,2.035,2.035,0,0,0-1.576.69,2.946,2.946,0,0,0,0,3.63A2.035,2.035,0,0,0,182.6,31.146Z" transform="translate(5253 -1494)" fill="#00223d"/>
    <rect id="Rectángulo_3304" data-name="Rectángulo 3304" width="194" height="49" rx="3" transform="translate(5261 -1438)" fill="#5799ab"/>
    <g id="Grupo_867" data-name="Grupo 867" transform="translate(5293.228 -1428.075)">
      <path id="Trazado_1157" data-name="Trazado 1157" d="M815.839,2604.383a1.743,1.743,0,0,0-1.738,1.738v24.327a1.744,1.744,0,0,0,1.738,1.738h17.376a1.743,1.743,0,0,0,1.738-1.738v-19.114L828,2604.383Z" transform="translate(-810.626 -2604.383)" fill="#f2f2f2"/>
      <path id="Trazado_1160" data-name="Trazado 1160" d="M826.79,2644.553a.869.869,0,0,1-.869.869H806.807a.869.869,0,0,1-.869-.869v-8.688a.869.869,0,0,1,.869-.869h19.114a.869.869,0,0,1,.869.869Z" transform="translate(-805.938 -2621.963)" fill="#f15642"/>
      <g id="Grupo_855" data-name="Grupo 855" transform="translate(3.787 15.982)">
        <path id="Trazado_1161" data-name="Trazado 1161" d="M814.834,2642.4a.478.478,0,0,1,.472-.479h1.6a1.738,1.738,0,0,1,0,3.476h-1.159v.917a.434.434,0,0,1-.387.477.411.411,0,0,1-.057,0,.467.467,0,0,1-.472-.464V2642.4Zm.917.4v1.731h1.16a.869.869,0,0,0,0-1.731Z" transform="translate(-814.834 -2641.924)" fill="#fff"/>
        <path id="Trazado_1162" data-name="Trazado 1162" d="M826.293,2646.868a.434.434,0,0,1-.477-.387c0-.016,0-.032,0-.048v-3.946a.472.472,0,0,1,.479-.434h1.591c3.175,0,3.105,4.807.063,4.807Zm.435-3.959v3.113h1.153c1.876,0,1.959-3.113,0-3.113Z" transform="translate(-821.14 -2641.998)" fill="#fff"/>
        <path id="Trazado_1163" data-name="Trazado 1163" d="M839.39,2642.97v1.1h1.771a.536.536,0,0,1,.5.492.484.484,0,0,1-.5.417H839.39v1.458a.411.411,0,0,1-.393.43h-.023a.441.441,0,0,1-.49-.387c0-.014,0-.028,0-.043V2642.5a.439.439,0,0,1,.44-.438.389.389,0,0,1,.053,0h2.439a.435.435,0,0,1,.484.379.475.475,0,0,1-.483.528H839.39Z" transform="translate(-828.414 -2642.002)" fill="#fff"/>
      </g>
      <path id="Trazado_1164" data-name="Trazado 1164" d="M830.609,2658.314H814.1v.869h16.508a.869.869,0,0,0,.869-.869v-.869A.869.869,0,0,1,830.609,2658.314Z" transform="translate(-810.626 -2634.855)" fill="#e6e6e6"/>
      <path id="Trazado_1158" data-name="Trazado 1158" d="M848.493,2611.334h5.213l-6.951-6.951v5.213A1.743,1.743,0,0,0,848.493,2611.334Z" transform="translate(-829.378 -2604.383)" fill="#b3b3b3"/>
    </g>
    <path id="Trazado_20061" data-name="Trazado 20061" d="M1.278,16.522V4.122H5.766a7,7,0,0,1,2.587.446,4.766,4.766,0,0,1,1.854,1.266,5.507,5.507,0,0,1,1.1,1.952,8.06,8.06,0,0,1,.373,2.532,8.09,8.09,0,0,1-.373,2.54,5.507,5.507,0,0,1-1.1,1.952,4.766,4.766,0,0,1-1.854,1.266,7,7,0,0,1-2.587.446Zm2.574-2.274H5.638A3.046,3.046,0,0,0,8.144,13.24a4.519,4.519,0,0,0,.824-2.922A4.519,4.519,0,0,0,8.144,7.4,3.046,3.046,0,0,0,5.638,6.388H3.853Zm18.21-2.266-.026.592H15.5a2.284,2.284,0,0,0,.7,1.613,2.25,2.25,0,0,0,1.553.558,2.169,2.169,0,0,0,1.163-.3,1.873,1.873,0,0,0,.742-.888l2.266.335a3.851,3.851,0,0,1-1.545,2.068,4.593,4.593,0,0,1-2.609.738,4.776,4.776,0,0,1-3.437-1.214,4.431,4.431,0,0,1-1.274-3.368,4.457,4.457,0,0,1,1.279-3.368,4.634,4.634,0,0,1,3.355-1.231,4.429,4.429,0,0,1,3.167,1.124A4.41,4.41,0,0,1,22.063,11.983Zm-4.351-2.72a1.953,1.953,0,0,0-2.145,1.7h4.051A1.858,1.858,0,0,0,19.008,9.7,1.931,1.931,0,0,0,17.712,9.262Zm9.337,7.432a4.93,4.93,0,0,1-2.574-.618,2.612,2.612,0,0,1-1.261-1.836l2.068-.584a1.662,1.662,0,0,0,1.768,1.313,1.826,1.826,0,0,0,.9-.2.7.7,0,0,0,.352-.682.722.722,0,0,0-.146-.455,1.156,1.156,0,0,0-.451-.326,5.613,5.613,0,0,0-.6-.232q-.3-.094-.785-.227t-.815-.253a5.461,5.461,0,0,1-.777-.33,3.313,3.313,0,0,1-.644-.455,1.833,1.833,0,0,1-.481-.691,2.492,2.492,0,0,1-.167-.944A2.254,2.254,0,0,1,24.393,8.2a4.275,4.275,0,0,1,2.5-.669A4.383,4.383,0,0,1,29.2,8.1a2.563,2.563,0,0,1,1.184,1.768l-1.914.429A1.5,1.5,0,0,0,26.9,9.177a1.72,1.72,0,0,0-.867.2.634.634,0,0,0-.343.584.669.669,0,0,0,.051.266.527.527,0,0,0,.18.215,2.628,2.628,0,0,0,.249.163,1.878,1.878,0,0,0,.352.142q.232.073.386.112l.451.116.459.12q.472.129.828.257a4.85,4.85,0,0,1,.759.36,2.726,2.726,0,0,1,.665.519,2.316,2.316,0,0,1,.433.729,2.694,2.694,0,0,1,.172.983,2.654,2.654,0,0,1-.3,1.279,2.222,2.222,0,0,1-.811.862,3.947,3.947,0,0,1-1.146.463A5.943,5.943,0,0,1,27.049,16.694Zm9.4-.009a4.713,4.713,0,0,1-3.407-1.27A4.387,4.387,0,0,1,31.717,12.1,4.377,4.377,0,0,1,33.034,8.79,5.237,5.237,0,0,1,39.3,8.379a3.793,3.793,0,0,1,1.476,2.394l-2.283.249a1.956,1.956,0,0,0-.738-1.159,2.244,2.244,0,0,0-1.339-.386,2.023,2.023,0,0,0-1.613.721,2.826,2.826,0,0,0-.618,1.905,2.83,2.83,0,0,0,.618,1.9,2.018,2.018,0,0,0,1.613.725,2.225,2.225,0,0,0,1.334-.386,2,2,0,0,0,.742-1.159l2.283.249a3.8,3.8,0,0,1-1.489,2.394A4.681,4.681,0,0,1,36.446,16.686Zm13.327-2.557a8.253,8.253,0,0,0,.215,2.154v.24H47.679l-.2-.961a2.868,2.868,0,0,1-1.236.85,4.554,4.554,0,0,1-1.6.283,4.2,4.2,0,0,1-.824-.077,2.8,2.8,0,0,1-.742-.262,2.253,2.253,0,0,1-.614-.459,2.013,2.013,0,0,1-.412-.7,2.786,2.786,0,0,1-.154-.957,2.653,2.653,0,0,1,.163-.957,2.243,2.243,0,0,1,.429-.717,2.6,2.6,0,0,1,.7-.523,5.319,5.319,0,0,1,.875-.378,10.459,10.459,0,0,1,1.047-.275l1.45-.326a1.6,1.6,0,0,0,.656-.279.556.556,0,0,0,.193-.442.91.91,0,0,0-.433-.85,2.024,2.024,0,0,0-1.051-.257A1.513,1.513,0,0,0,44.2,10.584l-2.188-.395a2.962,2.962,0,0,1,1.279-2.012,5.082,5.082,0,0,1,2.772-.648q3.707,0,3.707,3.184Zm-4.351.892a1.988,1.988,0,0,0,1.528-.639,2.694,2.694,0,0,0,.592-1.892l-2.094.592a2.475,2.475,0,0,0-.88.36.74.74,0,0,0-.3.635.822.822,0,0,0,.326.7A1.35,1.35,0,0,0,45.422,15.021ZM54.544,9.1A2.864,2.864,0,0,1,55.7,8.04,3.535,3.535,0,0,1,57.428,7.6V9.8a3.342,3.342,0,0,0-2.111.532,2.323,2.323,0,0,0-.652,1.888v4.3H52.176V7.7h2.369ZM64.9,7.7h2.351v8.161a6.6,6.6,0,0,1-.33,2.2,3.623,3.623,0,0,1-.957,1.506,3.988,3.988,0,0,1-1.467.845,6.187,6.187,0,0,1-1.922.275q-3.493,0-4.548-2.738l2.051-.875a2.993,2.993,0,0,0,.953,1.279,2.428,2.428,0,0,0,1.45.412q2.291,0,2.291-2.72v-1.03a2.779,2.779,0,0,1-1.111.871,3.7,3.7,0,0,1-1.566.33,3.951,3.951,0,0,1-2.832-1.189,4.075,4.075,0,0,1-.871-1.386,5.123,5.123,0,0,1,0-3.574A3.911,3.911,0,0,1,59.268,8.7a4.028,4.028,0,0,1,1.287-.858,3.973,3.973,0,0,1,1.558-.309,3.588,3.588,0,0,1,1.635.365,2.607,2.607,0,0,1,1.094.974Zm-3.789,5.835a2.264,2.264,0,0,0,3.24-.009,2.466,2.466,0,0,0,0-3.355,2.284,2.284,0,0,0-3.252-.013,2.347,2.347,0,0,0-.648,1.695A2.323,2.323,0,0,0,61.113,13.536Zm15.94.592a8.253,8.253,0,0,0,.215,2.154v.24H74.96l-.2-.961a2.868,2.868,0,0,1-1.236.85,4.554,4.554,0,0,1-1.6.283,4.2,4.2,0,0,1-.824-.077,2.8,2.8,0,0,1-.742-.262,2.253,2.253,0,0,1-.614-.459,2.013,2.013,0,0,1-.412-.7,2.786,2.786,0,0,1-.154-.957,2.654,2.654,0,0,1,.163-.957,2.243,2.243,0,0,1,.429-.717,2.6,2.6,0,0,1,.7-.523,5.319,5.319,0,0,1,.875-.378,10.459,10.459,0,0,1,1.047-.275l1.45-.326a1.6,1.6,0,0,0,.656-.279.556.556,0,0,0,.193-.442.91.91,0,0,0-.433-.85,2.024,2.024,0,0,0-1.051-.257,1.513,1.513,0,0,0-1.725,1.347L69.3,10.189a2.962,2.962,0,0,1,1.279-2.012,5.082,5.082,0,0,1,2.772-.648q3.707,0,3.707,3.184Zm-4.351.892a1.988,1.988,0,0,0,1.528-.639,2.694,2.694,0,0,0,.592-1.892l-2.094.592a2.475,2.475,0,0,0-.88.36.74.74,0,0,0-.3.635.822.822,0,0,0,.326.7A1.35,1.35,0,0,0,72.7,15.021ZM81.825,9.1a2.864,2.864,0,0,1,1.159-1.06A3.535,3.535,0,0,1,84.708,7.6V9.8a3.342,3.342,0,0,0-2.111.532,2.323,2.323,0,0,0-.652,1.888v4.3H79.457V7.7h2.369Z" transform="translate(5328.198 -1423.118)" fill="#fff"/>
  </g>
</svg>
