<svg xmlns="http://www.w3.org/2000/svg" width="265" height="414.95" viewBox="0 0 265 414.95">
  <g id="Grupo_13606" data-name="Grupo 13606" transform="translate(-4927 1803.95)">
    <rect id="Rectángulo_3320" data-name="Rectángulo 3320" width="265" height="281" rx="7" transform="translate(4927 -1692)" fill="#e8eef3"/>
    <circle id="Elipse_856" data-name="Elipse 856" cx="111.9" cy="111.9" r="111.9" transform="translate(4948 -1803.95)" fill="#ff9100"/>
    <circle id="Elipse_859" data-name="Elipse 859" cx="106.3" cy="106.3" r="106.3" transform="translate(4953 -1798.35)" fill="#fff"/>
    <line id="Línea_244" data-name="Línea 244" x2="218" transform="translate(4950.5 -1508.5)" fill="none" stroke="#707070" stroke-width="3" opacity="0.2"/>
    <g id="Grupo_13601" data-name="Grupo 13601" transform="translate(702.167 23.878)">
      <g id="Grupo_13263" data-name="Grupo 13263" transform="translate(4287.833 -1775.364)">
        <circle id="Elipse_513" data-name="Elipse 513" cx="62.673" cy="62.673" r="62.673" fill="#d1d3d4"/>
        <g id="Grupo_13262" data-name="Grupo 13262" transform="translate(23.907 1.536)">
          <g id="Grupo_13261" data-name="Grupo 13261">
            <g id="Grupo_13260" data-name="Grupo 13260">
              <g id="Grupo_13258" data-name="Grupo 13258" transform="translate(1.413 1.413)">
                <path id="Trazado_19642" data-name="Trazado 19642" d="M1104.9,4874.151l-.747-1.475a12.387,12.387,0,0,1-1.272-5.43V4826.16a12.136,12.136,0,0,1,.97-4.788l3.654-8.5a4.194,4.194,0,0,1,1.6-1.857,3.451,3.451,0,0,1,.747-.343,4.085,4.085,0,0,1,3.23.2,5.959,5.959,0,0,0,2.928.686c3.533,0,3.533-2.019,7.047-2.019,3.553,0,3.553,2.019,7.087,2.019a6.018,6.018,0,0,0,2.928-.686,4.063,4.063,0,0,1,5.572,2l3.653,8.5a12.134,12.134,0,0,1,.97,4.788v43.954l-2.019,4.038,1.394,4.161a12.1,12.1,0,0,1,.625,3.9v19.059a12.271,12.271,0,0,1-9.228,11.894,244.513,244.513,0,0,1-59.42,7.429c-9.429,0-12.114-2.443-12.114-8.076,0-.848.867-2.323,2.362-4.2C1073.261,4897.754,1101.326,4874.151,1104.9,4874.151Z" transform="translate(-1030.194 -4799.447)" fill="#93dff9"/>
                <path id="Trazado_19643" data-name="Trazado 19643" d="M1132.956,4770.953s2.524,3.977,2.362,7.289a4.2,4.2,0,0,0-1.6,1.858l-3.654,8.5a12.14,12.14,0,0,0-.97,4.788v39.793h-6.057a78.93,78.93,0,0,1-16.01-.282l-5.795-.988c-1.576-.365-2.423-.627-2.423-.627l-.747-1.475a12.328,12.328,0,0,1-1.272-5.43V4783.29a12.042,12.042,0,0,1,.99-4.765l3.634-8.5a4.081,4.081,0,0,1,2.342-2.22,4.01,4.01,0,0,1,3.23.221,5.981,5.981,0,0,0,2.928.666c3.534,0,3.534-2.019,7.047-2.019,3.553,0,3.553,2.019,7.086,2.019a5.8,5.8,0,0,0,2.928-.686,4.062,4.062,0,0,1,5.572,2Z" transform="translate(-1056.414 -4766.672)" fill="#93dff9"/>
                <path id="Trazado_19644" data-name="Trazado 19644" d="M999.272,5049.662l.747,1.475c-3.573,0-31.638,23.6-40.038,34.162-1.7,2.019-9.247,1.8-9.247,1.8-4.281.24-8.723.383-13.305.383-9.429,0-12.114-2.443-12.114-8.077s38.2-38.362,42.4-38.362c0,0,.848.262,2.423.627l5.795.988a78.965,78.965,0,0,0,16.01.282H998v1.293A12.39,12.39,0,0,0,999.272,5049.662Z" transform="translate(-925.314 -4976.431)" fill="#93dff9"/>
              </g>
              <g id="Grupo_13259" data-name="Grupo 13259">
                <path id="Trazado_19645" data-name="Trazado 19645" d="M1070.026,4917.416c-9.735,0-13.527-2.661-13.527-9.49,0-.8.3-2.107,2.669-5.08,4.616-5.8,14.4-14.777,22.021-21.238,4.331-3.674,8.49-6.989,11.709-9.333a41.948,41.948,0,0,1,5.423-3.513l-.017-.034a13.893,13.893,0,0,1-1.425-6.069v-41.087a13.521,13.521,0,0,1,1.084-5.342l3.655-8.5a5.621,5.621,0,0,1,2.142-2.5l.038-.023a4.756,4.756,0,0,1,1.017-.466,5.477,5.477,0,0,1,4.305.28,4.561,4.561,0,0,0,2.3.536,4.833,4.833,0,0,0,2.832-.825,7.559,7.559,0,0,1,4.215-1.194,7.646,7.646,0,0,1,4.254,1.2,4.863,4.863,0,0,0,2.833.821,4.575,4.575,0,0,0,2.288-.532,5.475,5.475,0,0,1,7.51,2.7l3.654,8.5a13.531,13.531,0,0,1,1.085,5.345v43.955a1.417,1.417,0,0,1-.149.632l-1.757,3.513,1.208,3.6a13.507,13.507,0,0,1,.7,4.345v19.059a13.688,13.688,0,0,1-10.289,13.262A247.663,247.663,0,0,1,1070.026,4917.416Zm30.323-46.439c-1.118.189-6.876,3.891-17.674,13.076-7.4,6.293-16.877,15-21.3,20.553-1.99,2.5-2.053,3.292-2.055,3.325,0,3.9.768,6.659,10.7,6.659a244.674,244.674,0,0,0,59.069-7.386,10.862,10.862,0,0,0,8.166-10.524v-19.059a10.7,10.7,0,0,0-.55-3.443l-1.4-4.166a1.412,1.412,0,0,1,.076-1.081l1.87-3.739v-43.622a10.714,10.714,0,0,0-.856-4.232l-3.652-8.5a2.572,2.572,0,0,0-1.506-1.422,2.607,2.607,0,0,0-2.117.119l-.021.01a7.376,7.376,0,0,1-3.558.834,7.615,7.615,0,0,1-4.232-1.193,4.892,4.892,0,0,0-2.855-.826,4.8,4.8,0,0,0-2.81.82,7.591,7.591,0,0,1-4.237,1.2,7.313,7.313,0,0,1-3.572-.841,2.67,2.67,0,0,0-2.108-.129l-.07.023a2.028,2.028,0,0,0-.421.2,2.786,2.786,0,0,0-1.038,1.225l-3.646,8.481a10.7,10.7,0,0,0-.855,4.229v41.087a11.039,11.039,0,0,0,1.128,4.81l.738,1.456a1.413,1.413,0,0,1-1.223,2.051Zm-.021,0h0Z" transform="translate(-1024.194 -4793.447)" fill="#303e58"/>
                <path id="Trazado_19646" data-name="Trazado 19646" d="M1375.232,5081.564a1.413,1.413,0,0,1-.255-2.8c1.249-.23,2.592-.488,3.946-.812a1.413,1.413,0,0,1,.658,2.748c-1.418.339-2.8.605-4.09.844A1.374,1.374,0,0,1,1375.232,5081.564Z" transform="translate(-1266.791 -5003.206)" fill="#303e58"/>
                <path id="Trazado_19647" data-name="Trazado 19647" d="M1282.151,5088.154a77.265,77.265,0,0,1-9.459-.57,1.413,1.413,0,0,1,.346-2.805,77.392,77.392,0,0,0,15.722.277,1.413,1.413,0,1,1,.231,2.816Q1285.543,5088.153,1282.151,5088.154Z" transform="translate(-1188.528 -5008.449)" fill="#303e58"/>
                <path id="Trazado_19648" data-name="Trazado 19648" d="M1240.389,5081.362a1.415,1.415,0,0,1-.32-.037c-1.607-.372-2.486-.643-2.522-.654a1.413,1.413,0,0,1,.835-2.7h0c.008,0,.83.254,2.325.6a1.413,1.413,0,0,1-.317,2.789Z" transform="translate(-1161.847 -5003.204)" fill="#303e58"/>
                <path id="Trazado_19649" data-name="Trazado 19649" d="M1349.426,5009.131a1.413,1.413,0,0,1-1.184-2.181c1.792-2.766,1.792-10.467,1.792-13.366a1.413,1.413,0,1,1,2.826,0c0,5.654-.267,11.846-2.246,14.9A1.412,1.412,0,0,1,1349.426,5009.131Z" transform="translate(-1247.062 -4937.656)" fill="#303e58"/>
                <path id="Trazado_19650" data-name="Trazado 19650" d="M1257.819,5029.967a1.4,1.4,0,0,1-.814-.259c-2.174-1.537-2.616-10.316-2.616-10.4a1.413,1.413,0,0,1,2.826,0c0,1.94.853,7.238,1.506,8.158a1.413,1.413,0,0,1-.9,2.5Zm.922-2.474h0Zm-.106-.093h0Z" transform="translate(-1175.483 -4957.322)" fill="#303e58"/>
                <path id="Trazado_19651" data-name="Trazado 19651" d="M1351.447,5120.946a1.413,1.413,0,0,1-1.413-1.413c0-3.319-.666-6.292-1.78-7.956A1.413,1.413,0,1,1,1350.6,5110c1.435,2.142,2.258,5.615,2.258,9.529A1.413,1.413,0,0,1,1351.447,5120.946Z" transform="translate(-1247.063 -5027.262)" fill="#303e58"/>
                <path id="Trazado_19652" data-name="Trazado 19652" d="M1216.532,5120.124a1.413,1.413,0,0,1-.858-2.537l7.471-5.694a1.413,1.413,0,0,1,1.713,2.248l-7.471,5.694A1.4,1.4,0,0,1,1216.532,5120.124Z" transform="translate(-1145.46 -5028.963)" fill="#303e58"/>
                <path id="Trazado_19653" data-name="Trazado 19653" d="M1116.474,5183.727a1.413,1.413,0,0,1-.911-2.494c5.547-4.671,14.506-12.843,14.6-12.925a1.413,1.413,0,1,1,1.9,2.087c-.09.082-9.09,8.291-14.68,13A1.405,1.405,0,0,1,1116.474,5183.727Z" transform="translate(-1068.965 -5072.033)" fill="#303e58"/>
                <path id="Trazado_19654" data-name="Trazado 19654" d="M932.841,4874.546c-9.734,0-13.527-2.661-13.527-9.49,0-1.185.73-3.317,6.42-9.341,3.446-3.647,8.306-8.269,13.683-13.012,5.107-4.5,10.243-8.743,14.46-11.933a52.41,52.41,0,0,1,7.257-4.882l-.015-.03a13.706,13.706,0,0,1-1.424-6.069V4778.7a13.5,13.5,0,0,1,1.106-5.327l3.631-8.494a5.508,5.508,0,0,1,3.158-2.993,5.4,5.4,0,0,1,4.364.295,4.581,4.581,0,0,0,2.277.507,4.842,4.842,0,0,0,2.832-.825,7.556,7.556,0,0,1,4.215-1.194,7.656,7.656,0,0,1,4.254,1.2,4.858,4.858,0,0,0,2.832.822,4.395,4.395,0,0,0,2.27-.524,5.474,5.474,0,0,1,7.527,2.69,1.413,1.413,0,0,1-2.595,1.12,2.618,2.618,0,0,0-1.528-1.433,2.67,2.67,0,0,0-2.1.132,7.148,7.148,0,0,1-3.57.84,7.616,7.616,0,0,1-4.232-1.193,4.891,4.891,0,0,0-2.855-.826,4.806,4.806,0,0,0-2.81.819,7.586,7.586,0,0,1-4.237,1.2,7.383,7.383,0,0,1-3.573-.822,2.605,2.605,0,0,0-2.107-.148,2.668,2.668,0,0,0-1.523,1.449l-3.632,8.5a10.668,10.668,0,0,0-.876,4.211v41.087a10.882,10.882,0,0,0,1.128,4.811l.738,1.456a1.411,1.411,0,0,1-1.223,2.05c-1.764.293-11.043,7.141-22.1,16.914-5.219,4.612-9.932,9.1-13.268,12.628-5.42,5.737-5.648,7.258-5.656,7.413,0,3.9.768,6.659,10.7,6.659,4.287,0,8.737-.128,13.226-.38a1.413,1.413,0,1,1,.159,2.821C941.684,4874.417,937.18,4874.546,932.841,4874.546Zm30.3-46.439h0Z" transform="translate(-919.314 -4760.672)" fill="#303e58"/>
                <path id="Trazado_19655" data-name="Trazado 19655" d="M1144.966,5045.283a77.466,77.466,0,0,1-9.459-.569,1.413,1.413,0,0,1,.345-2.805,77.365,77.365,0,0,0,15.723.276,1.413,1.413,0,0,1,.23,2.816Q1148.359,5045.283,1144.966,5045.283Z" transform="translate(-1083.649 -4975.673)" fill="#303e58"/>
                <path id="Trazado_19656" data-name="Trazado 19656" d="M1103.2,5038.492a1.442,1.442,0,0,1-.32-.036c-1.607-.372-2.486-.643-2.522-.654a1.413,1.413,0,0,1,.835-2.7h0c.008,0,.83.254,2.325.6a1.413,1.413,0,0,1-.318,2.79Z" transform="translate(-1056.967 -4970.429)" fill="#303e58"/>
                <path id="Trazado_19657" data-name="Trazado 19657" d="M1120.635,4987.1a1.41,1.41,0,0,1-.815-.259c-2.174-1.537-2.616-10.316-2.616-10.4a1.413,1.413,0,1,1,2.826,0c0,1.939.853,7.238,1.506,8.158a1.413,1.413,0,0,1-.9,2.5Zm.923-2.474h0Zm-.106-.093h0Z" transform="translate(-1070.604 -4924.545)" fill="#303e58"/>
                <path id="Trazado_19658" data-name="Trazado 19658" d="M1079.347,5077.254a1.413,1.413,0,0,1-.858-2.536l7.471-5.7a1.413,1.413,0,0,1,1.713,2.248l-7.471,5.694A1.406,1.406,0,0,1,1079.347,5077.254Z" transform="translate(-1040.581 -4996.189)" fill="#303e58"/>
                <path id="Trazado_19659" data-name="Trazado 19659" d="M979.289,5140.856a1.413,1.413,0,0,1-.911-2.494c5.547-4.67,14.506-12.843,14.6-12.924a1.413,1.413,0,1,1,1.9,2.087c-.09.083-9.091,8.292-14.681,13A1.412,1.412,0,0,1,979.289,5140.856Z" transform="translate(-964.085 -5039.259)" fill="#303e58"/>
              </g>
            </g>
          </g>
        </g>
      </g>
    </g>
    <path id="Trazado_20126" data-name="Trazado 20126" d="M43.661,6.62H38.827V9.5H43V11.8H38.827V17H36.173V4.3h7.488ZM45.911,17V4.3h2.637V17Zm11.54.176a7.089,7.089,0,0,1-2.588-.466,6.087,6.087,0,0,1-2.061-1.3,5.864,5.864,0,0,1-1.354-2.065,7.2,7.2,0,0,1-.492-2.7A6.879,6.879,0,0,1,51.8,7.2a5.744,5.744,0,0,1,2.316-2.281,6.935,6.935,0,0,1,3.335-.791,6.739,6.739,0,0,1,3.727,1.028,5.629,5.629,0,0,1,2.276,2.83l-2.461.9a3.479,3.479,0,0,0-1.362-1.714,3.891,3.891,0,0,0-2.18-.615,3.73,3.73,0,0,0-2.777,1.107,4.075,4.075,0,0,0-1.09,2.988,4.081,4.081,0,0,0,1.094,2.993,3.726,3.726,0,0,0,2.773,1.112,3.876,3.876,0,0,0,2.175-.62,3.5,3.5,0,0,0,1.367-1.718l2.461.9a5.652,5.652,0,0,1-2.276,2.834A6.718,6.718,0,0,1,57.451,17.176ZM73.623,4.3H76.26V17H73.623V11.779h-5.37V17H65.616V4.3h2.637V9.485h5.37ZM88.046,17l-.923-2.619H81.788L80.865,17h-2.7L82.843,4.3h3.226L90.744,17Zm-5.484-4.825H86.35L84.46,6.787ZM104.332,4.3V6.62h-3.015V17h-2.61V6.62H95.675V4.3ZM112.84.767l-2,2.347h-1.556l2.3-3.234Zm.853,5.854h-4.711V9.5h4.175V11.8h-4.175v2.874h4.711V17h-7.365V4.3h7.365Zm7.857,10.556a7.089,7.089,0,0,1-2.588-.466,6.087,6.087,0,0,1-2.061-1.3,5.864,5.864,0,0,1-1.354-2.065,7.2,7.2,0,0,1-.492-2.7A6.879,6.879,0,0,1,115.9,7.2a5.744,5.744,0,0,1,2.316-2.281,6.935,6.935,0,0,1,3.335-.791,6.739,6.739,0,0,1,3.727,1.028,5.629,5.629,0,0,1,2.276,2.83l-2.461.9a3.479,3.479,0,0,0-1.362-1.714,3.891,3.891,0,0,0-2.18-.615,3.73,3.73,0,0,0-2.777,1.107,4.075,4.075,0,0,0-1.09,2.988,4.081,4.081,0,0,0,1.094,2.993,3.726,3.726,0,0,0,2.773,1.112,3.876,3.876,0,0,0,2.175-.62,3.5,3.5,0,0,0,1.367-1.718l2.461.9a5.652,5.652,0,0,1-2.276,2.834A6.718,6.718,0,0,1,121.55,17.176ZM138.39,4.3h2.628V17h-3.05l-5.625-9.079V17h-2.628V4.3h3.015l5.66,9.026ZM144.3,17V4.3h2.637V17Zm11.54.176a7.089,7.089,0,0,1-2.588-.466,6.087,6.087,0,0,1-2.061-1.3,5.864,5.864,0,0,1-1.354-2.065,7.2,7.2,0,0,1-.492-2.7,6.879,6.879,0,0,1,.844-3.45,5.744,5.744,0,0,1,2.316-2.281,6.935,6.935,0,0,1,3.335-.791,6.739,6.739,0,0,1,3.727,1.028,5.629,5.629,0,0,1,2.276,2.83l-2.461.9a3.479,3.479,0,0,0-1.362-1.714,3.891,3.891,0,0,0-2.18-.615,3.73,3.73,0,0,0-2.777,1.107,4.075,4.075,0,0,0-1.09,2.988,4.081,4.081,0,0,0,1.094,2.993,3.726,3.726,0,0,0,2.773,1.112,3.876,3.876,0,0,0,2.175-.62,3.5,3.5,0,0,0,1.367-1.718l2.461.9a5.652,5.652,0,0,1-2.276,2.834A6.718,6.718,0,0,1,155.845,17.176ZM172.509,17l-.923-2.619h-5.335L165.328,17h-2.7l4.676-12.7h3.226L175.207,17Zm-5.484-4.825h3.788l-1.89-5.388ZM35.751,26.3a3.822,3.822,0,0,1,2.927,1.182A4.112,4.112,0,0,1,39.785,30.4a4.011,4.011,0,0,1-1.1,2.9,3.891,3.891,0,0,1-2.936,1.138H33.105V39H30.469V26.3Zm-.439,5.941a1.938,1.938,0,0,0,1.45-.5,2.166,2.166,0,0,0,0-2.733,1.92,1.92,0,0,0-1.446-.505H33.105v3.735Zm12.313,6.935a6.9,6.9,0,0,1-3.335-.8,5.766,5.766,0,0,1-2.316-2.29,7.465,7.465,0,0,1,0-6.9,5.744,5.744,0,0,1,2.316-2.281,7.418,7.418,0,0,1,6.667,0A5.752,5.752,0,0,1,53.268,29.2a7.465,7.465,0,0,1,0,6.9,5.766,5.766,0,0,1-2.316,2.29A6.885,6.885,0,0,1,47.625,39.176Zm-2.777-3.529a4.025,4.025,0,0,0,5.555,0,4.1,4.1,0,0,0,1.09-3,4.075,4.075,0,0,0-1.09-2.988,4.036,4.036,0,0,0-5.555,0,4.075,4.075,0,0,0-1.09,2.988A4.1,4.1,0,0,0,44.848,35.647Zm14.326,1.024h3.981V39H56.537V26.3h2.637ZM74.01,39l-.923-2.619H67.752L66.829,39h-2.7l4.676-12.7h3.226L76.708,39Zm-5.484-4.825h3.788l-1.89-5.388ZM78.615,39V26.3h2.637V39Zm14.59-12.7h2.628V39h-3.05l-5.625-9.079V39H84.53V26.3h3.015l5.66,9.026ZM107.619,39l-.923-2.619h-5.335L100.438,39h-2.7l4.676-12.7h3.226L110.317,39Zm-5.484-4.825h3.788l-1.89-5.388Zm14.309,5a6.136,6.136,0,0,1-3.524-.971,3.9,3.9,0,0,1-1.714-2.72l2.725-.624a2.314,2.314,0,0,0,.839,1.6,2.785,2.785,0,0,0,1.78.558,2.3,2.3,0,0,0,1.389-.391,1.319,1.319,0,0,0,.527-1.156,1.233,1.233,0,0,0-.448-.94,2.929,2.929,0,0,0-.892-.576q-.444-.171-1.428-.47-.132-.044-.193-.062-.5-.158-.809-.264t-.76-.294a5.063,5.063,0,0,1-.738-.369,5.405,5.405,0,0,1-.611-.457,2.394,2.394,0,0,1-.51-.584,3.1,3.1,0,0,1-.308-.729,3.219,3.219,0,0,1-.123-.905,3.4,3.4,0,0,1,.593-2,3.633,3.633,0,0,1,1.6-1.274,5.822,5.822,0,0,1,2.29-.426,7.233,7.233,0,0,1,1.657.185,5.8,5.8,0,0,1,1.481.567,3.628,3.628,0,0,1,1.182,1.046,3.933,3.933,0,0,1,.672,1.542l-2.549.633a2.065,2.065,0,0,0-2.285-1.819,2.5,2.5,0,0,0-1.415.369,1.251,1.251,0,0,0-.554,1.116q0,.694.923,1.125a13.752,13.752,0,0,0,1.767.606q.519.158.844.264t.817.308a5.68,5.68,0,0,1,.8.391,5.918,5.918,0,0,1,.668.488,2.627,2.627,0,0,1,.567.633,3.422,3.422,0,0,1,.347.787,3.288,3.288,0,0,1,.141.98,3.85,3.85,0,0,1-.255,1.433,3.118,3.118,0,0,1-.7,1.081,4.058,4.058,0,0,1-1.05.743,5.1,5.1,0,0,1-1.292.439A7.431,7.431,0,0,1,116.443,39.176ZM136.8,39l-.923-2.619h-5.335L129.618,39h-2.7L131.6,26.3h3.226L139.5,39Zm-5.484-4.825H135.1l-1.89-5.388Zm12.727,2.5h3.981V39H141.4V26.3h2.637ZM157.4,26.3v2.32h-3.015V39h-2.61V28.62h-3.032V26.3ZM166.813,39l-.923-2.619h-5.335L159.633,39h-2.7l4.676-12.7h3.226L169.512,39Zm-5.484-4.825h3.788l-1.89-5.388Zm14.309,5a6.136,6.136,0,0,1-3.524-.971,3.9,3.9,0,0,1-1.714-2.72l2.725-.624a2.314,2.314,0,0,0,.839,1.6,2.785,2.785,0,0,0,1.78.558,2.3,2.3,0,0,0,1.389-.391,1.319,1.319,0,0,0,.527-1.156,1.233,1.233,0,0,0-.448-.94,2.929,2.929,0,0,0-.892-.576q-.444-.171-1.428-.47-.132-.044-.193-.062-.5-.158-.809-.264t-.76-.294a5.063,5.063,0,0,1-.738-.369,5.405,5.405,0,0,1-.611-.457,2.394,2.394,0,0,1-.51-.584,3.1,3.1,0,0,1-.308-.729,3.219,3.219,0,0,1-.123-.905,3.4,3.4,0,0,1,.593-2,3.633,3.633,0,0,1,1.6-1.274,5.822,5.822,0,0,1,2.29-.426,7.233,7.233,0,0,1,1.657.185,5.8,5.8,0,0,1,1.481.567,3.628,3.628,0,0,1,1.182,1.046,3.933,3.933,0,0,1,.672,1.542l-2.549.633a2.065,2.065,0,0,0-2.285-1.819,2.5,2.5,0,0,0-1.415.369,1.251,1.251,0,0,0-.554,1.116q0,.694.923,1.125a13.752,13.752,0,0,0,1.767.606q.519.158.844.264t.817.308a5.68,5.68,0,0,1,.8.391,5.918,5.918,0,0,1,.668.488,2.627,2.627,0,0,1,.567.633,3.422,3.422,0,0,1,.347.787,3.288,3.288,0,0,1,.141.98,3.85,3.85,0,0,1-.255,1.433,3.118,3.118,0,0,1-.7,1.081,4.058,4.058,0,0,1-1.05.743,5.1,5.1,0,0,1-1.292.439A7.431,7.431,0,0,1,175.638,39.176Z" transform="translate(4955 -1564)" fill="#002b45"/>
    <path id="Trazado_20129" data-name="Trazado 20129" d="M8.029,5.489H4.078V8.634H7.523V9.741H4.078V14H2.827V4.375h5.2Zm2.358.212a.805.805,0,0,1-.8-.8.758.758,0,0,1,.236-.561.775.775,0,0,1,.564-.232.767.767,0,0,1,.557.232.758.758,0,0,1,.236.561.77.77,0,0,1-.236.564A.762.762,0,0,1,10.387,5.7Zm-.6,8.3V7.28h1.189V14Zm6.385.123a3.237,3.237,0,0,1-2.406-.964,3.438,3.438,0,0,1-.95-2.522,3.445,3.445,0,0,1,.947-2.522,3.234,3.234,0,0,1,2.41-.964,3.26,3.26,0,0,1,1.945.588,2.967,2.967,0,0,1,1.131,1.634l-1.107.178A2.045,2.045,0,0,0,17.38,8.5a2.066,2.066,0,0,0-1.217-.369,1.987,1.987,0,0,0-1.555.69A2.63,2.63,0,0,0,14,10.637a2.617,2.617,0,0,0,.612,1.808,1.991,1.991,0,0,0,1.555.687,2.066,2.066,0,0,0,1.217-.369,2.045,2.045,0,0,0,.759-1.046l1.107.185a2.97,2.97,0,0,1-1.138,1.63A3.255,3.255,0,0,1,16.17,14.123ZM24.2,7.15a2.245,2.245,0,0,1,1.661.622,2.415,2.415,0,0,1,.622,1.784V14H25.3V9.782a1.653,1.653,0,0,0-.41-1.237,1.461,1.461,0,0,0-1.06-.4,1.626,1.626,0,0,0-1.186.458,1.862,1.862,0,0,0-.475,1.374V14H20.99V3.5h1.183V8.169a2.186,2.186,0,0,1,.844-.752A2.574,2.574,0,0,1,24.2,7.15Zm6.111,6.979a2.287,2.287,0,0,1-1.473-.461,1.657,1.657,0,0,1-.578-1.377,1.957,1.957,0,0,1,.185-.878,1.549,1.549,0,0,1,.547-.612,3.281,3.281,0,0,1,.79-.379,7.3,7.3,0,0,1,1.022-.243L31.893,10q.595-.109.595-.622a1.174,1.174,0,0,0-.42-1A1.713,1.713,0,0,0,31,8.06a1.745,1.745,0,0,0-1.053.308,1.287,1.287,0,0,0-.5.943l-1.066-.226a2.052,2.052,0,0,1,.841-1.439,3.141,3.141,0,0,1,1.832-.482,3.716,3.716,0,0,1,.974.12,2.647,2.647,0,0,1,.813.376,1.686,1.686,0,0,1,.581.725,2.7,2.7,0,0,1,.208,1.1v2.775a1.136,1.136,0,0,0,.154.7.664.664,0,0,0,.53.181h.109V14h-.588a1.121,1.121,0,0,1-1.271-.909h-.055A2.568,2.568,0,0,1,30.314,14.13Zm.273-.957a1.793,1.793,0,0,0,1.442-.649,2.674,2.674,0,0,0,.547-1.777l-1.777.342a2.392,2.392,0,0,0-1.042.373.867.867,0,0,0-.338.735.857.857,0,0,0,.325.738A1.388,1.388,0,0,0,30.587,13.173ZM41.88,14a1.766,1.766,0,0,1-1.312-.482,1.823,1.823,0,0,1-.479-1.343V8.224H38.715V7.28h.506a.971.971,0,0,0,.742-.236,1.161,1.161,0,0,0,.215-.79V5.038h1.1V7.28h1.545v.943H41.279v3.828a1.019,1.019,0,0,0,.256.742.9.9,0,0,0,.673.263h.615V14Zm7.273-9.673L47.623,6.1h-.813l1.716-2.229Zm1.176,6.18-.014.321h-5.25a2.375,2.375,0,0,0,.643,1.719,2.11,2.11,0,0,0,1.531.6,2.015,2.015,0,0,0,1.114-.321,2.085,2.085,0,0,0,.766-.889l1.066.226A3.031,3.031,0,0,1,49.038,13.6a3.133,3.133,0,0,1-1.784.526,3.246,3.246,0,0,1-2.42-.937,3.484,3.484,0,0,1-.923-2.557,3.467,3.467,0,0,1,.926-2.55,3.206,3.206,0,0,1,2.382-.937,3.034,3.034,0,0,1,2.259.861A3.4,3.4,0,0,1,50.33,10.507ZM47.219,8.06a2.1,2.1,0,0,0-1.4.475,2.177,2.177,0,0,0-.708,1.384H49.14a2,2,0,0,0-.588-1.384A1.9,1.9,0,0,0,47.219,8.06Zm7.752,6.063a3.237,3.237,0,0,1-2.406-.964,3.438,3.438,0,0,1-.95-2.522,3.445,3.445,0,0,1,.947-2.522,3.5,3.5,0,0,1,4.354-.376,2.967,2.967,0,0,1,1.131,1.634L56.94,9.55A2.045,2.045,0,0,0,56.181,8.5a2.066,2.066,0,0,0-1.217-.369,1.987,1.987,0,0,0-1.555.69,2.63,2.63,0,0,0-.612,1.812,2.617,2.617,0,0,0,.612,1.808,1.991,1.991,0,0,0,1.555.687,2.066,2.066,0,0,0,1.217-.369,2.045,2.045,0,0,0,.759-1.046l1.107.185a2.97,2.97,0,0,1-1.138,1.63A3.255,3.255,0,0,1,54.971,14.123ZM62.962,7.15a2.337,2.337,0,0,1,1.692.608,2.269,2.269,0,0,1,.632,1.716V14H64.1V9.741a1.589,1.589,0,0,0-.41-1.2,1.466,1.466,0,0,0-1.053-.39,1.626,1.626,0,0,0-1.2.461,1.872,1.872,0,0,0-.472,1.371V14H59.791V7.28h1.183v.861A2.244,2.244,0,0,1,62.962,7.15ZM68.171,5.7a.805.805,0,0,1-.8-.8.758.758,0,0,1,.236-.561.775.775,0,0,1,.564-.232.767.767,0,0,1,.557.232.758.758,0,0,1,.236.561.77.77,0,0,1-.236.564A.762.762,0,0,1,68.171,5.7Zm-.6,8.3V7.28h1.189V14Zm6.385.123a3.237,3.237,0,0,1-2.406-.964,3.438,3.438,0,0,1-.95-2.522,3.445,3.445,0,0,1,.947-2.522A3.5,3.5,0,0,1,75.9,7.738a2.967,2.967,0,0,1,1.131,1.634l-1.107.178A2.045,2.045,0,0,0,75.165,8.5a2.066,2.066,0,0,0-1.217-.369,1.987,1.987,0,0,0-1.555.69,2.63,2.63,0,0,0-.612,1.812,2.617,2.617,0,0,0,.612,1.808,1.991,1.991,0,0,0,1.555.687,2.066,2.066,0,0,0,1.217-.369,2.045,2.045,0,0,0,.759-1.046l1.107.185a2.97,2.97,0,0,1-1.138,1.63A3.255,3.255,0,0,1,73.955,14.123Zm6.371.007a2.287,2.287,0,0,1-1.473-.461,1.657,1.657,0,0,1-.578-1.377,1.957,1.957,0,0,1,.185-.878,1.549,1.549,0,0,1,.547-.612,3.281,3.281,0,0,1,.79-.379,7.3,7.3,0,0,1,1.022-.243L81.9,10q.595-.109.595-.622a1.174,1.174,0,0,0-.42-1,1.713,1.713,0,0,0-1.063-.318,1.745,1.745,0,0,0-1.053.308,1.287,1.287,0,0,0-.5.943L78.4,9.085a2.052,2.052,0,0,1,.841-1.439,3.141,3.141,0,0,1,1.832-.482,3.716,3.716,0,0,1,.974.12,2.647,2.647,0,0,1,.813.376,1.686,1.686,0,0,1,.581.725,2.7,2.7,0,0,1,.208,1.1v2.775a1.136,1.136,0,0,0,.154.7.664.664,0,0,0,.53.181h.109V14h-.588a1.121,1.121,0,0,1-1.271-.909h-.055A2.568,2.568,0,0,1,80.326,14.13Zm.273-.957a1.793,1.793,0,0,0,1.442-.649,2.674,2.674,0,0,0,.547-1.777l-1.777.342a2.392,2.392,0,0,0-1.042.373.867.867,0,0,0-.338.735.857.857,0,0,0,.325.738A1.388,1.388,0,0,0,80.6,13.173ZM93.293,7.15A3.056,3.056,0,0,1,94.51,7.4a2.993,2.993,0,0,1,1,.69,3.227,3.227,0,0,1,.673,1.107,4.083,4.083,0,0,1,.25,1.449,3.553,3.553,0,0,1-.906,2.536,2.942,2.942,0,0,1-2.232.964,2.66,2.66,0,0,1-1.4-.383,2.509,2.509,0,0,1-.96-1.032v4.655H89.746V7.28h1.142l.027,1.306a2.46,2.46,0,0,1,.957-1.049A2.685,2.685,0,0,1,93.293,7.15Zm-.232,5.968a2.04,2.04,0,0,0,1.555-.68,2.53,2.53,0,0,0,.632-1.794,2.518,2.518,0,0,0-.632-1.791,2.121,2.121,0,0,0-3.134.031,2.52,2.52,0,0,0-.643,1.76,2.53,2.53,0,0,0,.643,1.767A2.05,2.05,0,0,0,93.061,13.118Zm6.788,1.012a2.287,2.287,0,0,1-1.473-.461,1.657,1.657,0,0,1-.578-1.377,1.957,1.957,0,0,1,.185-.878,1.549,1.549,0,0,1,.547-.612,3.281,3.281,0,0,1,.79-.379,7.3,7.3,0,0,1,1.022-.243L101.428,10q.595-.109.595-.622a1.174,1.174,0,0,0-.42-1,1.713,1.713,0,0,0-1.063-.318,1.745,1.745,0,0,0-1.053.308,1.287,1.287,0,0,0-.5.943l-1.066-.226a2.052,2.052,0,0,1,.841-1.439,3.141,3.141,0,0,1,1.832-.482,3.716,3.716,0,0,1,.974.12,2.647,2.647,0,0,1,.813.376,1.686,1.686,0,0,1,.581.725,2.7,2.7,0,0,1,.208,1.1v2.775a1.136,1.136,0,0,0,.154.7.664.664,0,0,0,.53.181h.109V14h-.588a1.121,1.121,0,0,1-1.271-.909h-.055A2.568,2.568,0,0,1,99.849,14.13Zm.273-.957a1.793,1.793,0,0,0,1.442-.649,2.674,2.674,0,0,0,.547-1.777l-1.777.342a2.392,2.392,0,0,0-1.042.373.867.867,0,0,0-.338.735.857.857,0,0,0,.325.738A1.388,1.388,0,0,0,100.123,13.173Zm6.665-4.71a2.032,2.032,0,0,1,.834-.9,2.512,2.512,0,0,1,1.292-.355V8.319a2.214,2.214,0,0,0-1.562.5,2.084,2.084,0,0,0-.537,1.593V14h-1.183V7.28h1.155Zm4.983,5.667a2.287,2.287,0,0,1-1.473-.461,1.657,1.657,0,0,1-.578-1.377,1.957,1.957,0,0,1,.185-.878,1.549,1.549,0,0,1,.547-.612,3.281,3.281,0,0,1,.79-.379,7.3,7.3,0,0,1,1.022-.243L113.35,10q.595-.109.595-.622a1.174,1.174,0,0,0-.42-1,1.713,1.713,0,0,0-1.063-.318,1.745,1.745,0,0,0-1.053.308,1.287,1.287,0,0,0-.5.943l-1.066-.226a2.052,2.052,0,0,1,.841-1.439,3.141,3.141,0,0,1,1.832-.482,3.716,3.716,0,0,1,.974.12,2.647,2.647,0,0,1,.813.376,1.686,1.686,0,0,1,.581.725,2.7,2.7,0,0,1,.208,1.1v2.775a1.136,1.136,0,0,0,.154.7.664.664,0,0,0,.53.181h.109V14H115.3a1.121,1.121,0,0,1-1.271-.909h-.055A2.568,2.568,0,0,1,111.771,14.13Zm.273-.957a1.793,1.793,0,0,0,1.442-.649,2.674,2.674,0,0,0,.547-1.777l-1.777.342a2.392,2.392,0,0,0-1.042.373.867.867,0,0,0-.338.735.857.857,0,0,0,.325.738A1.388,1.388,0,0,0,112.044,13.173Zm9.146.827V3.5h1.2V14Zm5.154.13a2.287,2.287,0,0,1-1.473-.461,1.657,1.657,0,0,1-.578-1.377,1.957,1.957,0,0,1,.185-.878,1.549,1.549,0,0,1,.547-.612,3.281,3.281,0,0,1,.79-.379,7.3,7.3,0,0,1,1.022-.243L127.924,10q.595-.109.595-.622a1.174,1.174,0,0,0-.42-1,1.713,1.713,0,0,0-1.063-.318,1.745,1.745,0,0,0-1.053.308,1.287,1.287,0,0,0-.5.943l-1.066-.226a2.052,2.052,0,0,1,.841-1.439,3.141,3.141,0,0,1,1.832-.482,3.716,3.716,0,0,1,.974.12,2.647,2.647,0,0,1,.813.376,1.686,1.686,0,0,1,.581.725,2.7,2.7,0,0,1,.208,1.1v2.775a1.136,1.136,0,0,0,.154.7.664.664,0,0,0,.53.181h.109V14h-.588a1.121,1.121,0,0,1-1.271-.909h-.055A2.568,2.568,0,0,1,126.345,14.13Zm.273-.957a1.793,1.793,0,0,0,1.442-.649,2.674,2.674,0,0,0,.547-1.777l-1.777.342a2.392,2.392,0,0,0-1.042.373.867.867,0,0,0-.338.735.857.857,0,0,0,.325.738A1.388,1.388,0,0,0,126.619,13.173Zm15.025-2.666-.014.321h-5.25a2.375,2.375,0,0,0,.643,1.719,2.11,2.11,0,0,0,1.531.6,2.015,2.015,0,0,0,1.114-.321,2.085,2.085,0,0,0,.766-.889l1.066.226a3.031,3.031,0,0,1-1.148,1.442,3.133,3.133,0,0,1-1.784.526,3.246,3.246,0,0,1-2.42-.937,3.484,3.484,0,0,1-.923-2.557,3.467,3.467,0,0,1,.926-2.55,3.206,3.206,0,0,1,2.382-.937,3.034,3.034,0,0,1,2.259.861A3.4,3.4,0,0,1,141.644,10.507Zm-3.11-2.447a2.1,2.1,0,0,0-1.4.475,2.177,2.177,0,0,0-.708,1.384h4.026a2,2,0,0,0-.588-1.384A1.9,1.9,0,0,0,138.534,8.06ZM143.5,14V3.5h1.2V14Zm5.154.13a2.287,2.287,0,0,1-1.473-.461,1.657,1.657,0,0,1-.578-1.377,1.957,1.957,0,0,1,.185-.878,1.549,1.549,0,0,1,.547-.612,3.28,3.28,0,0,1,.79-.379,7.3,7.3,0,0,1,1.022-.243L150.23,10q.595-.109.595-.622a1.174,1.174,0,0,0-.42-1,1.713,1.713,0,0,0-1.063-.318,1.745,1.745,0,0,0-1.053.308,1.287,1.287,0,0,0-.5.943l-1.066-.226a2.052,2.052,0,0,1,.841-1.439,3.141,3.141,0,0,1,1.832-.482,3.716,3.716,0,0,1,.974.12,2.647,2.647,0,0,1,.813.376,1.686,1.686,0,0,1,.581.725,2.7,2.7,0,0,1,.208,1.1v2.775a1.136,1.136,0,0,0,.154.7.664.664,0,0,0,.53.181h.109V14h-.588a1.121,1.121,0,0,1-1.271-.909h-.055A2.568,2.568,0,0,1,148.651,14.13Zm.273-.957a1.793,1.793,0,0,0,1.442-.649,2.674,2.674,0,0,0,.547-1.777l-1.777.342a2.392,2.392,0,0,0-1.042.373.867.867,0,0,0-.338.735.857.857,0,0,0,.325.738A1.388,1.388,0,0,0,148.924,13.173ZM158,7.15a2.928,2.928,0,0,1,2.222.971,3.541,3.541,0,0,1,.909,2.522,3.567,3.567,0,0,1-.9,2.529,2.922,2.922,0,0,1-2.229.971,2.7,2.7,0,0,1-1.432-.39,2.466,2.466,0,0,1-.96-1.06L155.576,14h-1.142V3.5h1.176l.007,5.065a2.477,2.477,0,0,1,.96-1.036A2.7,2.7,0,0,1,158,7.15Zm-.26,5.968a2.057,2.057,0,0,0,1.572-.687,2.528,2.528,0,0,0,.636-1.788,2.528,2.528,0,0,0-.636-1.788,2.057,2.057,0,0,0-1.572-.687,2.011,2.011,0,0,0-1.559.711,2.549,2.549,0,0,0-.636,1.764,2.554,2.554,0,0,0,.632,1.767A2.012,2.012,0,0,0,157.736,13.118Zm8.08,1.012a3.542,3.542,0,0,1-1.723-.417,3.036,3.036,0,0,1-1.213-1.22,3.748,3.748,0,0,1-.448-1.856,3.423,3.423,0,0,1,.954-2.533,3.578,3.578,0,0,1,4.864,0,3.43,3.43,0,0,1,.95,2.533,3.432,3.432,0,0,1-.954,2.54A3.292,3.292,0,0,1,165.816,14.13Zm-.007-.984a2.064,2.064,0,0,0,1.589-.69,2.587,2.587,0,0,0,.632-1.818,2.577,2.577,0,0,0-.632-1.812,2.064,2.064,0,0,0-1.589-.69,2.035,2.035,0,0,0-1.576.69,2.594,2.594,0,0,0-.625,1.812,2.6,2.6,0,0,0,.625,1.818A2.035,2.035,0,0,0,165.809,13.146Zm6.4-4.683a2.032,2.032,0,0,1,.834-.9,2.512,2.512,0,0,1,1.292-.355V8.319a2.214,2.214,0,0,0-1.562.5,2.084,2.084,0,0,0-.537,1.593V14h-1.183V7.28h1.155Zm4.983,5.667a2.287,2.287,0,0,1-1.473-.461,1.657,1.657,0,0,1-.578-1.377,1.957,1.957,0,0,1,.185-.878,1.549,1.549,0,0,1,.547-.612,3.28,3.28,0,0,1,.79-.379,7.3,7.3,0,0,1,1.022-.243L178.77,10q.595-.109.595-.622a1.174,1.174,0,0,0-.42-1,1.713,1.713,0,0,0-1.063-.318,1.745,1.745,0,0,0-1.053.308,1.287,1.287,0,0,0-.5.943l-1.066-.226a2.052,2.052,0,0,1,.841-1.439,3.141,3.141,0,0,1,1.832-.482,3.716,3.716,0,0,1,.974.12,2.647,2.647,0,0,1,.813.376,1.686,1.686,0,0,1,.581.725,2.7,2.7,0,0,1,.208,1.1v2.775a1.136,1.136,0,0,0,.154.7.664.664,0,0,0,.53.181h.109V14h-.588a1.121,1.121,0,0,1-1.271-.909h-.055A2.568,2.568,0,0,1,177.191,14.13Zm.273-.957a1.793,1.793,0,0,0,1.442-.649,2.674,2.674,0,0,0,.547-1.777l-1.777.342a2.392,2.392,0,0,0-1.042.373.867.867,0,0,0-.338.735.857.857,0,0,0,.325.738A1.388,1.388,0,0,0,177.464,13.173Zm8.162.95a3.237,3.237,0,0,1-2.406-.964,3.438,3.438,0,0,1-.95-2.522,3.445,3.445,0,0,1,.947-2.522,3.5,3.5,0,0,1,4.354-.376A2.967,2.967,0,0,1,188.7,9.372L187.6,9.55a2.045,2.045,0,0,0-.759-1.046,2.066,2.066,0,0,0-1.217-.369,1.987,1.987,0,0,0-1.555.69,2.63,2.63,0,0,0-.612,1.812,2.617,2.617,0,0,0,.612,1.808,1.991,1.991,0,0,0,1.555.687,2.066,2.066,0,0,0,1.217-.369,2.045,2.045,0,0,0,.759-1.046l1.107.185a2.97,2.97,0,0,1-1.138,1.63A3.255,3.255,0,0,1,185.626,14.123ZM191.047,5.7a.805.805,0,0,1-.8-.8.758.758,0,0,1,.236-.561.775.775,0,0,1,.564-.232.767.767,0,0,1,.557.232.758.758,0,0,1,.236.561.77.77,0,0,1-.236.564A.762.762,0,0,1,191.047,5.7Zm-.6,8.3V7.28h1.189V14Zm5.975-7.875L198.136,3.9l.629.458-1.531,1.771Zm.451,8a3.542,3.542,0,0,1-1.723-.417,3.036,3.036,0,0,1-1.213-1.22,3.748,3.748,0,0,1-.448-1.856,3.423,3.423,0,0,1,.954-2.533,3.578,3.578,0,0,1,4.864,0,3.43,3.43,0,0,1,.95,2.533,3.432,3.432,0,0,1-.954,2.54A3.292,3.292,0,0,1,196.872,14.13Zm-.007-.984a2.064,2.064,0,0,0,1.589-.69,2.587,2.587,0,0,0,.632-1.818,2.577,2.577,0,0,0-.632-1.812,2.064,2.064,0,0,0-1.589-.69,2.035,2.035,0,0,0-1.576.69,2.594,2.594,0,0,0-.625,1.812,2.6,2.6,0,0,0,.625,1.818A2.035,2.035,0,0,0,196.865,13.146Zm8.415-6a2.338,2.338,0,0,1,1.692.608,2.269,2.269,0,0,1,.632,1.716V14h-1.183V9.741a1.589,1.589,0,0,0-.41-1.2,1.466,1.466,0,0,0-1.053-.39,1.626,1.626,0,0,0-1.2.461,1.872,1.872,0,0,0-.472,1.371V14h-1.183V7.28h1.183v.861A2.244,2.244,0,0,1,205.28,7.15ZM16.734,21.5h1.183V32H16.775l-.027-1.306a2.473,2.473,0,0,1-.957,1.06,2.667,2.667,0,0,1-1.422.39,3.054,3.054,0,0,1-2.218-.947,3.236,3.236,0,0,1-.677-1.111,4.064,4.064,0,0,1-.25-1.442,3.533,3.533,0,0,1,.913-2.522,2.946,2.946,0,0,1,2.232-.971,2.678,2.678,0,0,1,1.4.379,2.487,2.487,0,0,1,.96,1.029Zm-2.119,9.618a2.012,2.012,0,0,0,1.562-.708,2.775,2.775,0,0,0,0-3.531,2.011,2.011,0,0,0-1.559-.711,2.056,2.056,0,0,0-1.572.687,2.831,2.831,0,0,0,0,3.575A2.056,2.056,0,0,0,14.615,31.118ZM26.2,28.507l-.014.321h-5.25a2.375,2.375,0,0,0,.643,1.719,2.11,2.11,0,0,0,1.531.6,2.015,2.015,0,0,0,1.114-.321,2.085,2.085,0,0,0,.766-.889l1.066.226A3.031,3.031,0,0,1,24.91,31.6a3.133,3.133,0,0,1-1.784.526,3.246,3.246,0,0,1-2.42-.937,3.484,3.484,0,0,1-.923-2.557,3.467,3.467,0,0,1,.926-2.55,3.206,3.206,0,0,1,2.382-.937,3.034,3.034,0,0,1,2.259.861A3.4,3.4,0,0,1,26.2,28.507Zm-3.11-2.447a2.1,2.1,0,0,0-1.4.475,2.177,2.177,0,0,0-.708,1.384h4.026a2,2,0,0,0-.588-1.384A1.9,1.9,0,0,0,23.092,26.06Zm12.147-.909a3.056,3.056,0,0,1,1.217.246,2.993,2.993,0,0,1,1,.69,3.227,3.227,0,0,1,.673,1.107,4.084,4.084,0,0,1,.25,1.449,3.553,3.553,0,0,1-.906,2.536,2.942,2.942,0,0,1-2.232.964,2.66,2.66,0,0,1-1.4-.383,2.509,2.509,0,0,1-.96-1.032v4.655H31.691V25.28h1.142l.027,1.306a2.46,2.46,0,0,1,.957-1.049A2.685,2.685,0,0,1,35.239,25.15Zm-.232,5.968a2.04,2.04,0,0,0,1.555-.68,2.857,2.857,0,0,0,0-3.585,2.121,2.121,0,0,0-3.134.031,2.742,2.742,0,0,0,0,3.527A2.05,2.05,0,0,0,35.007,31.118Zm8.066,1.012a3.542,3.542,0,0,1-1.723-.417,3.036,3.036,0,0,1-1.213-1.22,3.748,3.748,0,0,1-.448-1.856,3.423,3.423,0,0,1,.954-2.533,3.578,3.578,0,0,1,4.864,0,3.43,3.43,0,0,1,.95,2.533,3.432,3.432,0,0,1-.954,2.54A3.292,3.292,0,0,1,43.073,32.13Zm-.007-.984a2.064,2.064,0,0,0,1.589-.69,2.921,2.921,0,0,0,0-3.63,2.064,2.064,0,0,0-1.589-.69,2.035,2.035,0,0,0-1.576.69,2.946,2.946,0,0,0,0,3.63A2.035,2.035,0,0,0,43.066,31.146ZM48.31,32V21.5h1.2V32Zm5.154.13a2.287,2.287,0,0,1-1.473-.461,1.657,1.657,0,0,1-.578-1.377,1.957,1.957,0,0,1,.185-.878,1.549,1.549,0,0,1,.547-.612,3.28,3.28,0,0,1,.79-.379,7.3,7.3,0,0,1,1.022-.243L55.043,28q.595-.109.595-.622a1.174,1.174,0,0,0-.42-1,1.713,1.713,0,0,0-1.063-.318,1.745,1.745,0,0,0-1.053.308,1.287,1.287,0,0,0-.5.943l-1.066-.226a2.052,2.052,0,0,1,.841-1.439,3.141,3.141,0,0,1,1.832-.482,3.716,3.716,0,0,1,.974.12A2.647,2.647,0,0,1,56,25.66a1.686,1.686,0,0,1,.581.725,2.7,2.7,0,0,1,.208,1.1v2.775a1.136,1.136,0,0,0,.154.7.664.664,0,0,0,.53.181h.109V32h-.588a1.121,1.121,0,0,1-1.271-.909h-.055A2.568,2.568,0,0,1,53.464,32.13Zm.273-.957a1.793,1.793,0,0,0,1.442-.649,2.674,2.674,0,0,0,.547-1.777l-1.777.342a2.392,2.392,0,0,0-1.042.373.867.867,0,0,0-.338.735.857.857,0,0,0,.325.738A1.388,1.388,0,0,0,53.737,31.173ZM59.849,23.7a.805.805,0,0,1-.8-.8.758.758,0,0,1,.236-.561.775.775,0,0,1,.564-.232.767.767,0,0,1,.557.232.758.758,0,0,1,.236.561.77.77,0,0,1-.236.564A.762.762,0,0,1,59.849,23.7Zm-.6,8.3V25.28h1.189V32Zm6.768-6.85a2.337,2.337,0,0,1,1.692.608,2.269,2.269,0,0,1,.632,1.716V32H67.156V27.741a1.589,1.589,0,0,0-.41-1.2,1.466,1.466,0,0,0-1.053-.39,1.626,1.626,0,0,0-1.2.461,1.872,1.872,0,0,0-.472,1.371V32H62.843V25.28h1.183v.861A2.244,2.244,0,0,1,66.015,25.15Zm6.159,6.979a2.287,2.287,0,0,1-1.473-.461,1.657,1.657,0,0,1-.578-1.377,1.957,1.957,0,0,1,.185-.878,1.549,1.549,0,0,1,.547-.612,3.281,3.281,0,0,1,.79-.379,7.3,7.3,0,0,1,1.022-.243L73.753,28q.595-.109.595-.622a1.174,1.174,0,0,0-.42-1,1.713,1.713,0,0,0-1.063-.318,1.745,1.745,0,0,0-1.053.308,1.287,1.287,0,0,0-.5.943l-1.066-.226a2.052,2.052,0,0,1,.841-1.439,3.141,3.141,0,0,1,1.832-.482,3.716,3.716,0,0,1,.974.12,2.647,2.647,0,0,1,.813.376,1.686,1.686,0,0,1,.581.725,2.7,2.7,0,0,1,.208,1.1v2.775a1.136,1.136,0,0,0,.154.7.664.664,0,0,0,.53.181h.109V32H75.7a1.121,1.121,0,0,1-1.271-.909h-.055A2.568,2.568,0,0,1,72.174,32.13Zm.273-.957a1.793,1.793,0,0,0,1.442-.649,2.674,2.674,0,0,0,.547-1.777l-1.777.342a2.392,2.392,0,0,0-1.042.373.867.867,0,0,0-.338.735.857.857,0,0,0,.325.738A1.388,1.388,0,0,0,72.447,31.173Zm7.636.957a3.186,3.186,0,0,1-1.812-.485,2.007,2.007,0,0,1-.882-1.381l1.032-.294a1.44,1.44,0,0,0,.55.933,1.785,1.785,0,0,0,1.1.332,2.2,2.2,0,0,0,.646-.089,1.036,1.036,0,0,0,.5-.332.925.925,0,0,0,.144-.889,1.187,1.187,0,0,0-.109-.222.677.677,0,0,0-.191-.185,2.524,2.524,0,0,0-.232-.144,2.386,2.386,0,0,0-.3-.126q-.2-.072-.325-.109t-.376-.109l-.39-.113a7.288,7.288,0,0,1-.7-.246,3.058,3.058,0,0,1-.567-.325,1.306,1.306,0,0,1-.441-.53,1.792,1.792,0,0,1-.147-.752,1.738,1.738,0,0,1,.328-1.073,1.846,1.846,0,0,1,.851-.632,3.4,3.4,0,0,1,1.193-.195,2.92,2.92,0,0,1,1.637.438,1.867,1.867,0,0,1,.817,1.313l-.971.246a1.287,1.287,0,0,0-.513-.851,1.632,1.632,0,0,0-.964-.284,1.664,1.664,0,0,0-.9.236.793.793,0,0,0-.376.721.718.718,0,0,0,.1.373,1.183,1.183,0,0,0,.2.263,1.24,1.24,0,0,0,.369.2q.267.106.4.144t.492.126q.068.021.1.027.4.1.646.181a3.97,3.97,0,0,1,.581.246,1.932,1.932,0,0,1,.523.366,1.694,1.694,0,0,1,.328.52,1.834,1.834,0,0,1,.137.725,1.957,1.957,0,0,1-.2.906,1.577,1.577,0,0,1-.55.619,2.661,2.661,0,0,1-.783.338A3.729,3.729,0,0,1,80.083,32.13Zm9.522,0a2.287,2.287,0,0,1-1.473-.461,1.657,1.657,0,0,1-.578-1.377,1.957,1.957,0,0,1,.185-.878,1.549,1.549,0,0,1,.547-.612,3.281,3.281,0,0,1,.79-.379,7.3,7.3,0,0,1,1.022-.243L91.185,28q.595-.109.595-.622a1.174,1.174,0,0,0-.42-1A1.713,1.713,0,0,0,90.3,26.06a1.745,1.745,0,0,0-1.053.308,1.287,1.287,0,0,0-.5.943l-1.066-.226a2.052,2.052,0,0,1,.841-1.439,3.141,3.141,0,0,1,1.832-.482,3.716,3.716,0,0,1,.974.12,2.647,2.647,0,0,1,.813.376,1.686,1.686,0,0,1,.581.725,2.7,2.7,0,0,1,.208,1.1v2.775a1.136,1.136,0,0,0,.154.7.664.664,0,0,0,.53.181h.109V32h-.588a1.121,1.121,0,0,1-1.271-.909h-.055A2.568,2.568,0,0,1,89.605,32.13Zm.273-.957a1.793,1.793,0,0,0,1.442-.649,2.674,2.674,0,0,0,.547-1.777l-1.777.342a2.392,2.392,0,0,0-1.042.373.867.867,0,0,0-.338.735.857.857,0,0,0,.325.738A1.388,1.388,0,0,0,89.879,31.173Zm5.51.827V21.5h1.2V32Zm5.749,0a1.766,1.766,0,0,1-1.312-.482,1.823,1.823,0,0,1-.479-1.343V26.224H97.973V25.28h.506a.971.971,0,0,0,.742-.236,1.161,1.161,0,0,0,.215-.79V23.038h1.1V25.28h1.545v.943h-1.545v3.828a1.019,1.019,0,0,0,.256.742.9.9,0,0,0,.673.263h.615V32Zm4.122.13a2.287,2.287,0,0,1-1.473-.461,1.657,1.657,0,0,1-.578-1.377,1.957,1.957,0,0,1,.185-.878,1.549,1.549,0,0,1,.547-.612,3.281,3.281,0,0,1,.79-.379,7.3,7.3,0,0,1,1.022-.243L106.839,28q.595-.109.595-.622a1.174,1.174,0,0,0-.42-1,1.713,1.713,0,0,0-1.063-.318,1.745,1.745,0,0,0-1.053.308,1.287,1.287,0,0,0-.5.943l-1.066-.226a2.052,2.052,0,0,1,.841-1.439A3.141,3.141,0,0,1,106,25.164a3.716,3.716,0,0,1,.974.12,2.647,2.647,0,0,1,.813.376,1.686,1.686,0,0,1,.581.725,2.7,2.7,0,0,1,.208,1.1v2.775a1.136,1.136,0,0,0,.154.7.664.664,0,0,0,.53.181h.109V32h-.588a1.121,1.121,0,0,1-1.271-.909h-.055A2.568,2.568,0,0,1,105.26,32.13Zm.273-.957a1.793,1.793,0,0,0,1.442-.649,2.674,2.674,0,0,0,.547-1.777l-1.777.342a2.392,2.392,0,0,0-1.042.373.867.867,0,0,0-.338.735.857.857,0,0,0,.325.738A1.388,1.388,0,0,0,105.533,31.173Zm7.636.957a3.186,3.186,0,0,1-1.812-.485,2.007,2.007,0,0,1-.882-1.381l1.032-.294a1.44,1.44,0,0,0,.55.933,1.785,1.785,0,0,0,1.1.332,2.2,2.2,0,0,0,.646-.089,1.036,1.036,0,0,0,.5-.332.925.925,0,0,0,.144-.889,1.187,1.187,0,0,0-.109-.222.677.677,0,0,0-.191-.185,2.524,2.524,0,0,0-.232-.144,2.386,2.386,0,0,0-.3-.126q-.2-.072-.325-.109t-.376-.109l-.39-.113a7.288,7.288,0,0,1-.7-.246,3.058,3.058,0,0,1-.567-.325,1.306,1.306,0,0,1-.441-.53,1.792,1.792,0,0,1-.147-.752A1.738,1.738,0,0,1,111,25.991a1.846,1.846,0,0,1,.851-.632,3.4,3.4,0,0,1,1.193-.195,2.92,2.92,0,0,1,1.637.438,1.867,1.867,0,0,1,.817,1.313l-.971.246a1.287,1.287,0,0,0-.513-.851,1.632,1.632,0,0,0-.964-.284,1.664,1.664,0,0,0-.9.236.793.793,0,0,0-.376.721.718.718,0,0,0,.1.373,1.183,1.183,0,0,0,.2.263,1.24,1.24,0,0,0,.369.2q.267.106.4.144t.492.126q.068.021.1.027.4.1.646.181a3.97,3.97,0,0,1,.581.246,1.932,1.932,0,0,1,.523.366,1.694,1.694,0,0,1,.328.52,1.834,1.834,0,0,1,.137.725,1.957,1.957,0,0,1-.2.906,1.577,1.577,0,0,1-.55.619,2.661,2.661,0,0,1-.783.338A3.729,3.729,0,0,1,113.169,32.13Zm11.184-6.979a2.245,2.245,0,0,1,1.661.622,2.415,2.415,0,0,1,.622,1.784V32h-1.183V27.782a1.653,1.653,0,0,0-.41-1.237,1.461,1.461,0,0,0-1.06-.4,1.626,1.626,0,0,0-1.186.458,1.862,1.862,0,0,0-.475,1.374V32H121.14V21.5h1.183v4.669a2.186,2.186,0,0,1,.844-.752A2.574,2.574,0,0,1,124.353,25.15Zm7.39,6.979a3.542,3.542,0,0,1-1.723-.417,3.036,3.036,0,0,1-1.213-1.22,3.748,3.748,0,0,1-.448-1.856,3.423,3.423,0,0,1,.954-2.533,3.578,3.578,0,0,1,4.864,0,3.43,3.43,0,0,1,.95,2.533,3.432,3.432,0,0,1-.954,2.54A3.292,3.292,0,0,1,131.742,32.13Zm-.007-.984a2.064,2.064,0,0,0,1.589-.69,2.921,2.921,0,0,0,0-3.63,2.064,2.064,0,0,0-1.589-.69,2.035,2.035,0,0,0-1.576.69,2.946,2.946,0,0,0,0,3.63A2.035,2.035,0,0,0,131.735,31.146Zm7.369.984a3.186,3.186,0,0,1-1.812-.485,2.007,2.007,0,0,1-.882-1.381l1.032-.294a1.44,1.44,0,0,0,.55.933,1.785,1.785,0,0,0,1.1.332,2.2,2.2,0,0,0,.646-.089,1.036,1.036,0,0,0,.5-.332.925.925,0,0,0,.144-.889,1.187,1.187,0,0,0-.109-.222.677.677,0,0,0-.191-.185,2.525,2.525,0,0,0-.232-.144,2.385,2.385,0,0,0-.3-.126q-.2-.072-.325-.109t-.376-.109l-.39-.113a7.29,7.29,0,0,1-.7-.246,3.058,3.058,0,0,1-.567-.325,1.306,1.306,0,0,1-.441-.53,1.793,1.793,0,0,1-.147-.752,1.738,1.738,0,0,1,.328-1.073,1.846,1.846,0,0,1,.851-.632,3.4,3.4,0,0,1,1.193-.195,2.92,2.92,0,0,1,1.637.438,1.867,1.867,0,0,1,.817,1.313l-.971.246a1.287,1.287,0,0,0-.513-.851,1.632,1.632,0,0,0-.964-.284,1.664,1.664,0,0,0-.9.236.793.793,0,0,0-.376.721.718.718,0,0,0,.1.373,1.183,1.183,0,0,0,.2.263,1.24,1.24,0,0,0,.369.2q.267.106.4.144t.492.126q.068.021.1.027.4.1.646.181a3.97,3.97,0,0,1,.581.246,1.932,1.932,0,0,1,.523.366,1.694,1.694,0,0,1,.328.52,1.834,1.834,0,0,1,.137.725,1.957,1.957,0,0,1-.2.906,1.577,1.577,0,0,1-.55.619,2.662,2.662,0,0,1-.783.338A3.729,3.729,0,0,1,139.1,32.13Zm7.882-6.979a3.056,3.056,0,0,1,1.217.246,2.993,2.993,0,0,1,1,.69,3.227,3.227,0,0,1,.673,1.107,4.084,4.084,0,0,1,.25,1.449,3.553,3.553,0,0,1-.906,2.536,2.942,2.942,0,0,1-2.232.964,2.66,2.66,0,0,1-1.4-.383,2.509,2.509,0,0,1-.96-1.032v4.655h-1.183V25.28h1.142l.027,1.306a2.46,2.46,0,0,1,.957-1.049A2.685,2.685,0,0,1,146.986,25.15Zm-.232,5.968a2.04,2.04,0,0,0,1.555-.68,2.857,2.857,0,0,0,0-3.585,2.121,2.121,0,0,0-3.134.031,2.742,2.742,0,0,0,0,3.527A2.05,2.05,0,0,0,146.754,31.118Zm5.838-7.417a.805.805,0,0,1-.8-.8.758.758,0,0,1,.236-.561.775.775,0,0,1,.564-.232.767.767,0,0,1,.557.232.758.758,0,0,1,.236.561.77.77,0,0,1-.236.564A.762.762,0,0,1,152.592,23.7Zm-.6,8.3V25.28h1.189V32Zm5.742,0a1.766,1.766,0,0,1-1.312-.482,1.823,1.823,0,0,1-.479-1.343V26.224h-1.374V25.28h.506a.971.971,0,0,0,.742-.236,1.161,1.161,0,0,0,.215-.79V23.038h1.1V25.28h1.545v.943h-1.545v3.828a1.019,1.019,0,0,0,.256.742.9.9,0,0,0,.673.263h.615V32Zm4.122.13a2.287,2.287,0,0,1-1.473-.461,1.657,1.657,0,0,1-.578-1.377,1.957,1.957,0,0,1,.185-.878,1.549,1.549,0,0,1,.547-.612,3.28,3.28,0,0,1,.79-.379,7.3,7.3,0,0,1,1.022-.243L163.434,28q.595-.109.595-.622a1.174,1.174,0,0,0-.42-1,1.713,1.713,0,0,0-1.063-.318,1.745,1.745,0,0,0-1.053.308,1.287,1.287,0,0,0-.5.943l-1.066-.226a2.052,2.052,0,0,1,.841-1.439,3.141,3.141,0,0,1,1.832-.482,3.716,3.716,0,0,1,.974.12,2.647,2.647,0,0,1,.813.376,1.686,1.686,0,0,1,.581.725,2.7,2.7,0,0,1,.208,1.1v2.775a1.136,1.136,0,0,0,.154.7.664.664,0,0,0,.53.181h.109V32h-.588a1.121,1.121,0,0,1-1.271-.909h-.055A2.568,2.568,0,0,1,161.854,32.13Zm.273-.957a1.793,1.793,0,0,0,1.442-.649,2.674,2.674,0,0,0,.547-1.777l-1.777.342a2.392,2.392,0,0,0-1.042.373.867.867,0,0,0-.338.735.857.857,0,0,0,.325.738A1.388,1.388,0,0,0,162.128,31.173Zm5.51.827V21.5h1.2V32Zm5.154.13a2.287,2.287,0,0,1-1.473-.461,1.657,1.657,0,0,1-.578-1.377,1.957,1.957,0,0,1,.185-.878,1.549,1.549,0,0,1,.547-.612,3.28,3.28,0,0,1,.79-.379,7.3,7.3,0,0,1,1.022-.243L174.371,28q.595-.109.595-.622a1.174,1.174,0,0,0-.42-1,1.713,1.713,0,0,0-1.063-.318,1.745,1.745,0,0,0-1.053.308,1.287,1.287,0,0,0-.5.943l-1.066-.226a2.052,2.052,0,0,1,.841-1.439,3.141,3.141,0,0,1,1.832-.482,3.716,3.716,0,0,1,.974.12,2.647,2.647,0,0,1,.813.376,1.686,1.686,0,0,1,.581.725,2.7,2.7,0,0,1,.208,1.1v2.775a1.136,1.136,0,0,0,.154.7.664.664,0,0,0,.53.181h.109V32h-.588a1.121,1.121,0,0,1-1.271-.909h-.055A2.568,2.568,0,0,1,172.792,32.13Zm.273-.957a1.793,1.793,0,0,0,1.442-.649,2.674,2.674,0,0,0,.547-1.777l-1.777.342a2.392,2.392,0,0,0-1.042.373.867.867,0,0,0-.338.735.857.857,0,0,0,.325.738A1.388,1.388,0,0,0,173.065,31.173Zm6.665-4.71a2.032,2.032,0,0,1,.834-.9,2.512,2.512,0,0,1,1.292-.355v1.114a2.214,2.214,0,0,0-1.562.5,2.084,2.084,0,0,0-.537,1.593V32h-1.183V25.28h1.155Zm4.115-2.762a.805.805,0,0,1-.8-.8.758.758,0,0,1,.236-.561.775.775,0,0,1,.564-.232.767.767,0,0,1,.557.232.758.758,0,0,1,.236.561.77.77,0,0,1-.236.564A.762.762,0,0,1,183.846,23.7Zm-.6,8.3V25.28h1.189V32Zm5.147.13a2.287,2.287,0,0,1-1.473-.461,1.657,1.657,0,0,1-.578-1.377,1.957,1.957,0,0,1,.185-.878,1.549,1.549,0,0,1,.547-.612,3.28,3.28,0,0,1,.79-.379,7.3,7.3,0,0,1,1.022-.243L189.971,28q.595-.109.595-.622a1.174,1.174,0,0,0-.42-1,1.713,1.713,0,0,0-1.063-.318,1.745,1.745,0,0,0-1.053.308,1.287,1.287,0,0,0-.5.943l-1.066-.226a2.052,2.052,0,0,1,.841-1.439,3.141,3.141,0,0,1,1.832-.482,3.716,3.716,0,0,1,.974.12,2.647,2.647,0,0,1,.813.376,1.686,1.686,0,0,1,.581.725,2.7,2.7,0,0,1,.208,1.1v2.775a1.136,1.136,0,0,0,.154.7.664.664,0,0,0,.53.181h.109V32h-.588a1.121,1.121,0,0,1-1.271-.909h-.055A2.568,2.568,0,0,1,188.392,32.13Zm.273-.957a1.793,1.793,0,0,0,1.442-.649,2.674,2.674,0,0,0,.547-1.777l-1.777.342a2.392,2.392,0,0,0-1.042.373.867.867,0,0,0-.338.735.857.857,0,0,0,.325.738A1.388,1.388,0,0,0,188.665,31.173Zm7.636.957a3.186,3.186,0,0,1-1.812-.485,2.007,2.007,0,0,1-.882-1.381l1.032-.294a1.44,1.44,0,0,0,.55.933,1.785,1.785,0,0,0,1.1.332,2.2,2.2,0,0,0,.646-.089,1.036,1.036,0,0,0,.5-.332.925.925,0,0,0,.144-.889,1.187,1.187,0,0,0-.109-.222.677.677,0,0,0-.191-.185,2.525,2.525,0,0,0-.232-.144,2.385,2.385,0,0,0-.3-.126q-.2-.072-.325-.109t-.376-.109l-.39-.113a7.29,7.29,0,0,1-.7-.246,3.058,3.058,0,0,1-.567-.325,1.306,1.306,0,0,1-.441-.53,1.793,1.793,0,0,1-.147-.752,1.738,1.738,0,0,1,.328-1.073,1.846,1.846,0,0,1,.851-.632,3.4,3.4,0,0,1,1.193-.195,2.92,2.92,0,0,1,1.637.438,1.867,1.867,0,0,1,.817,1.313l-.971.246a1.287,1.287,0,0,0-.513-.851,1.632,1.632,0,0,0-.964-.284,1.664,1.664,0,0,0-.9.236.793.793,0,0,0-.376.721.718.718,0,0,0,.1.373,1.183,1.183,0,0,0,.2.263,1.24,1.24,0,0,0,.369.2q.267.106.4.144t.492.126q.068.021.1.027.4.1.646.181a3.97,3.97,0,0,1,.581.246,1.932,1.932,0,0,1,.523.366,1.694,1.694,0,0,1,.328.52,1.834,1.834,0,0,1,.137.725,1.957,1.957,0,0,1-.2.906,1.577,1.577,0,0,1-.55.619,2.662,2.662,0,0,1-.783.338A3.729,3.729,0,0,1,196.3,32.13Z" transform="translate(4955 -1494)" fill="#00223d"/>
    <rect id="Rectángulo_3304" data-name="Rectángulo 3304" width="194" height="49" rx="3" transform="translate(4963 -1438)" fill="#5799ab"/>
    <g id="Grupo_867" data-name="Grupo 867" transform="translate(4995.228 -1428.075)">
      <path id="Trazado_1157" data-name="Trazado 1157" d="M815.839,2604.383a1.743,1.743,0,0,0-1.738,1.738v24.327a1.744,1.744,0,0,0,1.738,1.738h17.376a1.743,1.743,0,0,0,1.738-1.738v-19.114L828,2604.383Z" transform="translate(-810.626 -2604.383)" fill="#f2f2f2"/>
      <path id="Trazado_1160" data-name="Trazado 1160" d="M826.79,2644.553a.869.869,0,0,1-.869.869H806.807a.869.869,0,0,1-.869-.869v-8.688a.869.869,0,0,1,.869-.869h19.114a.869.869,0,0,1,.869.869Z" transform="translate(-805.938 -2621.963)" fill="#f15642"/>
      <g id="Grupo_855" data-name="Grupo 855" transform="translate(3.787 15.982)">
        <path id="Trazado_1161" data-name="Trazado 1161" d="M814.834,2642.4a.478.478,0,0,1,.472-.479h1.6a1.738,1.738,0,0,1,0,3.476h-1.159v.917a.434.434,0,0,1-.387.477.411.411,0,0,1-.057,0,.467.467,0,0,1-.472-.464V2642.4Zm.917.4v1.731h1.16a.869.869,0,0,0,0-1.731Z" transform="translate(-814.834 -2641.924)" fill="#fff"/>
        <path id="Trazado_1162" data-name="Trazado 1162" d="M826.293,2646.868a.434.434,0,0,1-.477-.387c0-.016,0-.032,0-.048v-3.946a.472.472,0,0,1,.479-.434h1.591c3.175,0,3.105,4.807.063,4.807Zm.435-3.959v3.113h1.153c1.876,0,1.959-3.113,0-3.113Z" transform="translate(-821.14 -2641.998)" fill="#fff"/>
        <path id="Trazado_1163" data-name="Trazado 1163" d="M839.39,2642.97v1.1h1.771a.536.536,0,0,1,.5.492.484.484,0,0,1-.5.417H839.39v1.458a.411.411,0,0,1-.393.43h-.023a.441.441,0,0,1-.49-.387c0-.014,0-.028,0-.043V2642.5a.439.439,0,0,1,.44-.438.389.389,0,0,1,.053,0h2.439a.435.435,0,0,1,.484.379.475.475,0,0,1-.483.528H839.39Z" transform="translate(-828.414 -2642.002)" fill="#fff"/>
      </g>
      <path id="Trazado_1164" data-name="Trazado 1164" d="M830.609,2658.314H814.1v.869h16.508a.869.869,0,0,0,.869-.869v-.869A.869.869,0,0,1,830.609,2658.314Z" transform="translate(-810.626 -2634.855)" fill="#e6e6e6"/>
      <path id="Trazado_1158" data-name="Trazado 1158" d="M848.493,2611.334h5.213l-6.951-6.951v5.213A1.743,1.743,0,0,0,848.493,2611.334Z" transform="translate(-829.378 -2604.383)" fill="#b3b3b3"/>
    </g>
    <path id="Trazado_20061" data-name="Trazado 20061" d="M1.278,16.522V4.122H5.766a7,7,0,0,1,2.587.446,4.766,4.766,0,0,1,1.854,1.266,5.507,5.507,0,0,1,1.1,1.952,8.06,8.06,0,0,1,.373,2.532,8.09,8.09,0,0,1-.373,2.54,5.507,5.507,0,0,1-1.1,1.952,4.766,4.766,0,0,1-1.854,1.266,7,7,0,0,1-2.587.446Zm2.574-2.274H5.638A3.046,3.046,0,0,0,8.144,13.24a4.519,4.519,0,0,0,.824-2.922A4.519,4.519,0,0,0,8.144,7.4,3.046,3.046,0,0,0,5.638,6.388H3.853Zm18.21-2.266-.026.592H15.5a2.284,2.284,0,0,0,.7,1.613,2.25,2.25,0,0,0,1.553.558,2.169,2.169,0,0,0,1.163-.3,1.873,1.873,0,0,0,.742-.888l2.266.335a3.851,3.851,0,0,1-1.545,2.068,4.593,4.593,0,0,1-2.609.738,4.776,4.776,0,0,1-3.437-1.214,4.431,4.431,0,0,1-1.274-3.368,4.457,4.457,0,0,1,1.279-3.368,4.634,4.634,0,0,1,3.355-1.231,4.429,4.429,0,0,1,3.167,1.124A4.41,4.41,0,0,1,22.063,11.983Zm-4.351-2.72a1.953,1.953,0,0,0-2.145,1.7h4.051A1.858,1.858,0,0,0,19.008,9.7,1.931,1.931,0,0,0,17.712,9.262Zm9.337,7.432a4.93,4.93,0,0,1-2.574-.618,2.612,2.612,0,0,1-1.261-1.836l2.068-.584a1.662,1.662,0,0,0,1.768,1.313,1.826,1.826,0,0,0,.9-.2.7.7,0,0,0,.352-.682.722.722,0,0,0-.146-.455,1.156,1.156,0,0,0-.451-.326,5.613,5.613,0,0,0-.6-.232q-.3-.094-.785-.227t-.815-.253a5.461,5.461,0,0,1-.777-.33,3.313,3.313,0,0,1-.644-.455,1.833,1.833,0,0,1-.481-.691,2.492,2.492,0,0,1-.167-.944A2.254,2.254,0,0,1,24.393,8.2a4.275,4.275,0,0,1,2.5-.669A4.383,4.383,0,0,1,29.2,8.1a2.563,2.563,0,0,1,1.184,1.768l-1.914.429A1.5,1.5,0,0,0,26.9,9.177a1.72,1.72,0,0,0-.867.2.634.634,0,0,0-.343.584.669.669,0,0,0,.051.266.527.527,0,0,0,.18.215,2.628,2.628,0,0,0,.249.163,1.878,1.878,0,0,0,.352.142q.232.073.386.112l.451.116.459.12q.472.129.828.257a4.85,4.85,0,0,1,.759.36,2.726,2.726,0,0,1,.665.519,2.316,2.316,0,0,1,.433.729,2.694,2.694,0,0,1,.172.983,2.654,2.654,0,0,1-.3,1.279,2.222,2.222,0,0,1-.811.862,3.947,3.947,0,0,1-1.146.463A5.943,5.943,0,0,1,27.049,16.694Zm9.4-.009a4.713,4.713,0,0,1-3.407-1.27A4.387,4.387,0,0,1,31.717,12.1,4.377,4.377,0,0,1,33.034,8.79,5.237,5.237,0,0,1,39.3,8.379a3.793,3.793,0,0,1,1.476,2.394l-2.283.249a1.956,1.956,0,0,0-.738-1.159,2.244,2.244,0,0,0-1.339-.386,2.023,2.023,0,0,0-1.613.721,2.826,2.826,0,0,0-.618,1.905,2.83,2.83,0,0,0,.618,1.9,2.018,2.018,0,0,0,1.613.725,2.225,2.225,0,0,0,1.334-.386,2,2,0,0,0,.742-1.159l2.283.249a3.8,3.8,0,0,1-1.489,2.394A4.681,4.681,0,0,1,36.446,16.686Zm13.327-2.557a8.253,8.253,0,0,0,.215,2.154v.24H47.679l-.2-.961a2.868,2.868,0,0,1-1.236.85,4.554,4.554,0,0,1-1.6.283,4.2,4.2,0,0,1-.824-.077,2.8,2.8,0,0,1-.742-.262,2.253,2.253,0,0,1-.614-.459,2.013,2.013,0,0,1-.412-.7,2.786,2.786,0,0,1-.154-.957,2.653,2.653,0,0,1,.163-.957,2.243,2.243,0,0,1,.429-.717,2.6,2.6,0,0,1,.7-.523,5.319,5.319,0,0,1,.875-.378,10.459,10.459,0,0,1,1.047-.275l1.45-.326a1.6,1.6,0,0,0,.656-.279.556.556,0,0,0,.193-.442.91.91,0,0,0-.433-.85,2.024,2.024,0,0,0-1.051-.257A1.513,1.513,0,0,0,44.2,10.584l-2.188-.395a2.962,2.962,0,0,1,1.279-2.012,5.082,5.082,0,0,1,2.772-.648q3.707,0,3.707,3.184Zm-4.351.892a1.988,1.988,0,0,0,1.528-.639,2.694,2.694,0,0,0,.592-1.892l-2.094.592a2.475,2.475,0,0,0-.88.36.74.74,0,0,0-.3.635.822.822,0,0,0,.326.7A1.35,1.35,0,0,0,45.422,15.021ZM54.544,9.1A2.864,2.864,0,0,1,55.7,8.04,3.535,3.535,0,0,1,57.428,7.6V9.8a3.342,3.342,0,0,0-2.111.532,2.323,2.323,0,0,0-.652,1.888v4.3H52.176V7.7h2.369ZM64.9,7.7h2.351v8.161a6.6,6.6,0,0,1-.33,2.2,3.623,3.623,0,0,1-.957,1.506,3.988,3.988,0,0,1-1.467.845,6.187,6.187,0,0,1-1.922.275q-3.493,0-4.548-2.738l2.051-.875a2.993,2.993,0,0,0,.953,1.279,2.428,2.428,0,0,0,1.45.412q2.291,0,2.291-2.72v-1.03a2.779,2.779,0,0,1-1.111.871,3.7,3.7,0,0,1-1.566.33,3.951,3.951,0,0,1-2.832-1.189,4.075,4.075,0,0,1-.871-1.386,5.123,5.123,0,0,1,0-3.574A3.911,3.911,0,0,1,59.268,8.7a4.028,4.028,0,0,1,1.287-.858,3.973,3.973,0,0,1,1.558-.309,3.588,3.588,0,0,1,1.635.365,2.607,2.607,0,0,1,1.094.974Zm-3.789,5.835a2.264,2.264,0,0,0,3.24-.009,2.466,2.466,0,0,0,0-3.355,2.284,2.284,0,0,0-3.252-.013,2.347,2.347,0,0,0-.648,1.695A2.323,2.323,0,0,0,61.113,13.536Zm15.94.592a8.253,8.253,0,0,0,.215,2.154v.24H74.96l-.2-.961a2.868,2.868,0,0,1-1.236.85,4.554,4.554,0,0,1-1.6.283,4.2,4.2,0,0,1-.824-.077,2.8,2.8,0,0,1-.742-.262,2.253,2.253,0,0,1-.614-.459,2.013,2.013,0,0,1-.412-.7,2.786,2.786,0,0,1-.154-.957,2.654,2.654,0,0,1,.163-.957,2.243,2.243,0,0,1,.429-.717,2.6,2.6,0,0,1,.7-.523,5.319,5.319,0,0,1,.875-.378,10.459,10.459,0,0,1,1.047-.275l1.45-.326a1.6,1.6,0,0,0,.656-.279.556.556,0,0,0,.193-.442.91.91,0,0,0-.433-.85,2.024,2.024,0,0,0-1.051-.257,1.513,1.513,0,0,0-1.725,1.347L69.3,10.189a2.962,2.962,0,0,1,1.279-2.012,5.082,5.082,0,0,1,2.772-.648q3.707,0,3.707,3.184Zm-4.351.892a1.988,1.988,0,0,0,1.528-.639,2.694,2.694,0,0,0,.592-1.892l-2.094.592a2.475,2.475,0,0,0-.88.36.74.74,0,0,0-.3.635.822.822,0,0,0,.326.7A1.35,1.35,0,0,0,72.7,15.021ZM81.825,9.1a2.864,2.864,0,0,1,1.159-1.06A3.535,3.535,0,0,1,84.708,7.6V9.8a3.342,3.342,0,0,0-2.111.532,2.323,2.323,0,0,0-.652,1.888v4.3H79.457V7.7h2.369Z" transform="translate(5030.198 -1423.118)" fill="#fff"/>
  </g>
</svg>
