<svg xmlns="http://www.w3.org/2000/svg" width="362.326" height="288.704" viewBox="0 0 362.326 288.704">
  <g id="Grupo_13387" data-name="Grupo 13387" transform="translate(-809.007 -200.265)">
    <ellipse id="Elipse_511" data-name="Elipse 511" cx="181.163" cy="13.635" rx="181.163" ry="13.635" transform="translate(809.007 461.7)" opacity="0.15"/>
    <g id="Grupo_13318" data-name="Grupo 13318" transform="translate(823.314 338.854)">
      <g id="Grupo_13316" data-name="Grupo 13316" transform="translate(16.157)">
        <path id="Trazado_19676" data-name="Trazado 19676" d="M872.686,548.189a1.707,1.707,0,0,0-1.225.489,1.635,1.635,0,0,0-.246.964c-.189,5.913,3.108,11.639,7.9,15.114a26.793,26.793,0,0,0,16.8,4.611c4.09-.167,9.113-.824,12.832-2.65,4.107-2.016,0-5.547-2.208-7.51a45.1,45.1,0,0,0-20.715-10.344A42.677,42.677,0,0,0,872.686,548.189Z" transform="translate(-858.854 -485.106)" fill="#b12d58"/>
        <path id="Trazado_19677" data-name="Trazado 19677" d="M888.223,585.315a1.706,1.706,0,0,0-1.084.751,1.64,1.64,0,0,0-.024,1c1.143,5.8,5.641,10.645,11.086,12.957a26.791,26.791,0,0,0,17.4.724c3.949-1.08,8.695-2.847,11.91-5.461,3.55-2.886-1.242-5.407-3.837-6.823a45.091,45.091,0,0,0-22.508-5.434A42.7,42.7,0,0,0,888.223,585.315Z" transform="translate(-863.791 -496.03)" fill="#b12d58"/>
        <path id="Trazado_19678" data-name="Trazado 19678" d="M921.493,479.137a1.705,1.705,0,0,1,1.13-.679,1.637,1.637,0,0,1,.917.388c4.819,3.43,7.379,9.522,7.245,15.436a26.786,26.786,0,0,1-6.5,16.158c-2.61,3.155-6.174,6.753-9.88,8.607-4.092,2.047-4.417-3.357-4.639-6.3a45.08,45.08,0,0,1,4.313-22.749A42.713,42.713,0,0,1,921.493,479.137Z" transform="translate(-870.83 -463.449)" fill="#b12d58"/>
        <path id="Trazado_19679" data-name="Trazado 19679" d="M937.081,513.228a1.706,1.706,0,0,1,1.084-.75,1.64,1.64,0,0,1,.94.328c5.031,3.112,7.979,9.026,8.227,14.937a26.79,26.79,0,0,1-5.447,16.545c-2.4,3.315-5.726,7.136-9.3,9.226-3.951,2.307-4.624-3.065-5.037-5.992a45.1,45.1,0,0,1,2.836-22.98A42.694,42.694,0,0,1,937.081,513.228Z" transform="translate(-876.276 -474.05)" fill="#b12d58"/>
        <path id="Trazado_19680" data-name="Trazado 19680" d="M955.853,542.61a1.565,1.565,0,0,1,.994-.688,1.5,1.5,0,0,1,.862.3c4.612,2.853,7.314,8.274,7.541,13.692a24.555,24.555,0,0,1-4.994,15.166c-2.2,3.04-5.248,6.542-8.528,8.458-3.622,2.115-4.238-2.81-4.617-5.494a41.332,41.332,0,0,1,2.6-21.065A39.137,39.137,0,0,1,955.853,542.61Z" transform="translate(-882.385 -483.225)" fill="#b12d58"/>
        <path id="Trazado_19681" data-name="Trazado 19681" d="M854.692,516.029a1.706,1.706,0,0,0-1.21.522,1.636,1.636,0,0,0-.22.971c-.025,5.916,3.43,11.548,8.313,14.889a26.79,26.79,0,0,0,16.919,4.141c4.084-.28,9.086-1.077,12.753-3.005,4.05-2.129-.151-5.546-2.416-7.446a45.094,45.094,0,0,0-20.994-9.765A42.7,42.7,0,0,0,854.692,516.029Z" transform="translate(-853.262 -475.042)" fill="#b12d58"/>
        <path id="Trazado_19682" data-name="Trazado 19682" d="M900.3,480.275c-1.452-6.917-5.136-13.194-9.564-18.7-1.883-2.343-4.234-4.737-7.234-4.916a38.437,38.437,0,0,0,.931,32.641c1.524,2.967,8.933,13.744,12.706,10.461C901.7,495.79,901.392,485.481,900.3,480.275Z" transform="translate(-861.691 -456.655)" fill="#b12d58"/>
        <path id="Trazado_19683" data-name="Trazado 19683" d="M935.784,567.127a100.072,100.072,0,0,1-13.538-11.733,49.539,49.539,0,0,0,9.179-32.161c-.09-1.295-2.126-1.383-2.035-.075a47.775,47.775,0,0,1-8.577,30.731,121.848,121.848,0,0,1-11.968-15.13,1.286,1.286,0,0,0,.156-.176,54.034,54.034,0,0,0,10.039-35.124c-.1-1.412-2.318-1.508-2.219-.081a52.121,52.121,0,0,1-9.278,33.41c-.348-.537-.7-1.073-1.037-1.614a158.862,158.862,0,0,1-10.683-20.267,1.127,1.127,0,0,0,.447-.331,54.039,54.039,0,0,0,12.286-34.4c-.007-1.416-2.217-1.655-2.21-.224a52.116,52.116,0,0,1-11.462,32.8c-2.891-6.757-5.4-13.683-7.639-20.681-2.828-8.854-5.235-17.835-7.489-26.85-.346-1.386-2.484-.782-2.137.606,4.053,16.214,8.619,32.369,15.208,47.759a52.118,52.118,0,0,1-32.77-9.845c-1.158-.84-2.252,1.095-1.106,1.926a54.038,54.038,0,0,0,34.828,10.1,162.1,162.1,0,0,0,11.079,20.927,52.125,52.125,0,0,1-32.5-10.753c-1.134-.872-2.281,1.031-1.159,1.894a54.033,54.033,0,0,0,34.816,11.057,1.182,1.182,0,0,0,.238-.033,127.543,127.543,0,0,0,10.16,13.472c.582.671,1.176,1.332,1.773,1.989a52.115,52.115,0,0,1-34.473-3.09c-1.3-.6-1.993,1.517-.706,2.106a54.037,54.037,0,0,0,36.41,2.965,1.169,1.169,0,0,0,.422-.21,104.352,104.352,0,0,0,14.84,12.966C935.841,569.886,936.935,567.952,935.784,567.127Z" transform="translate(-854.884 -459.079)" fill="#1f2045"/>
      </g>
      <g id="Grupo_13317" data-name="Grupo 13317" transform="translate(0 59.647)">
        <path id="Trazado_19684" data-name="Trazado 19684" d="M852.4,610.409a1.3,1.3,0,0,0-.733.693,1.256,1.256,0,0,0,.1.756,14.184,14.184,0,0,0,9.886,8.521,20.5,20.5,0,0,0,13.251-1.464,26.022,26.022,0,0,0,8.38-5.51c2.352-2.595-1.565-3.947-3.692-4.719a34.515,34.515,0,0,0-17.658-1.508A32.691,32.691,0,0,0,852.4,610.409Z" transform="translate(-836.598 -563.044)" fill="#cf4468"/>
        <path id="Trazado_19685" data-name="Trazado 19685" d="M874.194,631.2a1.3,1.3,0,0,0-.559.84,1.251,1.251,0,0,0,.264.715,14.188,14.188,0,0,0,11.546,6.086,20.506,20.506,0,0,0,12.584-4.4,26.011,26.011,0,0,0,6.93-7.249c1.71-3.056-2.411-3.5-4.657-3.77a34.511,34.511,0,0,0-17.545,2.492A32.669,32.669,0,0,0,874.194,631.2Z" transform="translate(-843.453 -568.193)" fill="#cf4468"/>
        <path id="Trazado_19686" data-name="Trazado 19686" d="M870.316,547.633a1.3,1.3,0,0,1,.613-.8,1.253,1.253,0,0,1,.761.017,14.188,14.188,0,0,1,9.515,8.935,20.5,20.5,0,0,1-.063,13.331,26.013,26.013,0,0,1-4.6,8.913c-2.332,2.612-4.09-1.141-5.081-3.175a34.512,34.512,0,0,1-3.357-17.4A32.684,32.684,0,0,1,870.316,547.633Z" transform="translate(-841.705 -544.385)" fill="#cf4468"/>
        <path id="Trazado_19687" data-name="Trazado 19687" d="M890.76,567.719a1.307,1.307,0,0,1,.559-.84,1.257,1.257,0,0,1,.761-.032,14.184,14.184,0,0,1,10.071,8.3,20.5,20.5,0,0,1,.8,13.308,26.005,26.005,0,0,1-4.012,9.191c-2.159,2.758-4.155-.874-5.276-2.84a34.508,34.508,0,0,1-4.474-17.148A32.68,32.68,0,0,1,890.76,567.719Z" transform="translate(-848.3 -550.626)" fill="#cf4468"/>
        <path id="Trazado_19688" data-name="Trazado 19688" d="M912.2,583.437a1.2,1.2,0,0,1,.513-.77,1.147,1.147,0,0,1,.7-.029,13,13,0,0,1,9.232,7.609,18.794,18.794,0,0,1,.732,12.2,23.84,23.84,0,0,1-3.677,8.426c-1.979,2.527-3.809-.8-4.836-2.6a31.636,31.636,0,0,1-4.1-15.719A29.97,29.97,0,0,1,912.2,583.437Z" transform="translate(-855.021 -555.548)" fill="#cf4468"/>
        <path id="Trazado_19689" data-name="Trazado 19689" d="M830.526,592.464a1.306,1.306,0,0,0-.713.714,1.249,1.249,0,0,0,.118.752,14.186,14.186,0,0,0,10.119,8.243,20.507,20.507,0,0,0,13.2-1.833,26,26,0,0,0,8.224-5.741c2.279-2.659-1.674-3.9-3.822-4.614a34.511,34.511,0,0,0-17.692-1.016A32.689,32.689,0,0,0,830.526,592.464Z" transform="translate(-829.791 -557.314)" fill="#cf4468"/>
        <path id="Trazado_19690" data-name="Trazado 19690" d="M853.711,555.6a34.7,34.7,0,0,0-12.087-10.6c-2-1.134-4.349-2.174-6.534-1.454a29.422,29.422,0,0,0,9.882,22.956c1.922,1.68,10.236,7.254,11.992,3.853C859.088,566.239,855.96,558.992,853.711,555.6Z" transform="translate(-831.436 -543.302)" fill="#cf4468"/>
        <path id="Trazado_19691" data-name="Trazado 19691" d="M907.589,605.248a76.606,76.606,0,0,1-12.945-4.517,37.916,37.916,0,0,0-2.554-25.476c-.43-.9-1.9-.383-1.468.522a36.565,36.565,0,0,1,2.581,24.289,93.3,93.3,0,0,1-12.792-7.384.918.918,0,0,0,.063-.173,41.363,41.363,0,0,0-2.779-27.821c-.469-.977-2.076-.418-1.6.569a39.9,39.9,0,0,1,2.842,26.393q-.6-.428-1.2-.863a121.519,121.519,0,0,1-13.324-11.4.857.857,0,0,0,.224-.362,41.355,41.355,0,0,0-.977-27.942c-.4-1.005-2.044-.551-1.635.465a39.893,39.893,0,0,1,1.116,26.574c-3.967-3.991-7.712-8.21-11.28-12.558-4.513-5.5-8.762-11.208-12.912-16.985-.638-.888-1.987.145-1.348,1.035,7.464,10.391,15.277,20.6,24.314,29.685a39.9,39.9,0,0,1-26.1,2.245c-1.061-.271-1.293,1.415-.243,1.682a41.36,41.36,0,0,0,27.628-2.653A124.026,124.026,0,0,0,877,592.338a39.9,39.9,0,0,1-26.166,1.526c-1.053-.3-1.332,1.378-.29,1.675a41.358,41.358,0,0,0,27.89-1.969.958.958,0,0,0,.16-.091,97.547,97.547,0,0,0,11.033,6.714q.909.471,1.828.919a39.889,39.889,0,0,1-25.4,7.534c-1.093-.056-.988,1.642.094,1.7a41.362,41.362,0,0,0,26.738-8.176.893.893,0,0,0,.237-.264,79.893,79.893,0,0,0,14.222,5.027C908.409,607.195,908.642,605.51,907.589,605.248Z" transform="translate(-831.381 -544.842)" fill="#1f2045"/>
      </g>
    </g>
    <g id="Grupo_13324" data-name="Grupo 13324" transform="translate(885.698 200.265)">
      <rect id="Rectángulo_3164" data-name="Rectángulo 3164" width="226.525" height="275.153" fill="#1f2045"/>
      <rect id="Rectángulo_3165" data-name="Rectángulo 3165" width="221.492" height="275.153" fill="#2d2e70"/>
      <rect id="Rectángulo_3166" data-name="Rectángulo 3166" width="214.788" height="275.153" fill="#6459f2"/>
      <g id="Grupo_13321" data-name="Grupo 13321" transform="translate(7.648)">
        <g id="Grupo_13319" data-name="Grupo 13319" transform="translate(0 16.265)">
          <path id="Trazado_19692" data-name="Trazado 19692" d="M942.428,278.959a10.9,10.9,0,1,0,10.9,10.9A10.917,10.917,0,0,0,942.428,278.959Z" transform="translate(-931.524 -278.959)"/>
          <path id="Trazado_19693" data-name="Trazado 19693" d="M945.09,297.549a5.023,5.023,0,1,1,5.024-5.023A5.029,5.029,0,0,1,945.09,297.549Z" transform="translate(-934.186 -281.621)" fill="#fff"/>
        </g>
        <g id="Grupo_13320" data-name="Grupo 13320" transform="translate(0 239.808)">
          <path id="Trazado_19694" data-name="Trazado 19694" d="M942.428,603.694a10.9,10.9,0,1,0,10.9,10.9A10.917,10.917,0,0,0,942.428,603.694Z" transform="translate(-931.524 -603.694)"/>
          <path id="Trazado_19695" data-name="Trazado 19695" d="M945.09,622.283a5.023,5.023,0,1,1,5.024-5.022A5.029,5.029,0,0,1,945.09,622.283Z" transform="translate(-934.186 -606.356)" fill="#fff"/>
        </g>
        <rect id="Rectángulo_3167" data-name="Rectángulo 3167" width="14.26" height="275.153" transform="translate(31.393)" fill="#b12d58"/>
      </g>
      <g id="Grupo_13323" data-name="Grupo 13323" transform="translate(62.11 31.919)">
        <rect id="Rectángulo_3168" data-name="Rectángulo 3168" width="145.96" height="6.711" transform="translate(0 82.183)" fill="#fff"/>
        <rect id="Rectángulo_3169" data-name="Rectángulo 3169" width="128.32" height="6.711" transform="translate(0 97.597)" fill="#fff"/>
        <rect id="Rectángulo_3170" data-name="Rectángulo 3170" width="110.282" height="6.711" transform="translate(0 113.01)" fill="#fff"/>
        <rect id="Rectángulo_3171" data-name="Rectángulo 3171" width="74.448" height="6.711" transform="translate(0 128.423)" fill="#fff"/>
        <rect id="Rectángulo_3172" data-name="Rectángulo 3172" width="110.282" height="6.711" transform="translate(0 143.836)" fill="#fff"/>
        <rect id="Rectángulo_3173" data-name="Rectángulo 3173" width="145.96" height="6.711" transform="translate(0 159.249)" fill="#fff"/>
        <g id="Grupo_13322" data-name="Grupo 13322" transform="translate(6.995)">
          <path id="Trazado_19696" data-name="Trazado 19696" d="M1027.165,315.025h5.776v4.13h-5.776v11.936h-4.474V302.18h11.836v4.13h-7.362Z" transform="translate(-1021.39 -301.849)" fill="#fff"/>
          <path id="Trazado_19697" data-name="Trazado 19697" d="M1043.018,302.18h4.474v28.911h-4.474Z" transform="translate(-1027.724 -301.849)" fill="#fff"/>
          <path id="Trazado_19698" data-name="Trazado 19698" d="M1067.052,320.161V324c0,4.667-2.278,7.269-6.67,7.269s-6.67-2.6-6.67-7.269V308.968c0-4.667,2.278-7.269,6.67-7.269s6.67,2.6,6.67,7.269v2.809h-4.23v-3.1c0-2.106-.895-2.85-2.318-2.85s-2.318.743-2.318,2.85v15.612c0,2.106.9,2.808,2.318,2.808s2.318-.7,2.318-2.808v-4.13Z" transform="translate(-1031.057 -301.699)" fill="#fff"/>
          <path id="Trazado_19699" data-name="Trazado 19699" d="M1081.525,331.091h-4.474V302.18h4.474v12.39h5.084V302.18h4.555v28.911h-4.555V318.7h-5.084Z" transform="translate(-1038.329 -301.849)" fill="#fff"/>
          <path id="Trazado_19700" data-name="Trazado 19700" d="M1116.226,331.091h-4.514l-.773-5.246h-5.491l-.772,5.246h-4.108l4.556-28.911h6.548Zm-10.208-9.169h4.311l-2.155-14.621Z" transform="translate(-1045.657 -301.849)" fill="#fff"/>
          <path id="Trazado_19701" data-name="Trazado 19701" d="M1020.8,355.18h13.828v4.13h-4.677v24.781h-4.474V359.31H1020.8Z" transform="translate(-1020.801 -318.364)" fill="#fff"/>
          <path id="Trazado_19702" data-name="Trazado 19702" d="M1048.2,364.6h6.141v4.13H1048.2v8.466h7.727v4.13h-12.2V352.413h12.2v4.13H1048.2Zm6.385-18.3-4.148,4.585h-3.01l2.765-4.585Z" transform="translate(-1027.945 -315.597)" fill="#fff"/>
          <path id="Trazado_19703" data-name="Trazado 19703" d="M1078.278,373.161V377c0,4.667-2.277,7.269-6.67,7.269s-6.671-2.6-6.671-7.269V361.968c0-4.667,2.278-7.269,6.671-7.269s6.67,2.6,6.67,7.269v2.809h-4.23v-3.1c0-2.106-.894-2.85-2.318-2.85s-2.318.743-2.318,2.85v15.612c0,2.106.894,2.808,2.318,2.808s2.318-.7,2.318-2.808v-4.13Z" transform="translate(-1034.555 -318.215)" fill="#fff"/>
          <path id="Trazado_19704" data-name="Trazado 19704" d="M1092.244,363.151v20.94h-4.026V355.18h5.613l4.6,17.3v-17.3h3.986v28.911h-4.6Z" transform="translate(-1041.809 -318.364)" fill="#fff"/>
          <path id="Trazado_19705" data-name="Trazado 19705" d="M1113.508,355.18h4.474v28.911h-4.474Z" transform="translate(-1049.69 -318.364)" fill="#fff"/>
          <path id="Trazado_19706" data-name="Trazado 19706" d="M1137.542,373.161V377c0,4.667-2.278,7.269-6.67,7.269s-6.67-2.6-6.67-7.269V361.968c0-4.667,2.278-7.269,6.67-7.269s6.67,2.6,6.67,7.269v2.809h-4.229v-3.1c0-2.106-.9-2.85-2.319-2.85s-2.318.743-2.318,2.85v15.612c0,2.106.9,2.808,2.318,2.808s2.319-.7,2.319-2.808v-4.13Z" transform="translate(-1053.022 -318.215)" fill="#fff"/>
          <path id="Trazado_19707" data-name="Trazado 19707" d="M1161.486,384.091h-4.514l-.773-5.246h-5.491l-.772,5.246h-4.108l4.555-28.911h6.549Zm-10.208-9.169h4.311l-2.155-14.621Z" transform="translate(-1059.761 -318.364)" fill="#fff"/>
        </g>
      </g>
    </g>
    <g id="Grupo_13325" data-name="Grupo 13325" transform="translate(915.665 348.98)">
      <path id="Trazado_19708" data-name="Trazado 19708" d="M969.839,557.443s-.852,23.98-1.231,31.636-.947,31.853-.947,31.853h3.977s9.09-51.3,9.469-53.6l4.734,53.6H990.2s2.462-32.006,2.462-39.663V557.38Z" transform="translate(-965.104 -498.168)" fill="#2d2e70"/>
      <path id="Trazado_19709" data-name="Trazado 19709" d="M994.07,649.7v3.675h8.711s.189-.766-1.326-1.838a21.945,21.945,0,0,0-3.22-1.837Z" transform="translate(-973.334 -526.936)" fill="#233342"/>
      <path id="Trazado_19710" data-name="Trazado 19710" d="M967.273,649.7l-.821,2.657a.786.786,0,0,0,.75,1.018h6.889a1.821,1.821,0,0,0-.758-2.406c-1.515-1.072-1.894-1.269-1.894-1.269Z" transform="translate(-964.717 -526.936)" fill="#233342"/>
      <path id="Trazado_19711" data-name="Trazado 19711" d="M990.649,514.361c.947-2.273,9.374-5.966,9.374-5.966l-3.5-6.723-8.143,2.841s-14.961.189-18.37,1.7-6.06,21.588-6.06,21.588l3.977,11.93s14.2,7.386,23.672,0C991.6,539.737,989.7,516.634,990.649,514.361Zm-21.494,19.6-.473-8.238,1.42-9.184C971.238,522.409,969.155,533.961,969.155,533.961Z" transform="translate(-963.947 -480.809)" fill="#e4bb4e"/>
      <path id="Trazado_19712" data-name="Trazado 19712" d="M1011.126,492.134l4.355-10.227a24.144,24.144,0,0,1,.758-6.628c.946-3.977.568-4.355,1.325-3.6s.189,3.03.189,3.03,3.409.757,2.273,3.409c-.94,2.191-2.137,11.756-2.524,15.009a3.655,3.655,0,0,1-.841,1.93L1014.169,498Z" transform="translate(-978.649 -471.365)" fill="#edd2c0"/>
      <path id="Trazado_19713" data-name="Trazado 19713" d="M983.959,504.594l-.067-4.158H989V504.3Z" transform="translate(-970.162 -480.423)" fill="#edd2c0"/>
      <path id="Trazado_19714" data-name="Trazado 19714" d="M984.157,498.276s-3.6-1.326-4.355-4.545c0,0-1.137-.379-1.137-2.273s1.137-1.514,1.137-1.514,9.847-.189,10.226,0,.947-.379.947,1.894a2.1,2.1,0,0,1-1.136,1.7s-.947,3.6-3.22,4.735S984.157,498.276,984.157,498.276Z" transform="translate(-968.533 -477.128)" fill="#edd2c0"/>
      <path id="Trazado_19715" data-name="Trazado 19715" d="M986.068,493.961a2.763,2.763,0,0,1-1.644-.119c-1.582-.62-4.868-2.347-4.667-5.97.189-3.408-.757-4.923,1.894-7.574a4.339,4.339,0,0,1,5.3-.758c.947.379,3.22.189,3.6,1.7a12.164,12.164,0,0,1,.379,5.3C990.57,488.35,991.24,492.73,986.068,493.961Z" transform="translate(-968.869 -473.73)" fill="#363636"/>
    </g>
    <g id="Grupo_13327" data-name="Grupo 13327" transform="translate(1034.064 355.262)">
      <path id="Trazado_19716" data-name="Trazado 19716" d="M1170.481,505.674a2.6,2.6,0,0,1-.723.316l-.019.005c-1.551.425-3.974,1.28-4.762.888a.293.293,0,0,1-.092-.456,16.536,16.536,0,0,0,1.324-3.565.3.3,0,0,0-.25-.35,5.979,5.979,0,0,1-3.562-1.417.333.333,0,0,1-.067-.135,10.255,10.255,0,0,1-.262-2.886c0-.124.453-3.28.46-3.3.23-.369.907-4.439,1.069-4.9a.277.277,0,0,1,.235-.19c.776-.1,3.891-.47,4.09-.408.234.069,5.89,1.943,6.026,2.111a14.144,14.144,0,0,1-.425,8.16,5.438,5.438,0,0,1-2.165,2.644l0,0S1170.031,504.49,1170.481,505.674Z" transform="translate(-1144.08 -483.223)" fill="#edbc9c"/>
      <path id="Trazado_19717" data-name="Trazado 19717" d="M1169.866,575.638c.429-.2,2.151-1.17,3.243-4.249a.3.3,0,0,0-.12-.357c-1.663-1.054-13.251-8.3-16.025-7.417-.851.275-2.462,27.232-2.449,27.807.006.284-.012,3.205,0,3.545.183,4.592,1.793,27.451,1.972,29.985a.292.292,0,0,0,.245.269,19.257,19.257,0,0,0,3.149.208l.3-.259c.725-6.134,3.884-17.679,2.294-24.914-.02-.089-.03-.178-.047-.267-.01-.144-.028-.328-.057-.573-.384-3.2-.4-2.266.48-6.3a.345.345,0,0,1,.013-.045c1.958-5.042,5.648-14.236,6.863-17.281A.27.27,0,0,1,1169.866,575.638Z" transform="translate(-1141.728 -506.37)" fill="#282a58"/>
      <g id="Grupo_13326" data-name="Grupo 13326" transform="translate(15.842 54.215)">
        <path id="Trazado_19718" data-name="Trazado 19718" d="M1187.462,620.552a.3.3,0,0,1-.1.357,6.957,6.957,0,0,1-2.987,1.386c0-.006,0-.01-.01-.015-.408-.642-13.2-20.845-15.656-24.764-.05-.084-.1-.164-.145-.234-.01-.014-.025-.019-.025-.039a4.723,4.723,0,0,1-.4-.782c-.02-.05-.045-.1-.06-.14a2.152,2.152,0,0,1-.129-.418c-.02-.085-.034-.165-.05-.254,0-.01-.01-.025-.01-.04-.344-1.743-1.161-4.731-2.151-8.212-.563-1.972-1.176-4.1-1.788-6.244-.488-1.683-.971-3.356-1.415-4.945l-3.571-13.89a.3.3,0,0,1,.269-.371l2.864-.19a32.418,32.418,0,0,0,9.02-2.485.3.3,0,0,1,.33.067c4.17,4.17,3.377,9.4,2.869,12.014,0,0,0,.01,0,.02a14.014,14.014,0,0,0-.2,3.651c.289,3.762.846,10.787.9,15.672v.012A12.53,12.53,0,0,0,1178,597.2a14.884,14.884,0,0,1,1.479,1.867C1183.625,605.331,1185.158,615.067,1187.462,620.552Z" transform="translate(-1158.955 -559.248)" fill="#2d2e70"/>
      </g>
      <path id="Trazado_19719" data-name="Trazado 19719" d="M1175.12,527.751c-.015,1.539-.107,3.07-.227,4.544-.163,1.808-.383,3.531-.61,5.09-.453,3.131-.766,7.552-.854,8.875a.622.622,0,0,1-.389.54c-.132.052-.266.1-.4.155-6.493,2.375-16.049.355-16.049.355-.4.028-.794-.284-.638-1.035a37.018,37.018,0,0,0,.695-3.906c-.021-.539.135-2.368.44-4.9.106-.9.234-1.879.383-2.928.12-.887.262-1.822.411-2.786.178-1.12.326-2.219.475-3.29.163-1.212.319-2.389.49-3.551a46.673,46.673,0,0,1,1.2-5.8,24.142,24.142,0,0,1,1.766-4.516c1.808-3.48,6.189-4.026,6.947-4.1a.279.279,0,0,1,.2.05c3.268,2.183,4.934,5.94,5.671,10.194A38.752,38.752,0,0,1,1175.12,527.751Z" transform="translate(-1142.166 -489.843)" fill="#e4bb4e"/>
      <path id="Trazado_19720" data-name="Trazado 19720" d="M1162.721,522.33c-.284-2.637-3.069-2.155-3.573-1.836-.581.355-2.042,1.5-3.68,6.352-1.127,3.346-2.937,4.79-3.354,6.4-.135.482-.32,1.063-.468,1.552l0,0a19.892,19.892,0,0,1-1.825,3.816c-1.35,1.958-5.985,9.116-8.616,12.615a6.056,6.056,0,0,1-1.373,1.389c-.573.3-1.417.918-1.99,1.155a.454.454,0,0,0-.1.061h0a4.354,4.354,0,0,0-1.808,1.565h.877c-.306.748-.5,1.5-.32,1.671a4.857,4.857,0,0,0,3.864.262c1.258-.617.789-1.462,1.1-1.969a26.791,26.791,0,0,1,2.031-2.766c1.627-1.786,3.448-3.293,6.055-5.941a45.625,45.625,0,0,0,6.2-7.405,30.607,30.607,0,0,0,1.61-2.843h0c1.782-3.646,4.393-8.16,5.029-11.5A13.924,13.924,0,0,0,1162.721,522.33Z" transform="translate(-1135.942 -492.877)" fill="#edbc9c"/>
      <path id="Trazado_19721" data-name="Trazado 19721" d="M1158.429,532.357c1.051,1.273,5.237,2.694,6.978,2.813.971-2.526,7.369-15.434,3.832-16.853C1165.338,516.752,1159.772,527.548,1158.429,532.357Z" transform="translate(-1142.949 -492.23)" fill="#cf8620"/>
      <path id="Trazado_19722" data-name="Trazado 19722" d="M1158.144,651.868l.679,2.173a1.208,1.208,0,0,1-1.152,1.568h-10.047s-.234-1.87,2.1-2.338a24.047,24.047,0,0,0,4.442-1.4Z" transform="translate(-1139.58 -533.895)" fill="#1f2045"/>
      <path id="Trazado_19723" data-name="Trazado 19723" d="M1195.945,647.148l1.328,1.849a1.208,1.208,0,0,1-.6,1.851l-9.536,3.161s-.811-1.7,1.261-2.881a24.028,24.028,0,0,0,3.775-2.729Z" transform="translate(-1151.846 -532.424)" fill="#1f2045"/>
      <path id="Trazado_19724" data-name="Trazado 19724" d="M1171.682,498.75s5.639-3.788,5.6-9.157-9.595-4.049-12.82-9.1c0,0-5.254,2.609-.81,7.191,2.478,2.555,6.685,2.713,6.685,2.713l-.726,3.337s1.487-2.184,2.461-1.978C1173.944,492.15,1173.559,496.643,1171.682,498.75Z" transform="translate(-1144.02 -480.491)" fill="#1f2045"/>
    </g>
    <g id="Grupo_13386" data-name="Grupo 13386" transform="translate(1122.841 404.049)">
      <g id="Grupo_13384" data-name="Grupo 13384" transform="translate(0)">
        <g id="Grupo_13381" data-name="Grupo 13381" transform="translate(13.219)">
          <path id="Trazado_19755" data-name="Trazado 19755" d="M1288.561,553.552c5.978-6.087,10.426,1.645,9.8,9.405s-7.644,35.424-5.5,44.836a15.61,15.61,0,0,1,.31,1.7H1291.9q-.162-.25-.336-.548C1284.8,597.4,1280.332,561.931,1288.561,553.552Z" transform="translate(-1284.11 -551.362)" fill="#6459f2" fill-rule="evenodd"/>
          <path id="Trazado_19756" data-name="Trazado 19756" d="M1294.244,611c-7.6-21.578.512-54.448.538-54.554a.344.344,0,1,1,.668.162c-.026.105-8.154,33.047-.485,54.392Z" transform="translate(-1286.256 -552.864)" fill="#1f2045" fill-rule="evenodd"/>
        </g>
        <g id="Grupo_13382" data-name="Grupo 13382" transform="translate(20.212 14.763)">
          <path id="Trazado_19757" data-name="Trazado 19757" d="M1306.474,573.649c6.3-3.338,7.888,3.944,5.433,9.969-2.293,5.623-13.408,23.647-15.421,32.561h-2C1293.117,603.908,1298.367,577.943,1306.474,573.649Z" transform="translate(-1294.268 -572.808)" fill="#9390fb" fill-rule="evenodd"/>
          <path id="Trazado_19758" data-name="Trazado 19758" d="M1295.587,617.464c.831-18.555,14.148-40.319,14.193-40.394a.287.287,0,1,1,.49.3c-.045.074-13.291,21.723-14.114,40.1Z" transform="translate(-1294.679 -574.093)" fill="#1f2045" fill-rule="evenodd"/>
        </g>
        <g id="Grupo_13383" data-name="Grupo 13383" transform="translate(0 23.429)">
          <path id="Trazado_19759" data-name="Trazado 19759" d="M1270.7,585.988c-6.106-2.667-7.074,4.231-4.361,9.673,2.1,4.2,10.423,15.9,14.649,24.44h3.723C1283.631,607.77,1277.606,589,1270.7,585.988Z" transform="translate(-1264.906 -585.396)" fill="#9390fb" fill-rule="evenodd"/>
          <path id="Trazado_19760" data-name="Trazado 19760" d="M1284.629,621.313c-3.655-15.858-15.182-31.858-15.226-31.918a.268.268,0,1,0-.437.312c.043.06,11.467,15.919,15.118,31.607Z" transform="translate(-1266.156 -586.607)" fill="#1f2045" fill-rule="evenodd"/>
        </g>
      </g>
      <g id="Grupo_13385" data-name="Grupo 13385" transform="translate(3.717 50.989)">
        <path id="Trazado_19761" data-name="Trazado 19761" d="M1272.3,626.662l5.631,21.593h17.147l5.183-21.593Z" transform="translate(-1270.926 -625.815)" fill="#2d2e70"/>
        <path id="Trazado_19762" data-name="Trazado 19762" d="M1299.96,627.126h-28.807a.847.847,0,1,1,0-1.694h28.807a.847.847,0,1,1,0,1.694Z" transform="translate(-1270.306 -625.432)" fill="#1f2045"/>
      </g>
    </g>
  </g>
</svg>
