<svg xmlns="http://www.w3.org/2000/svg" width="313" height="317" viewBox="0 0 313 317">
  <g id="Grupo_1426" data-name="Grupo 1426" transform="translate(-725 -670)">
    <g id="Rectángulo_24" data-name="Rectángulo 24" transform="translate(725 763)" fill="#f4fdff" stroke="#92d4e3" stroke-width="1">
      <rect width="313" height="193" rx="13" stroke="none"/>
      <rect x="0.5" y="0.5" width="312" height="192" rx="12.5" fill="none"/>
    </g>
    <text id="Ficha_técnica_overoles" data-name="Ficha técnica overoles" transform="translate(882 828)" fill="#00223d" font-size="20" font-family="Helvetica-Bold, Helvetica" font-weight="700"><tspan x="-107.271" y="0">Ficha técnica overoles</tspan></text>
    <text id="Ficha_técnica_para_la_realización_de_overoles_hospitalarios" data-name="Ficha técnica para la realización 
de overoles hospitalarios" transform="translate(882 867)" fill="#00223d" font-size="18" font-family="Helvetica"><tspan x="-131.067" y="0">Ficha técnica para la realización </tspan><tspan x="-99.558" y="25">de overoles hospitalarios</tspan></text>
    <g id="Grupo_872" data-name="Grupo 872" transform="translate(430 -2066)">
      <g id="Elipse_547" data-name="Elipse 547" transform="translate(390 2736)" fill="#92d4e3" stroke="#4bbcc7" stroke-width="3">
        <circle cx="61.5" cy="61.5" r="61.5" stroke="none"/>
        <circle cx="61.5" cy="61.5" r="60" fill="none"/>
      </g>
      <path id="Trazado_11121" data-name="Trazado 11121" d="M77.656,29.342a.571.571,0,0,0,0-.114,9.42,9.42,0,0,0-7.693-7.792l-2.143-.363a48.787,48.787,0,0,0-.114-10.722C66.873,5.573,63.428,0,56.333,0S45.793,5.573,44.975,10.351a48.858,48.858,0,0,0-.114,10.73l-2.143.356a9.42,9.42,0,0,0-7.693,7.792.57.57,0,0,0,0,.114L32.428,58.3a1.515,1.515,0,0,0,1.348,1.636l7.829.863-.416,34.6A1.514,1.514,0,0,0,42.7,96.922H69.963a1.514,1.514,0,0,0,1.514-1.514l-.416-34.559,7.829-.878a1.513,1.513,0,0,0,1.348-1.664v0ZM48,10.851c.288-1.832,1.795-7.822,8.329-7.822s8.041,5.989,8.329,7.822a45.76,45.76,0,0,1,.1,9.722l-.606-.129a1.377,1.377,0,0,0-.25,0h-2.87a10.444,10.444,0,0,0,1.355-5.3c0-2.06,0-8.329-6.058-8.329s-6.058,6.27-6.058,8.329a10.444,10.444,0,0,0,1.355,5.3h-2.87a1.462,1.462,0,0,0-.257,0l-.636.106A45.253,45.253,0,0,1,48,10.851Zm5.3,4.293c0-4.892,1.431-5.3,3.029-5.3s3.029.409,3.029,5.3c0,3.127-1.6,5.3-3.029,5.3S53.3,18.271,53.3,15.144ZM35.578,57.123l2.446-27.456a6.391,6.391,0,0,1,5.217-5.247l5.656-.947h5.921V46.189H44.808l.167-13.63a1.514,1.514,0,1,0-3.029,0l-.3,25.245Zm9.2-7.905H54.819V93.893h-10.6ZM57.848,93.893V49.218H67.888l.56,44.675Zm13.175-36.1-.3-25.23a1.514,1.514,0,0,0-1.514-1.514h0a1.514,1.514,0,0,0-1.514,1.514l.167,13.63H57.848V23.473h5.929l5.649.947a6.391,6.391,0,0,1,5.217,5.247l2.446,27.456Z" transform="translate(395.769 2747.823)" fill="#1b8da7"/>
      <rect id="Rectángulo_18" data-name="Rectángulo 18" width="16" height="3" transform="translate(430 2829)" fill="#92d4e3"/>
      <rect id="Rectángulo_19" data-name="Rectángulo 19" width="16" height="3" transform="translate(468 2782)" fill="#92d4e3"/>
      <rect id="Rectángulo_20" data-name="Rectángulo 20" width="16" height="3" transform="translate(416 2795)" fill="#92d4e3"/>
    </g>
    <rect id="Rectángulo_901" data-name="Rectángulo 901" width="193" height="54" rx="13" transform="translate(786 933)" fill="#b7cfdf"/>
    <g id="Grupo_867" data-name="Grupo 867" transform="translate(-4.938 -1657.219)">
      <path id="Trazado_1157" data-name="Trazado 1157" d="M815.673,2604.383a1.576,1.576,0,0,0-1.572,1.571v22a1.577,1.577,0,0,0,1.572,1.572h15.714a1.576,1.576,0,0,0,1.571-1.572v-17.285l-6.286-6.286Z" transform="translate(-5.02)" fill="#f2f2f2"/>
      <path id="Trazado_1160" data-name="Trazado 1160" d="M824.8,2643.639a.786.786,0,0,1-.786.786H806.724a.786.786,0,0,1-.786-.786v-7.857a.786.786,0,0,1,.786-.785H824.01a.786.786,0,0,1,.786.785Z" transform="translate(0 -18.827)" fill="#f15642"/>
      <g id="Grupo_855" data-name="Grupo 855" transform="translate(809.363 2618.836)">
        <path id="Trazado_1161" data-name="Trazado 1161" d="M814.834,2642.358a.432.432,0,0,1,.427-.434h1.451a1.572,1.572,0,0,1,0,3.143h-1.048v.83a.392.392,0,0,1-.35.431.371.371,0,0,1-.052,0,.423.423,0,0,1-.427-.42v-3.552Zm.829.357v1.565h1.049a.786.786,0,0,0,0-1.565Z" transform="translate(-814.834 -2641.924)" fill="#fff"/>
        <path id="Trazado_1162" data-name="Trazado 1162" d="M826.248,2646.407a.393.393,0,0,1-.432-.349c0-.015,0-.029,0-.043v-3.569a.427.427,0,0,1,.433-.393h1.439c2.871,0,2.808,4.347.057,4.347Zm.393-3.58v2.815h1.043c1.7,0,1.772-2.815,0-2.815Z" transform="translate(-821.587 -2642.003)" fill="#fff"/>
        <path id="Trazado_1163" data-name="Trazado 1163" d="M839.3,2642.884v1h1.6a.485.485,0,0,1,.453.446.438.438,0,0,1-.453.377h-1.6v1.319a.372.372,0,0,1-.355.388h-.021a.4.4,0,0,1-.443-.35c0-.013,0-.026,0-.039v-3.569a.4.4,0,0,1,.446-.393h2.205a.393.393,0,0,1,.437.343.455.455,0,0,1,0,.05.434.434,0,0,1-.44.427H839.3Z" transform="translate(-829.377 -2642.007)" fill="#fff"/>
      </g>
      <path id="Trazado_1164" data-name="Trazado 1164" d="M829.03,2658.231H814.1v.786H829.03a.786.786,0,0,0,.786-.786v-.786A.786.786,0,0,1,829.03,2658.231Z" transform="translate(-5.02 -32.634)" fill="#e6e6e6"/>
      <path id="Trazado_1158" data-name="Trazado 1158" d="M848.327,2610.669h4.714l-6.286-6.286v4.714A1.577,1.577,0,0,0,848.327,2610.669Z" transform="translate(-25.103)" fill="#b3b3b3"/>
    </g>
    <text id="Descargar" transform="translate(883 967)" fill="#00223d" font-size="20" font-family="Helvetica-Bold, Helvetica" font-weight="700"><tspan x="-48.921" y="0">Descargar</tspan></text>
  </g>
</svg>
