<svg xmlns="http://www.w3.org/2000/svg" width="207.076" height="183.177" viewBox="0 0 207.076 183.177">
  <g id="Grupo_13518" data-name="Grupo 13518" transform="translate(-1129.041 -679.82)">
    <path id="Trazado_19961" data-name="Trazado 19961" d="M1282,711.671c2.279-6.867,38.5-15.441,45.811-10.74,5.106,3.285,12.74,45.476,5.017,50.714C1321.273,759.481,1279.149,720.259,1282,711.671Z" fill="#e6e4c8"/>
    <path id="Trazado_19962" data-name="Trazado 19962" d="M1139.309,802.422c-3.475-23.948,73.263-85.147,93.026-84.449,36.819,1.3,108.729,89.115,92.615,119.479C1312.809,860.331,1144.868,840.725,1139.309,802.422Z" fill="#e6e4c8"/>
    <g id="Grupo_13517" data-name="Grupo 13517">
      <g id="Grupo_13471" data-name="Grupo 13471">
        <g id="Grupo_13470" data-name="Grupo 13470">
          <g id="Grupo_13469" data-name="Grupo 13469">
            <rect id="Rectángulo_3208" data-name="Rectángulo 3208" width="199.035" height="6.445" transform="translate(1129.041 832.686)" fill="#976572"/>
          </g>
        </g>
      </g>
      <g id="Grupo_13474" data-name="Grupo 13474">
        <g id="Grupo_13472" data-name="Grupo 13472">
          <rect id="Rectángulo_3209" data-name="Rectángulo 3209" width="185.541" height="23.867" transform="translate(1135.788 839.129)" fill="#976572"/>
        </g>
        <g id="Grupo_13473" data-name="Grupo 13473" opacity="0.5" style="mix-blend-mode: multiply;isolation: isolate">
          <rect id="Rectángulo_3210" data-name="Rectángulo 3210" width="185.541" height="9.319" transform="translate(1135.788 839.129)" fill="#976572"/>
        </g>
      </g>
      <g id="Grupo_13497" data-name="Grupo 13497">
        <g id="Grupo_13477" data-name="Grupo 13477">
          <g id="Grupo_13475" data-name="Grupo 13475">
            <path id="Trazado_19963" data-name="Trazado 19963" d="M1285.089,810.311c-4.222,2.6-13.519,1.87-15.6,1.4,0,0-36.259-6.079-46.659-20.852-6.4-9.088-10.1-23.311-9.531-36.3.537-12,7.1-28.617,14.793-11.324,3.432,7.71,7.393,26.232,13.551,34.27,1.342,1.747,20.2,22.031,36.438,23.633,9.527.943,11.674-.854,13.1,1.382C1292.206,804.137,1290.206,807.164,1285.089,810.311Z" fill="#e9ab9e"/>
            <path id="Trazado_19964" data-name="Trazado 19964" d="M1228.2,792.924a1.727,1.727,0,0,1,1.988-1.483,1.312,1.312,0,0,1,.8,2.049.82.82,0,0,1-1.506-.48c.013-.138.223-.1.244.045.075.511.733.361.855-.015a.748.748,0,0,0-.261-.812.88.88,0,0,0-1.156.161,1.286,1.286,0,0,0-.316,1.225,1.739,1.739,0,0,0,.982.974c.1.051.057.223-.039.218A1.742,1.742,0,0,1,1228.2,792.924Z" fill="#c27c88"/>
          </g>
          <g id="Grupo_13476" data-name="Grupo 13476">
            <path id="Trazado_19965" data-name="Trazado 19965" d="M1258.919,810.917c-2.828-.722-27.064-7.171-35.633-17.812s-13.635-25.308-10.373-42.808c2.178-11.69,5.1-19.777,9.841-16.185,2.356,1.786,6.008,7.159,8.559,15.018,5.294,16.307,8.751,24.042,11,26.792s22.124,18.3,24.133,19.463S1261.066,811.464,1258.919,810.917Z" fill="#d67e5a"/>
            <path id="Trazado_19966" data-name="Trazado 19966" d="M1263.548,792.359c-.708-.108-3.767,8.875-4.9,10.375s-5.525,6.75-5.148,7.25,6.529,2.569,7.345,2.191,4.851-6,5.941-8.316,1.781-7.812,1.405-8.5A14.485,14.485,0,0,0,1263.548,792.359Z" fill="#cc4d35"/>
          </g>
        </g>
        <g id="Grupo_13478" data-name="Grupo 13478">
          <path id="Trazado_19967" data-name="Trazado 19967" d="M1205.331,725.821c12.662-.923,20.212,10.5,25.32,24.857,6.638,18.662,12.806,78.541,11.066,82.008h-76.8c-1.336-1.844,11.665-69.386,18.586-86.814C1186.235,738.985,1194.347,726.622,1205.331,725.821Z" fill="#d67e5a"/>
          <path id="Trazado_19968" data-name="Trazado 19968" d="M1232.159,754.957c.693,2.692,1.361,5.374,1.936,8.069a26.084,26.084,0,0,0,.2-2.648c0-.175.248-.166.266,0a16.6,16.6,0,0,1,.036,5.126c.638,3.4,5.036,35.317,5.145,38.831.007.219-.346.275-.388.053-1.32-6.923-6.038-42.45-7.534-49.337C1231.769,754.829,1232.1,754.734,1232.159,754.957Z" fill="#cc4d35"/>
        </g>
        <g id="Grupo_13489" data-name="Grupo 13489">
          <g id="Grupo_13479" data-name="Grupo 13479">
            <path id="Trazado_19969" data-name="Trazado 19969" d="M1226.1,718.092l-5.159,16.06-.006.027-.724,2.256s-.228,6.494-5.39,6.047c-8.8-.763-12.739-10.982-13-12.366-.134-.71,1.166-6.617,2.46-12.21,1.237-5.341,2.474-10.407,2.474-10.407l2.158,1.185Z" fill="#e9ab9e"/>
            <path id="Trazado_19970" data-name="Trazado 19970" d="M1226.1,718.092l-5.159,16.06-.006.027a32.946,32.946,0,0,1-13.2-10.451,31.659,31.659,0,0,1-3.458-5.822c1.237-5.341,2.474-10.407,2.474-10.407l2.158,1.185Z" fill="#c27c88"/>
          </g>
          <g id="Grupo_13488" data-name="Grupo 13488">
            <path id="Trazado_19971" data-name="Trazado 19971" d="M1238.771,691.634a14.368,14.368,0,0,1,3.473,6.741c.61,3.774-4.248,12.3-4.248,12.3Z" fill="#1a2c6d"/>
            <g id="Grupo_13480" data-name="Grupo 13480">
              <path id="Trazado_19972" data-name="Trazado 19972" d="M1211.583,685.882c-5.589,6.146-8.761,25.125-5.313,33.072,2.361,5.442,10.1,9.46,17.01,9.01a12.3,12.3,0,0,0,8.323-3.669c7.085-7.477,10.375-29.964,7.047-34.778C1232.772,681.017,1218.418,678.366,1211.583,685.882Z" fill="#e9ab9e"/>
            </g>
            <g id="Grupo_13485" data-name="Grupo 13485">
              <g id="Grupo_13481" data-name="Grupo 13481">
                <path id="Trazado_19973" data-name="Trazado 19973" d="M1225.429,707.176c0-.049-.109.034-.12.084-.258,1.22-.76,2.574-1.954,2.708-.037,0-.049.065-.007.07C1224.731,710.177,1225.379,708.373,1225.429,707.176Z" fill="#1a2c6d"/>
                <path id="Trazado_19974" data-name="Trazado 19974" d="M1224.658,705.646c-1.912-.626-3.023,3.243-1.252,3.823C1225.149,710.039,1226.26,706.17,1224.658,705.646Z" fill="#1a2c6d"/>
              </g>
              <g id="Grupo_13482" data-name="Grupo 13482">
                <path id="Trazado_19975" data-name="Trazado 19975" d="M1232.83,709.354c.022-.044.077.083.062.132-.382,1.187-.62,2.612.35,3.321.03.022.009.081-.029.064C1231.943,712.3,1232.277,710.417,1232.83,709.354Z" fill="#1a2c6d"/>
                <path id="Trazado_19976" data-name="Trazado 19976" d="M1234.26,708.409c1.969.407,1.01,4.317-.815,3.939C1231.649,711.977,1232.608,708.068,1234.26,708.409Z" fill="#1a2c6d"/>
              </g>
              <path id="Trazado_19977" data-name="Trazado 19977" d="M1222.153,718.142c.206.363.382.832.806.993a3.283,3.283,0,0,0,1.375.068.044.044,0,0,1,.034.077,1.682,1.682,0,0,1-1.708.214,1.329,1.329,0,0,1-.638-1.331C1222.023,718.088,1222.123,718.089,1222.153,718.142Z" fill="#c27c88"/>
              <path id="Trazado_19978" data-name="Trazado 19978" d="M1223.639,703.438a15.677,15.677,0,0,0,1.65-.1,2.673,2.673,0,0,0,1.663-.421.85.85,0,0,0,.153-1.028,2.112,2.112,0,0,0-1.985-.8,3.1,3.1,0,0,0-2.087.8A.908.908,0,0,0,1223.639,703.438Z" fill="#1a2c6d"/>
              <path id="Trazado_19979" data-name="Trazado 19979" d="M1236.315,706.891a15.645,15.645,0,0,1-1.423-.841,2.664,2.664,0,0,1-1.288-1.134.851.851,0,0,1,.334-.984,2.111,2.111,0,0,1,2.129.2,3.1,3.1,0,0,1,1.493,1.662A.908.908,0,0,1,1236.315,706.891Z" fill="#1a2c6d"/>
              <path id="Trazado_19980" data-name="Trazado 19980" d="M1227.212,716.81s-1.768,2.119-3.507,1.06c-1.311-.8.326-3.441.326-3.441A6.49,6.49,0,0,0,1227.212,716.81Z" fill="#fff"/>
              <g id="Grupo_13484" data-name="Grupo 13484">
                <g id="Grupo_13483" data-name="Grupo 13483">
                  <path id="Trazado_19981" data-name="Trazado 19981" d="M1223.889,714.505a4.236,4.236,0,0,0,2.2,2.6,5.31,5.31,0,0,0,1.448.489,1.52,1.52,0,0,0,.29.049c.09.014.172.026.274.035a.31.31,0,0,0,.317-.2l0-.009a.583.583,0,0,0,.024-.126l0-.008.029-.106c.29-.916.6-2.345.6-2.345.288.266,1.786,1.533,1.9,1.043a63.875,63.875,0,0,0,1.963-12.8.116.116,0,0,0-.228-.032c-1.027,3.867-1.366,7.888-2.336,11.789a7.432,7.432,0,0,0-1.758-1.138c-.142,0-.557,2.773-.72,3.174a.142.142,0,0,1-.02.041,5.885,5.885,0,0,1-3.848-2.524C1223.962,714.335,1223.844,714.389,1223.889,714.505Z" fill="#c27c88"/>
                </g>
              </g>
            </g>
            <g id="Grupo_13486" data-name="Grupo 13486">
              <path id="Trazado_19982" data-name="Trazado 19982" d="M1206.167,705.669c1.693,1.077,5.853-10.627,5.853-10.627s10.231-1.342,12.53-5.39c0,0,1.77,4.752,4.762,6.952s13.645,3.209,14.707,2.755c.768-.328,1.574-11.291-5.026-16.659-4.342-3.532-10.192-3.7-16.939-1.141,0,0-8.758-.972-12.807,4.045S1203.263,703.821,1206.167,705.669Z" fill="#1a2c6d"/>
              <path id="Trazado_19983" data-name="Trazado 19983" d="M1238.451,699.671c-3.818-.556-8.317-.839-10.755-4.217a23.376,23.376,0,0,1-3.374-8.381.356.356,0,0,0-.7.094,14.843,14.843,0,0,0,3.9,9.526c2.726,2.871,7.308,2.848,11.005,3.12C1238.671,699.823,1238.589,699.691,1238.451,699.671Z" fill="#1a2c6d"/>
            </g>
            <g id="Grupo_13487" data-name="Grupo 13487">
              <path id="Trazado_19984" data-name="Trazado 19984" d="M1208.354,705.929s-1.638-7.513-4.882-7.165-3.707,10.054-1.091,12.5a3.413,3.413,0,0,0,4.928.07Z" fill="#e9ab9e"/>
              <path id="Trazado_19985" data-name="Trazado 19985" d="M1203.408,701.55c-.048-.026-.087.04-.051.075,1.8,1.787,2.107,4.279,2.036,6.7a1.884,1.884,0,0,0-2.4-1.562c-.073.016-.056.128.011.14a2.1,2.1,0,0,1,1.85,1.567,10.169,10.169,0,0,1,.3,2.152c.02.237.414.279.434.025l0-.058C1206.8,707.845,1206.265,703.07,1203.408,701.55Z" fill="#c27c88"/>
            </g>
          </g>
        </g>
        <path id="Trazado_19986" data-name="Trazado 19986" d="M1276.019,798.547c-6.66-1.778-26.118.216-35.643,8.108s-29.926,8.326-29.926,8.326l10.935,15.255-16.31-11.05s-11.384,8.438-14.117,13.712-5.607,16.649-9.857,17.274c0,0,32.5,13.375,57.375,10.5,0,0,10.3-25.6,20.2-27.774s17.054-20.73,18.8-23.853,5.382-7.3,8.254-7.649S1281.875,800.109,1276.019,798.547Z" fill="#fff"/>
        <g id="Grupo_13495" data-name="Grupo 13495">
          <path id="Trazado_19987" data-name="Trazado 19987" d="M1192.476,801.13c-1.427-1.687-6.825-2.7-7.39-2.74s3.424,4.635,4.422,5c1.708.625,5.567,3.545,6.416,3.073C1196.406,806.2,1195.1,804.235,1192.476,801.13Z" fill="#e9ab9e"/>
          <g id="Grupo_13490" data-name="Grupo 13490">
            <path id="Trazado_19988" data-name="Trazado 19988" d="M1216.646,825.494s-4.633-5.1-9.213-10.088c-2.443-2.66-4.869-5.289-6.571-7.1a31.344,31.344,0,0,0-2.332-2.369c-.4-.054-2.227.331-3-.414s-1.427.609-1.506.7c-.058.064,1.206.5,2.374,1.27a5.853,5.853,0,0,1,1.262,1.079,15.814,15.814,0,0,1,2.051,3.875,24.118,24.118,0,0,0,2.05,2c3.853,3.558,11.814,10.576,12.195,10.808A5,5,0,0,0,1216.646,825.494Z" fill="#4c60ad"/>
            <path id="Trazado_19989" data-name="Trazado 19989" d="M1189.067,812.535c.017-1.408-1.595-3.418-4.584-3.831s-5.061.913-5.3,2.995,1.671,4.308,4.241,4.663C1188.071,817,1189.048,813.942,1189.067,812.535Zm-5.489,2.942a3.592,3.592,0,0,1-3.256-3.58c.182-1.6,1.771-2.616,4.068-2.3s3.532,1.86,3.518,2.94S1187.144,815.97,1183.578,815.477Z" fill="#4c60ad"/>
            <path id="Trazado_19990" data-name="Trazado 19990" d="M1195.684,802.6a11.842,11.842,0,0,0-2.986-5.227c-1.757-1.707-5.208-4.358-7.693-2.233s.693,5.732,2.292,7.6c1.754,2.055,5.7,5.219,7.846,3.525C1196.066,805.544,1195.925,804.014,1195.684,802.6Zm-1.339,2.768c-1.682,1.222-5.074-1.609-6.407-3.171-1.214-1.421-4.119-4.745-2.232-6.36s5,.983,6.337,2.279a11.03,11.03,0,0,1,2.452,3.983C1194.905,803.505,1194.86,805,1194.345,805.373Z" fill="#4c60ad"/>
            <path id="Trazado_19991" data-name="Trazado 19991" d="M1207.433,815.406c-2.443-2.66-4.869-5.289-6.571-7.1-1.5-.273-3.183-.585-4.461-.814a5.853,5.853,0,0,1,1.262,1.079,15.814,15.814,0,0,1,2.051,3.875,24.118,24.118,0,0,0,2.05,2C1203.517,814.781,1205.453,815.058,1207.433,815.406Z" fill="#4c60ad" style="mix-blend-mode: multiply;isolation: isolate"/>
            <path id="Trazado_19992" data-name="Trazado 19992" d="M1220.052,817.722c-.254.015-22.265-5.8-22.568-5.787s-2.892,1.061-4.6,1.026a39.6,39.6,0,0,1-4.531-.374,4.955,4.955,0,0,1-.17-1.685,23.806,23.806,0,0,0,3.409.471c1.584.017,5.122-1.2,6.358-3,.094-.138,19.763,6.213,20.9,6.963A4.123,4.123,0,0,1,1220.052,817.722Z" fill="#4c60ad"/>
            <path id="Trazado_19993" data-name="Trazado 19993" d="M1200.806,811.432l-.063.027a.457.457,0,0,1-.457-.064l-.054-.042a.574.574,0,1,1,.574.079Z" fill="#4c60ad" style="mix-blend-mode: multiply;isolation: isolate"/>
          </g>
          <g id="Grupo_13494" data-name="Grupo 13494">
            <g id="Grupo_13491" data-name="Grupo 13491">
              <path id="Trazado_19994" data-name="Trazado 19994" d="M1190.5,730.686c-16.958,4.427-47.569,31.015-55.026,44.673-2.123,3.889,5.1,10.322,6.128,11.134,3.148,2.483,15.122-6.632,19.247-9.7,5.886-4.373,28.45-18.24,32.171-23.167C1199.2,745.452,1201.379,727.847,1190.5,730.686Z" fill="#e9ab9e"/>
            </g>
            <g id="Grupo_13493" data-name="Grupo 13493">
              <g id="Grupo_13492" data-name="Grupo 13492">
                <path id="Trazado_19995" data-name="Trazado 19995" d="M1136.134,778.077c.107,3.665,3.671,7.345,8.417,10.665a228.843,228.843,0,0,0,22.988,13.675c3.146,1.573,11.626-8.646,8.194-12.058-3.965-3.941-8.32-8.292-11.9-12.24-4.274-4.716-8.827-8.446-13.945-9.354C1144.341,767.78,1136.039,774.545,1136.134,778.077Z" fill="#e9ab9e"/>
              </g>
              <path id="Trazado_19996" data-name="Trazado 19996" d="M1173.324,788.289l9.756,8.386s.831.554,2.006,1.527c2.115,1.752,5.341,4.863,6.828,8.552,1.167,2.9,6.257,9.43,2.857,9.7-5.232.409-13.491-5.271-18.1-10.161l-12.637-5.516S1165.462,790.4,1173.324,788.289Z" fill="#e9ab9e"/>
              <path id="Trazado_19997" data-name="Trazado 19997" d="M1139.424,778.51a1.583,1.583,0,0,1,1.712,1.495,1.207,1.207,0,0,1-1.69,1.1.75.75,0,0,1,.144-1.439c.126-.015.132.18.007.226-.445.165-.185.725.176.762a.687.687,0,0,0,.68-.389.8.8,0,0,0-.365-1,1.184,1.184,0,0,0-1.161-.048,1.6,1.6,0,0,0-.689,1.066c-.027.1-.189.093-.2.006A1.6,1.6,0,0,1,1139.424,778.51Z" fill="#ab8177"/>
            </g>
            <path id="Trazado_19998" data-name="Trazado 19998" d="M1193.418,729.48c-14.79,2.753-52.837,32.3-59,44.817-5.275,10.71,32.855,30.406,34.842,30.132,4.594-.632,10.784-12.337,9.908-13.837s-14.242-13.42-14.947-14.295,20.915-12.126,28.87-20.659S1202.782,727.737,1193.418,729.48Z" fill="#d67e5a"/>
            <path id="Trazado_19999" data-name="Trazado 19999" d="M1177.248,767.958c3.79-3.616,10.95-7.947,15.509-10.454.113-.062.22.1.11.169-2.058,1.327-4.03,2.774-5.991,4.233a33.185,33.185,0,0,1,3.658-1.04c.115-.028.173.141.058.176-1.827.553-3.5,1.413-5.265,2.109a.2.2,0,0,1-.127-.005c-1.654,1.231-6.232,4.01-7.943,5.16C1176.967,768.5,1176.986,768.209,1177.248,767.958Z" fill="#cc4d35"/>
            <path id="Trazado_20000" data-name="Trazado 20000" d="M1195.617,729.663c-.1-.016-.141.123-.042.15,4.856,1.364,3.357,10.957,2.437,14.5a39.66,39.66,0,0,1-5.381,11.395c-.092.143.125.259.222.13a31.158,31.158,0,0,0,6.4-15.025C1199.619,737.685,1199.971,730.353,1195.617,729.663Z" fill="#cc4d35"/>
            <path id="Trazado_20001" data-name="Trazado 20001" d="M1162.039,801.984c.211.362,7.187,3.441,7.875,3.314s8.21-5.061,10.392-14.689c.17-.75-4.2-4.987-5.142-4.985s-4.292,7.1-5.521,8.923C1168.185,796.713,1161.6,801.234,1162.039,801.984Z" fill="#cc4d35"/>
          </g>
        </g>
        <g id="Grupo_13496" data-name="Grupo 13496">
          <path id="Trazado_20002" data-name="Trazado 20002" d="M1204.871,854.117c.05.03.11.07.16.1a19.243,19.243,0,0,1-1.75,2.46c-.1.11-.26-.04-.2-.16.45-.88.88-1.77,1.31-2.66C1204.551,853.937,1204.711,854.027,1204.871,854.117Z" fill="#f4f3e4"/>
          <path id="Trazado_20003" data-name="Trazado 20003" d="M1206.271,849.847a4.78,4.78,0,0,0,.8.43c-.41.9-.83,1.78-1.3,2.63-.24-.15-.47-.3-.71-.44C1205.461,851.6,1205.871,850.717,1206.271,849.847Z" fill="#f4f3e4"/>
          <path id="Trazado_20004" data-name="Trazado 20004" d="M1208.711,845.777c.09.07.18.15.27.21-.39.86-.77,1.74-1.16,2.61a3.272,3.272,0,0,0-.58-.34c-.06-.03-.11-.06-.17-.09.42-.88.84-1.76,1.29-2.63C1208.481,845.607,1208.591,845.7,1208.711,845.777Z" fill="#f4f3e4"/>
          <path id="Trazado_20005" data-name="Trazado 20005" d="M1210.571,841.517a3.123,3.123,0,0,0,.49.47c-.19.32-.37.63-.55.95-.26.46-.51.94-.75,1.42a1.729,1.729,0,0,0-.15-.13c-.13-.11-.25-.22-.39-.32C1209.641,843.1,1210.1,842.3,1210.571,841.517Z" fill="#f4f3e4"/>
          <path id="Trazado_20006" data-name="Trazado 20006" d="M1212.821,838.157c.17.16.34.31.52.45-.47.61-.91,1.24-1.34,1.89-.13-.12-.25-.24-.38-.36a1.094,1.094,0,0,0-.1-.11C1211.931,839.4,1212.371,838.767,1212.821,838.157Z" fill="#f4f3e4"/>
          <path id="Trazado_20007" data-name="Trazado 20007" d="M1215.261,835.2c.15.18.31.35.46.53-.47.51-.91,1.02-1.35,1.55-.16-.15-.33-.3-.5-.45C1214.3,836.267,1214.771,835.727,1215.261,835.2Z" fill="#f4f3e4"/>
          <path id="Trazado_20008" data-name="Trazado 20008" d="M1218.151,832.3c.14.16.29.33.43.5q-.87.81-1.68,1.65c-.15-.17-.32-.33-.48-.49C1216.981,833.387,1217.551,832.837,1218.151,832.3Z" fill="#f4f3e4"/>
          <path id="Trazado_20009" data-name="Trazado 20009" d="M1221.241,830.437c-.5.41-.99.84-1.47,1.26-.14-.15-.28-.29-.42-.43.52-.43,1.04-.84,1.58-1.24C1221.171,829.847,1221.471,830.247,1221.241,830.437Z" fill="#f4f3e4"/>
        </g>
      </g>
      <g id="Grupo_13514" data-name="Grupo 13514">
        <g id="Grupo_13505" data-name="Grupo 13505">
          <g id="Grupo_13498" data-name="Grupo 13498">
            <rect id="Rectángulo_3211" data-name="Rectángulo 3211" width="0.432" height="9" transform="translate(1145.18 814.647) rotate(-15.894)" fill="#4c60ad"/>
            <path id="Trazado_20010" data-name="Trazado 20010" d="M1146.265,814.337a.912.912,0,1,1-1.127-.627A.913.913,0,0,1,1146.265,814.337Z" fill="#d67e5a"/>
          </g>
          <g id="Grupo_13499" data-name="Grupo 13499">
            <rect id="Rectángulo_3212" data-name="Rectángulo 3212" width="9" height="0.432" transform="translate(1158.479 825.644) rotate(-28.816)" fill="#4c60ad"/>
            <path id="Trazado_20011" data-name="Trazado 20011" d="M1166.909,822.3a.913.913,0,1,1,.36-1.24A.913.913,0,0,1,1166.909,822.3Z" fill="#d67e5a"/>
          </g>
          <g id="Grupo_13500" data-name="Grupo 13500">
            <rect id="Rectángulo_3213" data-name="Rectángulo 3213" width="0.432" height="9" transform="translate(1134.837 821.875) rotate(-57.816)" fill="#4c60ad"/>
            <path id="Trazado_20012" data-name="Trazado 20012" d="M1135.438,820.92a.913.913,0,1,1-1.258.286A.912.912,0,0,1,1135.438,820.92Z" fill="#d67e5a"/>
          </g>
          <path id="Trazado_20013" data-name="Trazado 20013" d="M1163.843,828.579h-25.935a13.352,13.352,0,0,1,25.935,0Z" fill="#deb74a"/>
          <rect id="Rectángulo_3214" data-name="Rectángulo 3214" width="27.188" height="4.107" transform="translate(1137.282 828.579)" fill="#f5c1b8"/>
          <g id="Grupo_13501" data-name="Grupo 13501">
            <rect id="Rectángulo_3215" data-name="Rectángulo 3215" width="0.432" height="9" transform="matrix(0.861, -0.509, 0.509, 0.861, 1140.206, 815.167)" fill="#4c60ad"/>
            <path id="Trazado_20014" data-name="Trazado 20014" d="M1141.177,814.592a.913.913,0,1,1-1.25-.32A.914.914,0,0,1,1141.177,814.592Z" fill="#d67e5a"/>
          </g>
          <g id="Grupo_13502" data-name="Grupo 13502">
            <rect id="Rectángulo_3216" data-name="Rectángulo 3216" width="9" height="0.432" transform="matrix(0.149, -0.989, 0.989, 0.149, 1153.248, 819.825)" fill="#4c60ad"/>
            <path id="Trazado_20015" data-name="Trazado 20015" d="M1155.706,811.094a.913.913,0,1,1-.766-1.038A.913.913,0,0,1,1155.706,811.094Z" fill="#d67e5a"/>
          </g>
          <g id="Grupo_13503" data-name="Grupo 13503">
            <rect id="Rectángulo_3217" data-name="Rectángulo 3217" width="0.432" height="9" transform="matrix(0.99, -0.139, 0.139, 0.99, 1149.173, 816.795)" fill="#4c60ad"/>
            <path id="Trazado_20016" data-name="Trazado 20016" d="M1150.29,816.638a.912.912,0,1,1-1.031-.777A.912.912,0,0,1,1150.29,816.638Z" fill="#d67e5a"/>
          </g>
          <g id="Grupo_13504" data-name="Grupo 13504">
            <rect id="Rectángulo_3218" data-name="Rectángulo 3218" width="9" height="0.432" transform="translate(1156.129 824.737) rotate(-42.305)" fill="#4c60ad"/>
            <path id="Trazado_20017" data-name="Trazado 20017" d="M1163.545,819.514a.913.913,0,1,1,.061-1.289A.912.912,0,0,1,1163.545,819.514Z" fill="#d67e5a"/>
          </g>
        </g>
        <g id="Grupo_13508" data-name="Grupo 13508">
          <rect id="Rectángulo_3219" data-name="Rectángulo 3219" width="3.583" height="28.656" transform="translate(1296.616 804.119)" fill="#fff"/>
          <g id="Grupo_13507" data-name="Grupo 13507">
            <path id="Trazado_20018" data-name="Trazado 20018" d="M1305.956,832.775h-15.1a1.417,1.417,0,0,1-1.4-1.67l.11-.61.02-.15.53-2.96.03-.19.52-2.93.04-.21.52-2.94.04-.23.51-2.91.05-.26.52-2.92.04-.26.52-2.91.05-.29.51-2.91.06-.3.05-.3a1.417,1.417,0,0,1,1.4-1.17h6.86a1.417,1.417,0,0,1,1.4,1.17l.14.8.08.42.58,3.29.07.41.58,3.29.07.4.58,3.28.07.39.59,3.29.06.38.58,3.28.07.36.58,3.3.06.34.01.05A1.417,1.417,0,0,1,1305.956,832.775Z" fill="#f5c1b8"/>
            <g id="Grupo_13506" data-name="Grupo 13506" opacity="0.3" style="mix-blend-mode: multiply;isolation: isolate">
              <path id="Trazado_20019" data-name="Trazado 20019" d="M1303.456,809.045a33.844,33.844,0,0,1-6.7-2.39h.91a39.29,39.29,0,0,0,5.71,1.97Z" fill="#f5c1b8"/>
              <path id="Trazado_20020" data-name="Trazado 20020" d="M1304.106,812.745a35.355,35.355,0,0,1-10.64-4.32l.06-.3a39.538,39.538,0,0,0,10.51,4.21Z" fill="#f5c1b8"/>
              <path id="Trazado_20021" data-name="Trazado 20021" d="M1304.756,816.435a35.326,35.326,0,0,1-11.85-4.81l.05-.29a39.787,39.787,0,0,0,11.73,4.7Z" fill="#f5c1b8"/>
              <path id="Trazado_20022" data-name="Trazado 20022" d="M1305.406,820.1a35.2,35.2,0,0,1-13.06-5.31l.04-.26a39.9,39.9,0,0,0,12.95,5.18Z" fill="#f5c1b8"/>
              <path id="Trazado_20023" data-name="Trazado 20023" d="M1306.056,823.775a35.748,35.748,0,0,1-14.28-5.8l.05-.26A39.616,39.616,0,0,0,1306,823.4Z" fill="#f5c1b8"/>
              <path id="Trazado_20024" data-name="Trazado 20024" d="M1306.706,827.415a35.391,35.391,0,0,1-15.48-6.3l.04-.23a39.827,39.827,0,0,0,15.37,6.17Z" fill="#f5c1b8"/>
              <path id="Trazado_20025" data-name="Trazado 20025" d="M1307.346,831.055a35.524,35.524,0,0,1-16.68-6.79l.04-.21a39.893,39.893,0,0,0,16.58,6.66Z" fill="#f5c1b8"/>
              <path id="Trazado_20026" data-name="Trazado 20026" d="M1301.136,832.775h-1.26a35.858,35.858,0,0,1-9.76-5.39l.03-.19A39.433,39.433,0,0,0,1301.136,832.775Z" fill="#f5c1b8"/>
              <path id="Trazado_20027" data-name="Trazado 20027" d="M1293.226,832.775h-.51a35.007,35.007,0,0,1-3.15-2.28l.02-.15A41.14,41.14,0,0,0,1293.226,832.775Z" fill="#f5c1b8"/>
            </g>
          </g>
        </g>
        <g id="Grupo_13510" data-name="Grupo 13510">
          <rect id="Rectángulo_3220" data-name="Rectángulo 3220" width="20.892" height="2.791" transform="translate(1266.282 827.83)" fill="#fff"/>
          <g id="Grupo_13509" data-name="Grupo 13509">
            <path id="Trazado_20028" data-name="Trazado 20028" d="M1285.123,826.93v4.59a1.082,1.082,0,0,1-1.08,1.08h-14.63a1.056,1.056,0,0,1-.79-.35,1.063,1.063,0,0,1-.29-.73v-4.59a1.082,1.082,0,0,1,1.08-1.08h14.63a1.094,1.094,0,0,1,.84.4,1.348,1.348,0,0,1,.15.26A.989.989,0,0,1,1285.123,826.93Z" fill="#deb74a"/>
            <path id="Trazado_20029" data-name="Trazado 20029" d="M1270.993,825.85a25.743,25.743,0,0,1-2.66,3.68v-.56a27.456,27.456,0,0,0,2.36-3.12Z" fill="#c18c2f"/>
            <path id="Trazado_20030" data-name="Trazado 20030" d="M1274.6,825.85a24.308,24.308,0,0,1-5.72,6.61,1.085,1.085,0,0,1-.26-.21,30.112,30.112,0,0,0,5.68-6.4Z" fill="#c18c2f"/>
            <path id="Trazado_20031" data-name="Trazado 20031" d="M1278.213,825.85a24.389,24.389,0,0,1-5.89,6.75h-.49a30.262,30.262,0,0,0,6.08-6.75Z" fill="#c18c2f"/>
            <path id="Trazado_20032" data-name="Trazado 20032" d="M1281.823,825.85a24.517,24.517,0,0,1-5.88,6.75h-.5a30.549,30.549,0,0,0,6.09-6.75Z" fill="#c18c2f"/>
            <path id="Trazado_20033" data-name="Trazado 20033" d="M1285.033,826.51a24.27,24.27,0,0,1-5.48,6.09h-.5a30.842,30.842,0,0,0,5.83-6.35A1.348,1.348,0,0,1,1285.033,826.51Z" fill="#c18c2f"/>
            <path id="Trazado_20034" data-name="Trazado 20034" d="M1285.123,830.33v.55a22.953,22.953,0,0,1-1.96,1.72h-.5A31.047,31.047,0,0,0,1285.123,830.33Z" fill="#c18c2f"/>
          </g>
        </g>
        <g id="Grupo_13513" data-name="Grupo 13513">
          <rect id="Rectángulo_3221" data-name="Rectángulo 3221" width="20.892" height="2.791" transform="translate(1284.873 821.473) rotate(23.033)" fill="#fff"/>
          <g id="Grupo_13512" data-name="Grupo 13512">
            <path id="Trazado_20035" data-name="Trazado 20035" d="M1302.563,828.016l-1.8,4.225a1.081,1.081,0,0,1-1.416.571l-13.464-5.724a1.055,1.055,0,0,1-.59-.631,1.065,1.065,0,0,1,.019-.786l1.795-4.224a1.082,1.082,0,0,1,1.417-.571l13.464,5.724a1.093,1.093,0,0,1,.616.7,1.374,1.374,0,0,1,.037.3A.988.988,0,0,1,1302.563,828.016Z" fill="#4c60ad"/>
            <g id="Grupo_13511" data-name="Grupo 13511" style="mix-blend-mode: multiply;isolation: isolate">
              <path id="Trazado_20036" data-name="Trazado 20036" d="M1289.982,821.494a25.693,25.693,0,0,1-3.888,2.346l.219-.515a27.6,27.6,0,0,0,3.393-1.948Z" fill="#4c60ad"/>
              <path id="Trazado_20037" data-name="Trazado 20037" d="M1293.3,822.907a24.328,24.328,0,0,1-7.85,3.845,1.082,1.082,0,0,1-.157-.3,30.083,30.083,0,0,0,7.731-3.668Z" fill="#4c60ad"/>
              <path id="Trazado_20038" data-name="Trazado 20038" d="M1296.626,824.319a24.394,24.394,0,0,1-8.061,3.907l-.451-.191a30.267,30.267,0,0,0,8.236-3.833Z" fill="#4c60ad"/>
              <path id="Trazado_20039" data-name="Trazado 20039" d="M1299.949,825.731a24.5,24.5,0,0,1-8.053,3.912l-.46-.2a30.548,30.548,0,0,0,8.246-3.829Z" fill="#4c60ad"/>
              <path id="Trazado_20040" data-name="Trazado 20040" d="M1302.645,827.595a24.285,24.285,0,0,1-7.426,3.46l-.46-.2a30.873,30.873,0,0,0,7.849-3.563A1.374,1.374,0,0,1,1302.645,827.595Z" fill="#4c60ad"/>
              <path id="Trazado_20041" data-name="Trazado 20041" d="M1301.233,831.145l-.215.507a23.222,23.222,0,0,1-2.477.816l-.46-.2A30.861,30.861,0,0,0,1301.233,831.145Z" fill="#4c60ad"/>
            </g>
          </g>
        </g>
      </g>
      <g id="Grupo_13516" data-name="Grupo 13516">
        <path id="Trazado_20042" data-name="Trazado 20042" d="M1161.581,822.967a62.179,62.179,0,0,1-6.305.5c-1.571.166-4.192.375-5.193,1.709a3.589,3.589,0,0,0-.447,2.515,5.533,5.533,0,0,0,1.223,2.895c1.507,1.836,3.995,2.307,6.673,2.44,2.363.118,4.75-.134,7.116-.1.467.006.495-.6.032-.6-1.694-.023-3.425.157-5.125.153-2.464-.007-5.364-.04-7.173-1.4a5.129,5.129,0,0,1-1.844-2.649,3.857,3.857,0,0,1,.057-2.829c.757-1.335,3.821-1.455,5.2-1.58a51.4,51.4,0,0,0,5.947-.479c.466-.1.3-.667-.164-.569Z" fill="#fff"/>
        <path id="Trazado_20043" data-name="Trazado 20043" d="M1171.208,818.625a5.781,5.781,0,0,1-2.693-1.515,1.392,1.392,0,0,1-.124-1.9,3.6,3.6,0,0,1,1.773-.745,21.623,21.623,0,0,1,5.429-.263,46.481,46.481,0,0,1,5.408.558c.45.073.667-.522.219-.595a46.283,46.283,0,0,0-6.586-.6,14.731,14.731,0,0,0-5.787.675c-1.448.605-1.861,1.881-1.184,2.942a5.671,5.671,0,0,0,3.156,1.992c.421.124.813-.423.389-.547Z" fill="#fff"/>
        <path id="Trazado_20044" data-name="Trazado 20044" d="M1160.808,823.319c-.134.338,2.208,2.433,2.346,4.585s.459,4.812.96,5.038,3.422,0,4.91-.014a38.51,38.51,0,0,0,11.522-1.093,7.332,7.332,0,0,0,5.558-5.911,8.705,8.705,0,0,0,.84-2.09c.111-.689-.828-.913-1.005-1.766s.742-.761.256-2.333-3.8-4.221-3.993-4.344-.377-1.015-.523-1.164a16.786,16.786,0,0,0-7.4.947c-2.736,1.225-7.873,4.837-9.415,5.8S1160.967,822.918,1160.808,823.319Z" fill="#fff"/>
        <g id="Grupo_13515" data-name="Grupo 13515">
          <path id="Trazado_20045" data-name="Trazado 20045" d="M1162.676,823.649c-.011-.011-.036.006-.025.017a9.067,9.067,0,0,1,2.082,3.774,10.626,10.626,0,0,1,.09,4.318c-.005.036.061.037.073,0A7.7,7.7,0,0,0,1162.676,823.649Z" fill="#f4f3e4"/>
          <path id="Trazado_20046" data-name="Trazado 20046" d="M1185.288,827.437a21.352,21.352,0,0,1-9.709,3.63c-1.675.2-3.343.227-5.012.3a32.973,32.973,0,0,0-4.924.555c-.019,0-.016.03,0,.027,3.511-.587,7.019-.23,10.535-.738a20.766,20.766,0,0,0,9.149-3.745C1185.361,827.447,1185.319,827.415,1185.288,827.437Z" fill="#f4f3e4"/>
          <path id="Trazado_20047" data-name="Trazado 20047" d="M1181.975,815.418a15.05,15.05,0,0,0-4.591.519,19.119,19.119,0,0,0-4.545,1.963c-3.16,1.766-6.276,3.591-9.422,5.375-.02.012,0,.036.018.025,3.034-1.669,6.093-3.3,9.121-4.982a23.78,23.78,0,0,1,4.544-2.077,18.764,18.764,0,0,1,4.861-.759C1182,815.48,1182.019,815.421,1181.975,815.418Z" fill="#f4f3e4"/>
          <path id="Trazado_20048" data-name="Trazado 20048" d="M1186.553,824.074a27.775,27.775,0,0,1-9.015,4.318,36.581,36.581,0,0,1-4.981,1.041,45.8,45.8,0,0,0-5,.7c-.016,0-.01.024.006.02,1.818-.376,3.666-.373,5.493-.63a33.586,33.586,0,0,0,4.86-1.057,26.515,26.515,0,0,0,8.682-4.355C1186.628,824.084,1186.585,824.051,1186.553,824.074Z" fill="#f4f3e4"/>
          <path id="Trazado_20049" data-name="Trazado 20049" d="M1185.549,822.659a36.761,36.761,0,0,1-8.423,4.058c-3.05,1.1-6.26,1.3-9.37,2.145-.013,0-.008.019.005.015,1.679-.441,3.413-.607,5.112-.883a24.357,24.357,0,0,0,4.689-1.21,30.964,30.964,0,0,0,8.054-4.076C1185.665,822.669,1185.6,822.624,1185.549,822.659Z" fill="#f4f3e4"/>
          <path id="Trazado_20050" data-name="Trazado 20050" d="M1185.907,821.453c-1.563.358-3.136.482-4.7.778a28.173,28.173,0,0,0-4.747,1.476,89.4,89.4,0,0,0-8.966,4.014c-.025.013-.005.041.02.029,2.98-1.446,6.063-2.73,9.192-3.88a32.837,32.837,0,0,1,4.564-1.418,44.609,44.609,0,0,0,4.667-.906C1186.007,821.522,1185.982,821.436,1185.907,821.453Z" fill="#f4f3e4"/>
          <path id="Trazado_20051" data-name="Trazado 20051" d="M1184.841,819.331a39.819,39.819,0,0,0-9.818,2.23,30.145,30.145,0,0,0-8.1,4.5c-.005,0,0,.01.007.006,5.039-3.867,11.574-5.774,17.906-6.654C1184.9,819.4,1184.9,819.325,1184.841,819.331Z" fill="#f4f3e4"/>
          <path id="Trazado_20052" data-name="Trazado 20052" d="M1183.2,817.664a35.282,35.282,0,0,1-4.616.73,19.751,19.751,0,0,0-4.232,1.236,34.649,34.649,0,0,0-7.787,4.6c-.009.007,0,.019.012.013a50.928,50.928,0,0,1,7.778-4.447,20.209,20.209,0,0,1,4.583-1.317,29.417,29.417,0,0,0,4.28-.748C1183.272,817.711,1183.255,817.649,1183.2,817.664Z" fill="#f4f3e4"/>
        </g>
      </g>
    </g>
  </g>
</svg>
