<svg xmlns="http://www.w3.org/2000/svg" width="229.318" height="165.318" viewBox="0 0 229.318 165.318">
  <g id="Grupo_13584" data-name="Grupo 13584" transform="translate(-935.089 -285.662)">
    <path id="Trazado_20062" data-name="Trazado 20062" d="M954.187,420.495c-10.967-16.945,38.111-111.732,62.3-119.7,16.9-5.566,124.982,50.816,122.092,76.942C1134.259,416.827,967.9,441.69,954.187,420.495Z" fill="#f4f3e4"/>
    <path id="Trazado_20063" data-name="Trazado 20063" d="M1163.609,334.019c-3.683,5.2-29.43,2.947-33.074-.773-6.788-6.93-4.569-36.734,4.016-39.6C1141.02,291.482,1169.5,325.7,1163.609,334.019Z" fill="#f4f3e4"/>
    <g id="Grupo_13564" data-name="Grupo 13564">
      <g id="Grupo_13549" data-name="Grupo 13549">
        <g id="Grupo_13548" data-name="Grupo 13548">
          <path id="Trazado_20064" data-name="Trazado 20064" d="M1070.381,369.819c-2.18,4.48-9.86,15.91-16.92,25.42-.4.53-.78,1.05-1.17,1.56-5.2,6.9-7.544,8.642-9.184,9.232-9.01,3.23-40.2-27.742-40.636-27.652-.44.12-3.71-.66-5.77-.49s-11.83-4.69-13.12-5.16-11.88,1.25-13.1-.13,9.74-6.67,13.48-6.77,13.88-.92,19.14.35c2.32.57,25.46,12.23,31.74,14.24.81.25,1.34.35,1.51.25.08-.05,9.21-15.26,13.02-19.87,6.9-8.38,18.8-21.02,25.22-18.6C1076.421,342.9,1077.4,355.379,1070.381,369.819Z" fill="#e9ab9e"/>
          <path id="Trazado_20065" data-name="Trazado 20065" d="M1070.381,369.819c-2.18,4.48-9.86,15.91-16.92,25.42-.65-.26-1.26-.52-1.84-.76a36.513,36.513,0,0,1-16.78-14.06c.81.25,1.34.35,1.51.25.08-.05,9.21-15.26,13.02-19.87,6.9-8.38,18.8-21.02,25.22-18.6C1076.421,342.9,1077.4,355.379,1070.381,369.819Z" fill="#c27c88"/>
          <path id="Trazado_20066" data-name="Trazado 20066" d="M1034.511,378.455c-.006,1.564,13.361,12.557,24.949,10.8,1.6-.242,10.8-16.926,13.958-24.414,2.683-6.368,5.074-19.593,1.512-23.467-2.927-3.184-15.21,6.823-21.544,13.3S1034.519,376.534,1034.511,378.455Z" fill="#deb74a"/>
        </g>
      </g>
      <g id="Grupo_13551" data-name="Grupo 13551">
        <g id="Grupo_13550" data-name="Grupo 13550">
          <path id="Trazado_20067" data-name="Trazado 20067" d="M1068.352,338.97c-7.876,6.539-15.151,32.372-17.889,48.2s-4.142,55.275-2.483,57.21l77.985,5.851c3.259-2.082-6.515-38.368-9.3-52.86s-8.98-45.724-12.984-50.936-12.821-11.75-18.739-12.136C1082.534,334.139,1071.221,336.587,1068.352,338.97Z" fill="#deb74a"/>
          <path id="Trazado_20068" data-name="Trazado 20068" d="M1088.867,339.752c-2.537,4.611-5.273,9.416-9.828,12.115-5.484,3.25-11.442.173-12.761-6.189a.054.054,0,1,0-.1.022c.821,5.573,5.042,9.587,10.575,7.888s10.37-8.252,12.334-13.72C1089.13,339.734,1088.938,339.623,1088.867,339.752Z" fill="#c18c2f"/>
          <path id="Trazado_20069" data-name="Trazado 20069" d="M1057.968,359.311c.015-.074-.106-.1-.129-.027-.932,2.895-1.979,5.747-2.967,8.62.135-.956.287-1.91.5-2.866.047-.215-.275-.34-.331-.118a43.938,43.938,0,0,0-1.185,6.086c-.241.767-.49,1.531-.709,2.306a123.979,123.979,0,0,0-2.882,13.262c-1.648,9.824-2.331,19.771-3.138,29.691a.242.242,0,0,0,.483.036c.891-9.759,1.915-19.515,3.567-29.179q1.219-7.134,3.029-14.152a.267.267,0,0,0,.087-.161c.013-.111.024-.221.036-.332.022-.082.041-.164.062-.246C1055.527,367.9,1057.069,363.7,1057.968,359.311Z" fill="#c18c2f"/>
        </g>
      </g>
      <g id="Grupo_13563" data-name="Grupo 13563">
        <g id="Grupo_13552" data-name="Grupo 13552">
          <path id="Trazado_20070" data-name="Trazado 20070" d="M1061.478,327.036l6.794,15.44.01.026.953,2.168s.9,6.437,5.987,5.457c8.671-1.669,11.534-12.242,11.649-13.645.059-.72-1.844-6.461-3.711-11.889-1.783-5.185-3.538-10.1-3.538-10.1l-2.024,1.4Z" fill="#e9ab9e"/>
          <path id="Trazado_20071" data-name="Trazado 20071" d="M1061.478,327.036l6.794,15.44.01.026a32.964,32.964,0,0,0,12.041-11.761,31.608,31.608,0,0,0,2.837-6.148c-1.783-5.185-3.538-10.1-3.538-10.1l-2.024,1.4Z" fill="#c27c88"/>
        </g>
        <g id="Grupo_13562" data-name="Grupo 13562">
          <g id="Grupo_13553" data-name="Grupo 13553">
            <path id="Trazado_20072" data-name="Trazado 20072" d="M1073.008,292.271c5.751,5.995,9.428,24.882,6.193,32.918-2.215,5.5-9.845,9.726-16.764,9.461a12.3,12.3,0,0,1-8.418-3.446c-7.282-7.286-11.17-29.678-7.971-34.578C1051.7,287.972,1065.976,284.94,1073.008,292.271Z" fill="#e9ab9e"/>
          </g>
          <g id="Grupo_13559" data-name="Grupo 13559">
            <g id="Grupo_13554" data-name="Grupo 13554">
              <path id="Trazado_20073" data-name="Trazado 20073" d="M1059.983,313.728c0-.049.109.031.121.081.291,1.213.829,2.553,2.026,2.654.038,0,.051.065.009.07C1060.76,316.71,1060.064,314.923,1059.983,313.728Z" fill="#1a2c6d"/>
              <path id="Trazado_20074" data-name="Trazado 20074" d="M1060.713,312.178c1.894-.677,3.108,3.161,1.353,3.788C1060.339,316.583,1059.125,312.745,1060.713,312.178Z" fill="#1a2c6d"/>
            </g>
            <g id="Grupo_13555" data-name="Grupo 13555">
              <path id="Trazado_20075" data-name="Trazado 20075" d="M1051.941,316.22c-.023-.042-.075.086-.058.134.413,1.177.689,2.6-.262,3.33-.029.022-.007.081.031.063C1052.906,319.147,1052.521,317.269,1051.941,316.22Z" fill="#1a2c6d"/>
              <path id="Trazado_20076" data-name="Trazado 20076" d="M1050.487,315.314c-1.958.46-.9,4.342.918,3.917C1053.191,318.812,1052.128,314.929,1050.487,315.314Z" fill="#1a2c6d"/>
            </g>
            <path id="Trazado_20077" data-name="Trazado 20077" d="M1063.3,324.8c-.2.368-.36.841-.78,1.014a3.288,3.288,0,0,1-1.372.105.043.043,0,0,0-.032.077,1.68,1.68,0,0,0,1.713.169,1.33,1.33,0,0,0,.6-1.348C1063.43,324.744,1063.331,324.747,1063.3,324.8Z" fill="#c27c88"/>
            <path id="Trazado_20078" data-name="Trazado 20078" d="M1061.673,309.944a15.423,15.423,0,0,1-1.652-.054,2.668,2.668,0,0,1-1.675-.376.851.851,0,0,1-.18-1.023,2.111,2.111,0,0,1,1.963-.849,3.1,3.1,0,0,1,2.108.74A.908.908,0,0,1,1061.673,309.944Z" fill="#1a2c6d"/>
            <path id="Trazado_20079" data-name="Trazado 20079" d="M1048.391,313.851a15.584,15.584,0,0,0,1.4-.878c.533-.343.994-.561,1.257-1.168a.853.853,0,0,0-.36-.975,2.111,2.111,0,0,0-2.123.255,3.106,3.106,0,0,0-1.449,1.7A.908.908,0,0,0,1048.391,313.851Z" fill="#1a2c6d"/>
            <g id="Grupo_13556" data-name="Grupo 13556">
              <path id="Trazado_20080" data-name="Trazado 20080" d="M1061.741,324.57a1.922,1.922,0,0,1-1.32.31,4.171,4.171,0,0,1-2.21-1.279,6.445,6.445,0,0,0,3.11-2.461,7.191,7.191,0,0,1,.63,1.24C1062.261,323.171,1062.431,324.12,1061.741,324.57Z" fill="#1a2c6d"/>
              <path id="Trazado_20081" data-name="Trazado 20081" d="M1061.741,324.57a1.922,1.922,0,0,1-1.32.31,3.891,3.891,0,0,1,.29-1.14,3.25,3.25,0,0,1,1.24-1.36C1062.261,323.171,1062.431,324.12,1061.741,324.57Z" fill="#c27c88"/>
            </g>
            <g id="Grupo_13558" data-name="Grupo 13558">
              <g id="Grupo_13557" data-name="Grupo 13557">
                <path id="Trazado_20082" data-name="Trazado 20082" d="M1061.47,321.211a4.247,4.247,0,0,1-2.132,2.656,5.365,5.365,0,0,1-1.436.527,1.51,1.51,0,0,1-.288.056c-.09.017-.171.031-.273.042a.309.309,0,0,1-.322-.191l0-.008a.594.594,0,0,1-.027-.126l0-.008-.031-.106c-.314-.907-.666-2.327-.666-2.327-.281.273-1.744,1.58-1.868,1.093a63.894,63.894,0,0,1-2.3-12.748.116.116,0,0,1,.227-.038c1.129,3.838,1.576,7.848,2.649,11.722a7.454,7.454,0,0,1,1.727-1.184c.142,0,.631,2.757.805,3.153a.151.151,0,0,0,.021.041,5.887,5.887,0,0,0,3.779-2.625C1061.392,321.044,1061.512,321.094,1061.47,321.211Z" fill="#c27c88"/>
              </g>
            </g>
          </g>
          <g id="Grupo_13560" data-name="Grupo 13560">
            <path id="Trazado_20083" data-name="Trazado 20083" d="M1078.7,308.99c-2.91,1.9-6.229-.69-9.819-4.886-2.1-2.45-4.319-8.379-4.319-8.379s-5.854,7.833-10.493,9.81-10.459.186-12.114-3.4c-1.42-3.074,1.535-9.634,8-13.45,4.5-2.66,14.275-3.123,20.361,0,0,0,7.289-.328,8.768,4.518S1082.01,306.827,1078.7,308.99Z" fill="#1a2c6d"/>
            <path id="Trazado_20084" data-name="Trazado 20084" d="M1078.3,308.757c-3.568,3.005-8.935-1.919-10.722-5.023-1.858-3.226-2.372-7.219-3.512-10.725,0-.016-.034-.012-.031.006.713,4.61,1.867,10.313,5.363,13.671,2.2,2.113,6.339,5.34,9.07,2.264C1078.56,308.846,1078.414,308.661,1078.3,308.757Z" fill="#1a2c6d"/>
            <path id="Trazado_20085" data-name="Trazado 20085" d="M1079.258,291.406c-2.01-2.4-6.511-3.416-9.431-2.668a.024.024,0,0,0,.009.047c3.691-.523,9.172,1.129,10.063,5.1.712,3.177,1.328,7.533.615,10.738-.018.082.1.1.126.026.695-2.275.309-4.558.066-6.886C1080.494,295.741,1080.652,293.066,1079.258,291.406Z" fill="#1a2c6d"/>
            <path id="Trazado_20086" data-name="Trazado 20086" d="M1071.125,288.776c-6.43-3.281-17.464-5.012-23.32.177-.017.015.008.043.026.03,6.544-4.9,16.211-2.272,23.173.141C1071.207,289.194,1071.307,288.869,1071.125,288.776Z" fill="#1a2c6d"/>
          </g>
          <g id="Grupo_13561" data-name="Grupo 13561">
            <path id="Trazado_20087" data-name="Trazado 20087" d="M1076.771,312.225s1.437-7.555,4.689-7.293,3.974,9.952,1.424,12.468a3.415,3.415,0,0,1-4.926.2Z" fill="#e9ab9e"/>
            <path id="Trazado_20088" data-name="Trazado 20088" d="M1081.6,307.715c.047-.027.087.038.053.074-1.757,1.835-1.993,4.334-1.857,6.754a1.886,1.886,0,0,1,2.362-1.626c.073.015.059.127-.007.141a2.1,2.1,0,0,0-1.808,1.616,10.083,10.083,0,0,0-.243,2.159c-.015.237-.408.29-.434.036,0-.019,0-.039,0-.057C1078.375,314.1,1078.782,309.311,1081.6,307.715Z" fill="#c27c88"/>
          </g>
        </g>
      </g>
    </g>
    <g id="Grupo_13571" data-name="Grupo 13571">
      <path id="Trazado_20089" data-name="Trazado 20089" d="M1001.834,336.393c6.676-.191,13.575-.529,19.835,2.229,5.377,2.37,7.1,7.01,7.427,12.574.442,7.394.561,14.878.6,22.286.039,7.2-.514,14.321-3.186,21.072-.1.261-.528.154-.43-.119,4.455-12.318,2.765-26.215,2.4-39.038-.177-6.128-.231-12.7-6.512-15.782-6.137-3.015-13.439-3.047-20.131-2.987A.118.118,0,0,1,1001.834,336.393Z" fill="#fff"/>
      <line id="Línea_236" data-name="Línea 236" y2="11.696" transform="translate(1027.011 383.597)" fill="none" stroke="#c18c2f" stroke-miterlimit="10" stroke-width="1"/>
      <g id="Grupo_13565" data-name="Grupo 13565">
        <path id="Trazado_20090" data-name="Trazado 20090" d="M1018.9,415.989s.09,1.64.33,3.03a3.371,3.371,0,0,0,.67,1.89c.75.41,6.08.41,6.58,0a5.447,5.447,0,0,0,.61-1.95c.26-1.38.47-2.97.47-2.97Z" fill="#4c60ad"/>
        <path id="Trazado_20091" data-name="Trazado 20091" d="M1018.9,415.989s.09,1.64.33,3.03c2.57.02,5.53.02,7.86-.06.26-1.38.47-2.97.47-2.97Z" fill="#4c60ad" opacity="0.5" style="mix-blend-mode: multiply;isolation: isolate"/>
      </g>
      <g id="Grupo_13566" data-name="Grupo 13566">
        <path id="Trazado_20092" data-name="Trazado 20092" d="M969.983,417.759s4.04-.06,9.9-.16c14.2-.22,39.09-.61,43.1-.61,5.66,0,10.58.77,11.45-3.23a50.232,50.232,0,0,0,.88-9.94c0-.13,0-.25-.01-.38,0-.15-.01-.3-.02-.44-.29-4.19-2.83-6.87-5.8-7.34-1.79-.28-19.49-.72-35.03-1.03-12.01-.23-22.72-.38-23.81-.31l-.24,8.46-.02.88Z" fill="#4c60ad"/>
        <path id="Trazado_20093" data-name="Trazado 20093" d="M970.384,403.658c16.14.4,50.54.15,64.92-.22,0-.15-.01-.3-.02-.44-14.38-.37-48.74-.62-64.88-.22Z" fill="#4c60ad" opacity="0.5" style="mix-blend-mode: multiply;isolation: isolate"/>
        <path id="Trazado_20094" data-name="Trazado 20094" d="M969.983,417.759s4.04-.06,9.9-.16c.51-5.91,1.87-12.39,5.56-17.15a17.809,17.809,0,0,1,9.01-5.82c-12.01-.23-22.72-.38-23.81-.31l-.24,8.46-.02.88Z" fill="#4c60ad" opacity="0.5" style="mix-blend-mode: multiply;isolation: isolate"/>
      </g>
      <g id="Grupo_13567" data-name="Grupo 13567">
        <path id="Trazado_20095" data-name="Trazado 20095" d="M939.1,369.359a6.992,6.992,0,0,0,2.79,1.07,17.745,17.745,0,0,0,3.59.56c.37-.13,0-23,0-23s-2.08.17-3.88.51c-1.2.23-2.29.53-2.53.92C937.9,351.249,938.353,368.489,939.1,369.359Z" fill="#4c60ad"/>
        <path id="Trazado_20096" data-name="Trazado 20096" d="M941.6,348.5c.11,7.31.18,14.62.29,21.93a17.745,17.745,0,0,0,3.59.56c.37-.13,0-23,0-23S943.4,348.159,941.6,348.5Z" fill="#4c60ad" opacity="0.5" style="mix-blend-mode: multiply;isolation: isolate"/>
      </g>
      <g id="Grupo_13568" data-name="Grupo 13568">
        <path id="Trazado_20097" data-name="Trazado 20097" d="M1021.643,383.839c.12.88.33,1.65.67,1.83.9.5,8.45.66,9.11.3a5.2,5.2,0,0,0,.98-2.07c.43-1.3.78-2.72.78-2.72l-11.72-.51A25.157,25.157,0,0,0,1021.643,383.839Z" fill="#4c60ad"/>
        <path id="Trazado_20098" data-name="Trazado 20098" d="M1021.643,383.839c3.75.05,7.89.07,10.76.06.43-1.3.78-2.72.78-2.72l-11.72-.51A25.157,25.157,0,0,0,1021.643,383.839Z" fill="#4c60ad" opacity="0.5" style="mix-blend-mode: multiply;isolation: isolate"/>
      </g>
      <g id="Grupo_13569" data-name="Grupo 13569">
        <path id="Trazado_20099" data-name="Trazado 20099" d="M954.653,415.989s.09,1.63.33,3.02c.15.92.37,1.73.67,1.9.75.41,6.08.41,6.58,0a5.346,5.346,0,0,0,.6-1.92c.27-1.38.48-3,.48-3Z" fill="#4c60ad"/>
        <path id="Trazado_20100" data-name="Trazado 20100" d="M954.653,415.989s.09,1.63.33,3.02c2.42.03,5.37.04,7.85-.02.27-1.38.48-3,.48-3Z" fill="#4c60ad" opacity="0.5" style="mix-blend-mode: multiply;isolation: isolate"/>
      </g>
      <path id="Trazado_20101" data-name="Trazado 20101" d="M1043.107,354.988c.038,6.187-3,19-4.375,23s-4.125,4.5-11.875,4.125-13.25.375-13.25-8.875c0-.75-22.75-.875-26.875-.625s-9.375,0-9.5,11,.625,33.5,0,33.75-28.5.75-30.25,0-3.667-59.042-3.334-64.375.834-14,16.667-13.834,68.167,4.5,73.5,5.667S1043.065,348.321,1043.107,354.988Z" fill="#4c60ad"/>
      <path id="Trazado_20102" data-name="Trazado 20102" d="M960.065,340.4a55.613,55.613,0,0,0-.333-5.666,6.078,6.078,0,0,0-2.875,0c-.375.208,0,5.875,0,5.875Z" fill="#4c60ad"/>
      <path id="Trazado_20103" data-name="Trazado 20103" d="M1017.789,343.523s.941-7.761.784-8.147-2.436-.639-2.849-.392-1.155,8.4-1.155,8.4Z" fill="#4c60ad"/>
      <path id="Trazado_20104" data-name="Trazado 20104" d="M990.6,341.075s.356-7.811.17-8.183-2.477-.454-2.87-.177-.521,8.463-.521,8.463Z" fill="#4c60ad"/>
      <path id="Trazado_20105" data-name="Trazado 20105" d="M989.669,335.238v1.615s18.688,1.135,19.063,1.135.75-1.2,0-1.477S989.669,335.238,989.669,335.238Z" fill="#4c60ad"/>
      <g id="Grupo_13570" data-name="Grupo 13570">
        <path id="Trazado_20106" data-name="Trazado 20106" d="M1010.567,333.711c-.342-.478-15.928-1.172-15.858-.913s.026,5.611.2,5.88,15.274,1.8,15.6,1.58S1011,334.323,1010.567,333.711Z" fill="#fff"/>
        <line id="Línea_237" data-name="Línea 237" x1="0.785" y2="9.95" transform="translate(1010.446 331.878)" fill="none" stroke="#deb74a" stroke-miterlimit="10" stroke-width="2"/>
        <line id="Línea_238" data-name="Línea 238" x1="0.057" y2="9.95" transform="translate(994.393 330.659)" fill="none" stroke="#deb74a" stroke-miterlimit="10" stroke-width="2"/>
      </g>
      <path id="Trazado_20107" data-name="Trazado 20107" d="M1027.323,371.938a1.714,1.714,0,0,1,0,3.425A1.714,1.714,0,0,1,1027.323,371.938Z" fill="#4c60ad" opacity="0.5" style="mix-blend-mode: multiply;isolation: isolate"/>
      <path id="Trazado_20108" data-name="Trazado 20108" d="M958.983,353.142a1.713,1.713,0,0,1,0,3.424A1.713,1.713,0,0,1,958.983,353.142Z" fill="#4c60ad" opacity="0.5" style="mix-blend-mode: multiply;isolation: isolate"/>
      <path id="Trazado_20109" data-name="Trazado 20109" d="M958.983,404.142a1.714,1.714,0,0,1,0,3.425A1.714,1.714,0,0,1,958.983,404.142Z" fill="#4c60ad" opacity="0.5" style="mix-blend-mode: multiply;isolation: isolate"/>
    </g>
    <g id="Grupo_13574" data-name="Grupo 13574">
      <g id="Grupo_13573" data-name="Grupo 13573">
        <g id="Grupo_13572" data-name="Grupo 13572">
          <rect id="Rectángulo_3312" data-name="Rectángulo 3312" width="199.035" height="6.445" transform="translate(1134.123 427.115) rotate(180)" fill="#976572"/>
        </g>
      </g>
    </g>
    <g id="Grupo_13580" data-name="Grupo 13580">
      <g id="Grupo_13576" data-name="Grupo 13576">
        <path id="Trazado_20110" data-name="Trazado 20110" d="M1020.514,410.2a16.744,16.744,0,0,0-1.894,5.2c-.316,2.106-.1,4.266-.657,6.336-.711,2.637-3.565,4.849-5.912,2.282a12.371,12.371,0,0,1-2.1-3.485,20.974,20.974,0,0,1-1.378-8.313c0-.245-.413-.247-.431,0-.253,3.54.024,7.447,1.71,10.64.93,1.762,2.656,4.078,4.915,4.035,2.545-.049,3.764-2.822,4.2-4.945a34.41,34.41,0,0,0,.339-5.064,22.563,22.563,0,0,1,1.554-6.542A.184.184,0,0,0,1020.514,410.2Z" fill="#fff"/>
        <path id="Trazado_20111" data-name="Trazado 20111" d="M1022.507,392.05c-1.447.719-12.627,6.359-13.9,10.152s-1.622,11.922-.647,12.177,12.4-2.425,13.4-2.659,3.568-9.1,4.345-11.39,5.965-6.634,6.308-7.539S1023.726,391.445,1022.507,392.05Z" fill="#fff"/>
        <g id="Grupo_13575" data-name="Grupo 13575">
          <path id="Trazado_20112" data-name="Trazado 20112" d="M1022.9,392.319a40.07,40.07,0,0,0-10.408,7.159c-3.037,3.1-3.448,7.359-3.716,11.487,0,.054.077.067.084.012.581-4.611,1.38-8.952,5.116-12.087,2.833-2.378,6.084-4.168,9.051-6.352C1023.139,392.454,1023.03,392.254,1022.9,392.319Z" fill="#f4f3e4"/>
          <path id="Trazado_20113" data-name="Trazado 20113" d="M1030.527,393.132c-5.817,4.465-8.955,8.339-9.677,17.211a.057.057,0,0,0,.112.015,41.5,41.5,0,0,1,2.787-9.345c1.541-3.218,4.349-5.439,6.925-7.789C1030.834,393.078,1030.7,393,1030.527,393.132Z" fill="#f4f3e4"/>
          <path id="Trazado_20114" data-name="Trazado 20114" d="M1027.579,393.617c-2.345,2.088-5.121,4.236-6.673,7.029-1.589,2.858-2.216,6.383-2.7,9.574-.017.111.141.126.168.023.748-2.862,1.148-5.954,2.441-8.635,1.529-3.173,4.473-5.354,6.906-7.812C1027.817,393.7,1027.69,393.518,1027.579,393.617Z" fill="#f4f3e4"/>
          <path id="Trazado_20115" data-name="Trazado 20115" d="M1025.954,393.107c-2.848,2.4-6.188,5-8,8.325a23.594,23.594,0,0,0-2.351,9.039.023.023,0,0,0,.046.006c.743-3.272,1.2-6.744,3.046-9.629,1.894-2.958,4.859-5.186,7.374-7.591C1026.156,393.175,1026.049,393.028,1025.954,393.107Z" fill="#f4f3e4"/>
          <path id="Trazado_20116" data-name="Trazado 20116" d="M1023.943,392.842c-3.376,2.424-7.5,5.1-9.873,8.613-1.765,2.611-2.075,6.467-2.079,9.509,0,.081.131.079.141,0,.433-3.454.656-7.467,3.034-10.2a64.877,64.877,0,0,1,8.875-7.8A.08.08,0,0,0,1023.943,392.842Z" fill="#f4f3e4"/>
        </g>
      </g>
      <g id="Grupo_13578" data-name="Grupo 13578">
        <g id="Grupo_13577" data-name="Grupo 13577">
          <path id="Trazado_20117" data-name="Trazado 20117" d="M1110.565,411.883c-2.455,2.908-14.03,7.372-23.7,7.965s-38.862-17.31-39.41-17.661-6.279-.185-8.5-.125c-3.922.094-8.049-2.468-9.417-3.689-3.784-3.4-12.416-1.333-11.75-4.826.863-4.521,12.8-4.765,16.167-4.674,9.25.25,11.832,2.606,14.517,2.386s35.2,3.792,36.414,3.541c.123-.029.21-.25.284-.631.695-3.475-.292-20.415.288-23.437.645-3.35,5.8-30.116,12.534-28.593,2.416.54,10.675,12.21,12.031,19.963,1.084,6.147,2.325,32.045,1.571,43.931C1111.4,409.132,1111.07,411.285,1110.565,411.883Z" fill="#e9ab9e"/>
          <path id="Trazado_20118" data-name="Trazado 20118" d="M1111.594,406.033a54.459,54.459,0,0,1-12.155-3.148c-5.155-1.939-10.555-4.52-14.269-8.716.695-3.475-.292-20.415.288-23.437.645-3.35,5.8-30.116,12.534-28.593,2.416.54,10.675,12.21,12.031,19.963C1111.107,368.249,1112.348,394.147,1111.594,406.033Z" fill="#c27c88"/>
          <path id="Trazado_20119" data-name="Trazado 20119" d="M1106.836,410.726a1.8,1.8,0,0,0-2.3-1.2,1.375,1.375,0,0,0-.472,2.252.855.855,0,0,0,1.469-.749c-.036-.14-.246-.065-.244.087.009.541-.693.5-.882.128a.786.786,0,0,1,.131-.884.915.915,0,0,1,1.217-.026,1.346,1.346,0,0,1,.532,1.213,1.818,1.818,0,0,1-.847,1.172c-.09.069-.021.24.077.218A1.822,1.822,0,0,0,1106.836,410.726Z" fill="#c27c88"/>
        </g>
        <path id="Trazado_20120" data-name="Trazado 20120" d="M1053.452,405.417c-1.983-1.292-4.956-3.45-6.393-3.8-.516-.128-9.617,1.024-13.662-.842-.089-.04-.214.09-.114.148a13.639,13.639,0,0,0,8.434,1.655,36.821,36.821,0,0,1,5.3-.17c1.458.375,4.521,2.375,6.292,3.375C1053.657,405.976,1053.784,405.633,1053.452,405.417Z" fill="#c27c88"/>
        <path id="Trazado_20121" data-name="Trazado 20121" d="M1047,391.026a38.6,38.6,0,0,0-17.217-2.325c-3.794.361-10.126.934-12.138,4.584-.037.067.062.152.117.086,2.967-3.572,9.829-4.129,14.258-4.3a42.9,42.9,0,0,1,14.939,2.1C1047.059,391.2,1047.1,391.06,1047,391.026Z" fill="#c27c88"/>
      </g>
      <g id="Grupo_13579" data-name="Grupo 13579">
        <path id="Trazado_20122" data-name="Trazado 20122" d="M1096.7,340.552c-7.495,3.546-11.765,24.841-12.355,28.768s-.393,18.749.062,19.956c.576,1.528,20.559,12.373,30.018,9.628,1.411-.41-1.5-33.767-4.44-41.38S1098.918,339.505,1096.7,340.552Z" fill="#deb74a"/>
        <path id="Trazado_20123" data-name="Trazado 20123" d="M1085.921,390.525c-.134-.2-1.251-1.239-1.354-1.42.039-5.723-.1-11.6-.6-17.3a.04.04,0,0,0-.079,0c-.095,2.139-.135,4.28-.148,6.42a15.481,15.481,0,0,0-.994-2.169.141.141,0,0,0-.259.111,47.771,47.771,0,0,1,1.248,4.762c.023,2.649.181,8.107.182,8.2a3.579,3.579,0,0,0,1.946,1.543C1085.938,390.678,1085.957,390.578,1085.921,390.525Z" fill="#c18c2f"/>
      </g>
    </g>
    <g id="Grupo_13583" data-name="Grupo 13583">
      <g id="Grupo_13581" data-name="Grupo 13581">
        <rect id="Rectángulo_3313" data-name="Rectángulo 3313" width="185.541" height="23.867" transform="translate(941.836 427.113)" fill="#976572"/>
      </g>
      <g id="Grupo_13582" data-name="Grupo 13582" opacity="0.5" style="mix-blend-mode: multiply;isolation: isolate">
        <rect id="Rectángulo_3314" data-name="Rectángulo 3314" width="185.541" height="9.319" transform="translate(941.836 427.113)" fill="#976572"/>
      </g>
    </g>
  </g>
</svg>
