<svg xmlns="http://www.w3.org/2000/svg" width="460.789" height="543.245" viewBox="0 0 460.789 543.245">
  <g id="Grupo_13297" data-name="Grupo 13297" transform="translate(521.524 48.797)">
    <g id="Grupo_13291" data-name="Grupo 13291" transform="translate(-441.166 -48.797)">
      <path id="Trazado_19696" data-name="Trazado 19696" d="M-290.321-39.36c-15.317-11.339-88.456-19.528-91.7,18.9-1.235,14.623-21.086,127.877-73.618,150.028,11.872,12.639,30.82,23.231,48.008,25.521,46.617,6.216,119.978-34.091,132.576-94.565C-267.891,26.128-256.88-14.606-290.321-39.36Z" transform="translate(497.65 48.797)" fill="#7d3632"/>
      <path id="Trazado_19697" data-name="Trazado 19697" d="M-342.777,125.5l100.909,128.252,19.281-30.471c2.786,2.975-39.145-100.828-56.152-128.457Z" transform="translate(594.406 171.924)" fill="#e8705a"/>
      <path id="Trazado_19698" data-name="Trazado 19698" d="M-336.721,64.377c42.419,28.162,71.67,61.841,75.561,77.346,3.365,13.413-77.411,43.953-77.411,43.953Z" transform="translate(598.012 145.821)" fill="#dd4462"/>
      <path id="Trazado_19699" data-name="Trazado 19699" d="M-429.6,399h192.5S-242.142,100.382-245.57,89.2c-4.37-14.253-59.753-41.106-59.753-41.106l-62.084-.854S-426.413,78.328-432.6,92C-439.774,107.865-429.6,399-429.6,399Z" transform="translate(515.206 131.125)" fill="#dd4462"/>
      <path id="Trazado_19700" data-name="Trazado 19700" d="M-436.246,109.7s-36.931,90.12-41.789,107.96,71.451,63.687,71.451,63.687l30.458-8.053L-424.179,222l48.086-91.483Z" transform="translate(478.258 184.677)" fill="#e8705a"/>
      <path id="Trazado_19701" data-name="Trazado 19701" d="M-394.048,64.079c-42.419,28.162-66.027,62.394-69.918,77.9-3.365,13.413,77.411,43.953,77.411,43.953Z" transform="translate(490.423 145.565)" fill="#dd4462"/>
      <path id="Trazado_19702" data-name="Trazado 19702" d="M-414.6,82.058a460.975,460.975,0,0,0-16.755,87.566" transform="translate(518.468 160.979)" fill="none" stroke="#ff6381" stroke-miterlimit="10" stroke-width="1"/>
      <path id="Trazado_19703" data-name="Trazado 19703" d="M-337.759,82.058A461.064,461.064,0,0,1-321,169.624" transform="translate(598.708 160.979)" fill="none" stroke="#ff6381" stroke-miterlimit="10" stroke-width="1"/>
      <path id="Trazado_19704" data-name="Trazado 19704" d="M-395.419.606s11.161-27.347,35.383-26.764c31.92.767,38.071,12.827,42.644,25.869Z" transform="translate(549.276 68.197)" fill="#5cc0f1"/>
      <path id="Trazado_19705" data-name="Trazado 19705" d="M-384.211,105.436s-38.283-16.97-38.262-43.909c.024-33.9,41.449-85.094,49.846-86.827s55.29,21.675,55.29,21.675,11.051-18.627,21.262-16.894c5.9,1,24.058,39.262,26.857,74.119,1.9,23.7-13.831,44.035-46.982,56.752C-316.2,110.352-364.486,130.673-384.211,105.436Z" transform="translate(526.083 68.862)" fill="#94403b"/>
      <path id="Trazado_19706" data-name="Trazado 19706" d="M-362.473,46.216s-38.24,1.893-42.02,18.358c-3,13.049,21.389,47.268,21.389,47.268s20.455-15.6,20.631-14.686,23.79,16.521,23.79,16.521S-327.42,92.611-326.043,74-337.852,48.109-362.473,46.216Z" transform="translate(541.279 130.251)" fill="#fefffa"/>
      <path id="Trazado_19707" data-name="Trazado 19707" d="M-341.525,31.285l-1.646,48.9a26.379,26.379,0,0,1-26.363,25.49h0a26.378,26.378,0,0,1-26.379-26.377V31.285Z" transform="translate(548.854 117.451)" fill="#e8705a"/>
      <path id="Trazado_19708" data-name="Trazado 19708" d="M-360.592,21.394s19.208-6.928,21.413,3.148-5.668,20.154-21.413,17.949Z" transform="translate(579.133 106.98)" fill="#e8705a"/>
      <path id="Trazado_19709" data-name="Trazado 19709" d="M-356,23.14s10.013-4.413,11.541.849-4.8,8.434-4.8,8.434-3.861-2.663-4.539-1.475-.171,4.751-.171,4.751-4.411,3.822-5.771-.8S-360.536,24.56-356,23.14Z" transform="translate(579.312 108.983)" fill="#db5f48"/>
      <path id="Trazado_19710" data-name="Trazado 19710" d="M-391.556,21.394s-19.208-6.928-21.413,3.148S-407.3,44.7-391.556,42.491Z" transform="translate(533.918 106.98)" fill="#e8705a"/>
      <path id="Trazado_19711" data-name="Trazado 19711" d="M-399.5,23.14s-10.013-4.413-11.539.849,4.794,8.434,4.794,8.434,3.861-2.663,4.539-1.475.171,4.751.171,4.751,4.413,3.822,5.771-.8S-394.962,24.56-399.5,23.14Z" transform="translate(535.681 108.983)" fill="#db5f48"/>
      <path id="Trazado_19712" data-name="Trazado 19712" d="M-320.827,18.67c-5.039-23.092-40.725-19.734-40.725-19.734S-397.24-4.422-402.279,18.67s-.4,46.2.017,54.6,10.059,41.412,40.71,41.412,40.361-29.932,40.781-38.329S-315.788,41.761-320.827,18.67Z" transform="translate(541.397 89.572)" fill="#fe7a63"/>
      <path id="Trazado_19713" data-name="Trazado 19713" d="M-384.529,39.772s5.572-6.8,11.541,0C-372.988,39.772-378.56,44.51-384.529,39.772Z" transform="translate(558.612 122.134)" fill="#e8705a"/>
      <path id="Trazado_19714" data-name="Trazado 19714" d="M-396.039,24.966c-1.105-1.789,5.748-5.23,12.5-5.44,3.044-.093,8.232,2.582,8.072,3s-.741,4.045-1.848,4.045c-.481,0-4.454-2.628-7.962-2.65C-389.846,23.893-395.5,25.833-396.039,24.966Z" transform="translate(548.644 107.368)" fill="#94403b"/>
      <path id="Trazado_19715" data-name="Trazado 19715" d="M-357.108,24.966c1.107-1.789-5.746-5.23-12.494-5.44-3.044-.093-8.232,2.582-8.074,3s.741,4.045,1.85,4.045c.481,0,4.454-2.628,7.962-2.65C-363.3,23.893-357.644,25.833-357.108,24.966Z" transform="translate(564.485 107.368)" fill="#94403b"/>
      <path id="Trazado_19716" data-name="Trazado 19716" d="M-400.6,49.311s11.918,5.592,22.826-6.281,10.319-20.187,26.017-19.088,24.063-10.1,24.063-24.156c0,0-39.1-23.881-59.573-11.393S-419.376,24.947-400.6,49.311Z" transform="translate(536.722 77.581)" fill="#94403b"/>
      <g id="Grupo_13284" data-name="Grupo 13284" transform="translate(195.756 140.813)">
        <g id="Grupo_13283" data-name="Grupo 13283" transform="translate(0 0)">
          <g id="Grupo_13282" data-name="Grupo 13282">
            <g id="Grupo_13281" data-name="Grupo 13281">
              <g id="Grupo_13280" data-name="Grupo 13280">
                <path id="Trazado_19717" data-name="Trazado 19717" d="M-372.86,33.284c-.009,3.464,1.516,6.278,3.4,6.281s3.429-2.8,3.436-6.265-1.514-6.278-3.4-6.281S-372.851,29.818-372.86,33.284Z" transform="translate(372.86 -27.019)" fill="#0d0000"/>
              </g>
            </g>
          </g>
        </g>
      </g>
      <path id="Trazado_19718" data-name="Trazado 19718" d="M-351.572,40.314c.191-3.672-18.488-4.123-18.636,0S-351.871,46.022-351.572,40.314Z" transform="translate(570.888 122.684)" fill="#e85b41"/>
      <g id="Grupo_13289" data-name="Grupo 13289" transform="translate(158.175 140.813)">
        <g id="Grupo_13288" data-name="Grupo 13288" transform="translate(0 0)">
          <g id="Grupo_13287" data-name="Grupo 13287">
            <g id="Grupo_13286" data-name="Grupo 13286">
              <g id="Grupo_13285" data-name="Grupo 13285">
                <path id="Trazado_19719" data-name="Trazado 19719" d="M-386.252,33.284c.007,3.464-1.516,6.278-3.406,6.281s-3.427-2.8-3.436-6.265,1.516-6.278,3.4-6.281S-386.261,29.818-386.252,33.284Z" transform="translate(393.094 -27.019)" fill="#0d0000"/>
              </g>
            </g>
          </g>
        </g>
      </g>
      <path id="Trazado_19720" data-name="Trazado 19720" d="M-402.668,40.314c-.191-3.672,18.488-4.123,18.636,0S-402.369,46.022-402.668,40.314Z" transform="translate(543.06 122.684)" fill="#e85b41"/>
      <path id="Trazado_19721" data-name="Trazado 19721" d="M-388.723,49.351a43.524,43.524,0,0,0,25.023.366" transform="translate(555.017 132.939)" fill="none" stroke="#0d0000" stroke-miterlimit="10" stroke-width="0.481"/>
      <path id="Trazado_19722" data-name="Trazado 19722" d="M-383.844,54.934c-.4-1.995,11.242-2.331,10.678-.505S-383.371,57.295-383.844,54.934Z" transform="translate(559.191 136.266)" fill="#e8705a"/>
      <g id="Grupo_13290" data-name="Grupo 13290" transform="translate(127.881 126.892)">
        <path id="Trazado_19723" data-name="Trazado 19723" d="M-341.408,48.942c-2.37-2.669-17.21-11.008-27.169-11.188v-.017c-.054,0-.111.007-.165.009s-.113-.009-.165-.009v.017c-9.961.18-24.8,8.519-27.171,11.188-2.4,2.7-2,20.248,4.339,26.006s16.43,6.324,22.661,6.324,16.992-.565,23.331-6.324S-339.013,51.641-341.408,48.942Z" transform="translate(419.667 -3.91)" fill="#0abba9"/>
        <path id="Trazado_19724" data-name="Trazado 19724" d="M-404.967,19.524s1.777,34.733,17.368,48.095" transform="translate(413.209 -19.524)" fill="none" stroke="#0abba9" stroke-linecap="round" stroke-linejoin="round" stroke-width="0.5"/>
        <path id="Trazado_19725" data-name="Trazado 19725" d="M-409.192,30.578s-4.214,29.032,24.847,43.61" transform="translate(409.405 -10.047)" fill="none" stroke="#0abba9" stroke-linecap="round" stroke-linejoin="round" stroke-width="0.5"/>
        <path id="Trazado_19726" data-name="Trazado 19726" d="M-348.853,19.641s-4.354,41.871-20.324,45.922" transform="translate(443.892 -19.424)" fill="none" stroke="#0abba9" stroke-linecap="round" stroke-miterlimit="10" stroke-width="0.5"/>
        <path id="Trazado_19727" data-name="Trazado 19727" d="M-342.877,31.285s-2.611,36.052-25.677,46.776" transform="translate(444.426 -9.441)" fill="none" stroke="#0abba9" stroke-linecap="round" stroke-miterlimit="10" stroke-width="0.5"/>
        <path id="Trazado_19728" data-name="Trazado 19728" d="M-346.7,49.009c-2.062-2.322-14.966-9.574-23.627-9.73v-.013c-.046,0-.1.006-.143.006s-.1-.006-.145-.006v.013c-8.661.156-21.565,7.409-23.625,9.73-2.084,2.346-1.742,17.607,3.772,22.615s14.286,5.5,19.7,5.5,14.777-.49,20.291-5.5S-344.618,51.355-346.7,49.009Z" transform="translate(421.395 -2.599)" fill="none" stroke="#0bcfbb" stroke-miterlimit="10" stroke-width="0.5" stroke-dasharray="2 2"/>
      </g>
    </g>
    <path id="Trazado_19729" data-name="Trazado 19729" d="M-520.969,238.549c-18.709-8.191,442.031-14.857,459.7,2.977S-469.135,261.239-520.969,238.549Z" transform="translate(0 239.211)" fill="#90a5b5"/>
    <g id="Grupo_13296" data-name="Grupo 13296" transform="translate(-481.813 184.343)">
      <g id="Grupo_13294" data-name="Grupo 13294">
        <rect id="Rectángulo_3166" data-name="Rectángulo 3166" width="9.842" height="55.26" transform="translate(330.318)" fill="#192157"/>
        <g id="Grupo_13293" data-name="Grupo 13293" transform="translate(0 53.23)">
          <path id="Trazado_19730" data-name="Trazado 19730" d="M-433.554,244.5h-50.957a8.547,8.547,0,0,1-8.521-8.521h0a8.548,8.548,0,0,1,8.521-8.523h50.957a8.547,8.547,0,0,1,8.521,8.523h0A8.546,8.546,0,0,1-433.554,244.5Z" transform="translate(506.239 -0.741)" fill="#1d2766"/>
          <path id="Trazado_19731" data-name="Trazado 19731" d="M-280.034,244.5h-50.955a8.548,8.548,0,0,1-8.523-8.521h0a8.548,8.548,0,0,1,8.523-8.523h50.955a8.548,8.548,0,0,1,8.523,8.523h0A8.548,8.548,0,0,1-280.034,244.5Z" transform="translate(637.853 -0.741)" fill="#1d2766"/>
          <path id="Trazado_19732" data-name="Trazado 19732" d="M-455.638,199.679v-78.6a15.689,15.689,0,0,1,15.689-15.689H-160.8a15.687,15.687,0,0,1,15.687,15.689v166.8A15.687,15.687,0,0,1-160.8,303.571h-84.884V196.479a16.653,16.653,0,0,0-16.653-16.654h-61.857a47.061,47.061,0,0,0-37.05,18.042l-8.341,10.646a17.881,17.881,0,0,1-14.077,6.855h-56.289A15.689,15.689,0,0,1-455.638,199.679Z" transform="translate(538.297 -105.389)" fill="#e6e6e6"/>
          <line id="Línea_203" data-name="Línea 203" x2="257.997" transform="translate(112.32 19.472)" fill="none" stroke="#c7c7c7" stroke-miterlimit="10" stroke-width="1"/>
          <path id="Trazado_19733" data-name="Trazado 19733" d="M-378.05,119.066v35.928a13.677,13.677,0,0,0,13.675,13.677h46.07a42.7,42.7,0,0,1,42.7,42.7v92.2h48.29a15.687,15.687,0,0,0,15.687-15.689v-166.8a15.687,15.687,0,0,0-15.687-15.689h-137.06A13.677,13.677,0,0,0-378.05,119.066Z" transform="translate(604.814 -105.389)" fill="#fff"/>
          <line id="Línea_204" data-name="Línea 204" x1="63.977" transform="translate(329.21 182.494)" fill="none" stroke="#e6e6e6" stroke-miterlimit="10" stroke-width="1"/>
          <path id="Trazado_19734" data-name="Trazado 19734" d="M-120.593,211.083v41.048a8.96,8.96,0,0,1-8.958,8.96H-491.185a8.959,8.959,0,0,1-8.958-8.96V211.083a12.922,12.922,0,0,1,12.921-12.921h353.707A12.922,12.922,0,0,1-120.593,211.083Z" transform="translate(500.143 -25.854)" fill="#e6e6e6"/>
          <path id="Trazado_19735" data-name="Trazado 19735" d="M-433.226,164.6h3.475v57.71a1.738,1.738,0,0,1-1.738,1.738h0a1.738,1.738,0,0,1-1.737-1.738Z" transform="translate(557.511 -54.625)" fill="#28378f"/>
          <line id="Línea_205" data-name="Línea 205" y2="62.929" transform="translate(235.995 172.308)" fill="none" stroke="#c7c7c7" stroke-miterlimit="10" stroke-width="1"/>
          <line id="Línea_206" data-name="Línea 206" y2="109.978" transform="translate(112.32 0.001)" fill="none" stroke="#c7c7c7" stroke-miterlimit="10" stroke-width="1"/>
          <rect id="Rectángulo_3167" data-name="Rectángulo 3167" width="6.176" height="50.178" transform="translate(133.935 7.893)" fill="#26388f"/>
          <path id="Trazado_19736" data-name="Trazado 19736" d="M-441.464,138.993h8.354a6.634,6.634,0,0,1,5.865,3.534l.7,1.326a6.636,6.636,0,0,0,5.867,3.534h12.791a1.736,1.736,0,0,1,1.737,1.737h0a1.735,1.735,0,0,1-1.737,1.737h-33.58a1.736,1.736,0,0,1-1.737-1.737v-8.4A1.737,1.737,0,0,1-441.464,138.993Z" transform="translate(548.96 -76.58)" fill="#9e9e9e"/>
          <path id="Trazado_19737" data-name="Trazado 19737" d="M-397.042,157.4a12.014,12.014,0,0,1-12.013,12.013A12.013,12.013,0,0,1-421.068,157.4a12.014,12.014,0,0,1,12.013-12.015A12.014,12.014,0,0,1-397.042,157.4Z" transform="translate(567.934 -71.102)" fill="#ccc"/>
          <path id="Trazado_19738" data-name="Trazado 19738" d="M-409.312,153.523a3.618,3.618,0,0,1-3.618,3.618,3.618,3.618,0,0,1-3.618-3.618,3.619,3.619,0,0,1,3.618-3.62A3.619,3.619,0,0,1-409.312,153.523Z" transform="translate(571.81 -67.227)" fill="#192157"/>
          <rect id="Rectángulo_3168" data-name="Rectángulo 3168" width="28.177" height="5.989" transform="translate(105.759 109.979)" fill="#192157"/>
          <path id="Trazado_19739" data-name="Trazado 19739" d="M-314.163,203.144h0a4.065,4.065,0,0,1-4.053-4.053V179.986a4.065,4.065,0,0,1,4.053-4.053h0a4.064,4.064,0,0,1,4.053,4.053v19.106A4.064,4.064,0,0,1-314.163,203.144Z" transform="translate(656.11 -44.911)" fill="#192157"/>
          <path id="Trazado_19740" data-name="Trazado 19740" d="M-370.687,105.389v7.892h150.67" transform="translate(611.127 -105.389)" fill="none" stroke="#e6e6e6" stroke-miterlimit="10" stroke-width="1"/>
          <line id="Línea_207" data-name="Línea 207" y2="185.228" transform="translate(377.498 0.001)" fill="none" stroke="#e6e6e6" stroke-miterlimit="10" stroke-width="1"/>
          <rect id="Rectángulo_3169" data-name="Rectángulo 3169" width="10.079" height="10.08" rx="0.635" transform="translate(193.869 211.808)" fill="#26388f"/>
          <rect id="Rectángulo_3170" data-name="Rectángulo 3170" width="10.08" height="10.08" rx="0.635" transform="translate(212.567 211.808)" fill="#26388f"/>
          <rect id="Rectángulo_3171" data-name="Rectángulo 3171" width="128.478" height="7.347" transform="translate(61.784 172.308)" fill="#ccc"/>
          <g id="Grupo_13292" data-name="Grupo 13292" transform="translate(269.72 17.941)">
            <path id="Rectángulo_3172" data-name="Rectángulo 3172" d="M5.036,0H91.585a5.037,5.037,0,0,1,5.037,5.037v23.5a5.036,5.036,0,0,1-5.036,5.036H5.037A5.037,5.037,0,0,1,0,28.539V5.036A5.036,5.036,0,0,1,5.036,0Z" fill="#5cc0f1"/>
            <rect id="Rectángulo_3173" data-name="Rectángulo 3173" width="49.735" height="24.317" rx="3.195" transform="translate(5.5 4.629)" fill="#192157"/>
          </g>
          <line id="Línea_208" data-name="Línea 208" x2="36.595" transform="translate(292.615 123.108)" fill="none" stroke="#c7c7c7" stroke-miterlimit="10" stroke-width="1"/>
        </g>
        <rect id="Rectángulo_3174" data-name="Rectángulo 3174" width="18.238" height="46.768" rx="2.26" transform="translate(326.12 4.246)" fill="#5cc0f1"/>
        <line id="Línea_209" data-name="Línea 209" x2="18.238" y2="1.496" transform="translate(326.12 8.443)" fill="none" stroke="#fff" stroke-miterlimit="10" stroke-width="0.25"/>
        <line id="Línea_210" data-name="Línea 210" x1="18.238" y2="1.303" transform="translate(326.12 12.11)" fill="none" stroke="#fff" stroke-miterlimit="10" stroke-width="0.25"/>
        <line id="Línea_211" data-name="Línea 211" x1="18.238" y2="1.303" transform="translate(326.12 15.584)" fill="none" stroke="#fff" stroke-miterlimit="10" stroke-width="0.25"/>
        <line id="Línea_212" data-name="Línea 212" x2="18.238" y2="0.724" transform="translate(326.12 20.071)" fill="none" stroke="#fff" stroke-miterlimit="10" stroke-width="0.25"/>
        <line id="Línea_213" data-name="Línea 213" x1="18.238" y2="1.158" transform="translate(326.12 24.268)" fill="none" stroke="#fff" stroke-miterlimit="10" stroke-width="0.25"/>
        <line id="Línea_214" data-name="Línea 214" x2="18.238" y2="1.544" transform="translate(326.12 28.756)" fill="none" stroke="#fff" stroke-miterlimit="10" stroke-width="0.25"/>
        <line id="Línea_215" data-name="Línea 215" x1="17.906" y1="1.775" transform="translate(326.12 46.671)" fill="none" stroke="#fff" stroke-miterlimit="10" stroke-width="0.25"/>
        <line id="Línea_216" data-name="Línea 216" y1="1.303" x2="18.238" transform="translate(326.12 43.198)" fill="none" stroke="#fff" stroke-miterlimit="10" stroke-width="0.25"/>
        <line id="Línea_217" data-name="Línea 217" y1="1.303" x2="18.238" transform="translate(326.12 39.724)" fill="none" stroke="#fff" stroke-miterlimit="10" stroke-width="0.25"/>
        <line id="Línea_218" data-name="Línea 218" x1="18.238" y1="0.724" transform="translate(326.12 35.816)" fill="none" stroke="#fff" stroke-miterlimit="10" stroke-width="0.25"/>
        <line id="Línea_219" data-name="Línea 219" x1="18.238" y1="1.544" transform="translate(326.12 31.651)" fill="none" stroke="#fff" stroke-miterlimit="10" stroke-width="0.25"/>
      </g>
      <path id="Trazado_19741" data-name="Trazado 19741" d="M-271.284,125.084s-3.287-13.854-4.84-19.366-27.39-1.93-28.872.548,4.337,7.175,4.337,7.175-3.845,3.5-2.493,5.459a7.581,7.581,0,0,0,4.22,2.545s-6.133,2.242-4.755,4.738,10.115.475,10.115.475,1.38,14.617,11.688,15.464Z" transform="translate(667.237 -54.367)" fill="#fe7a63"/>
      <path id="Trazado_19742" data-name="Trazado 19742" d="M-292.663,131.841s0,100.917,7.832,104.784c10.778,5.319,24.021-5.3,21.307-29.329s-18.54-92.492-18.54-92.492Z" transform="translate(678.017 -44.087)" fill="#fe7a63"/>
      <g id="Grupo_13295" data-name="Grupo 13295" transform="translate(99.898 222.401)">
        <path id="Trazado_19743" data-name="Trazado 19743" d="M-446.289,196.473s-2.023,54.906,16.019,57.6,35.857-6.686,39.637-57.6Zm20.02,49.581c-14.038-1.933-10.562-20.57-10.562-20.57s22.271-3.936,31.264,0C-405.567,225.484-412.229,247.985-426.269,246.054Z" transform="translate(446.357 -196.473)" fill="#0abba9"/>
        <path id="Trazado_19744" data-name="Trazado 19744" d="M-444.781,196.473s.81,19.1,1.621,24.971c0,0,25.308-5.466,40.29,0,0,0,5.264-17.24,5.669-24.715" transform="translate(447.707 -196.473)" fill="none" stroke="#0bcfbb" stroke-miterlimit="10" stroke-width="0.25" stroke-dasharray="2 2"/>
      </g>
    </g>
  </g>
</svg>
