<svg xmlns="http://www.w3.org/2000/svg" width="1494.575" height="509.427" viewBox="0 0 1494.575 509.427">
  <g id="Grupo_1434" data-name="Grupo 1434" transform="translate(-1436.425 2040.459)">
    <g id="Grupo_1430" data-name="Grupo 1430" transform="translate(1011 -2015.926)">
      <path id="Trazado_11108" data-name="Trazado 11108" d="M0,0H1494.575V509.427H0Z" transform="translate(425.425 -24.533)" fill="#92d4e3" opacity="0.992"/>
    </g>
    <path id="Sustracci贸n_5" data-name="Sustracci贸n 5" d="M-1212.937,1470.312H-1316.5v-5.96h103.832v5.686A.294.294,0,0,1-1212.937,1470.312Zm.269-8.356H-1316.5v-27.742h62v-48.151h-61.806v13.767a3.9,3.9,0,0,1-.194,1.216v-41.627h95.668a6.216,6.216,0,0,1,4.488,1.918,6.55,6.55,0,0,1,1.856,4.589l9.579,88.153a7.877,7.877,0,0,1-2.285,5.557A7.64,7.64,0,0,1-1212.667,1461.956Zm-72.466-24.932a1.137,1.137,0,0,0-1.148,1.095v19.933a1.186,1.186,0,0,0,1.148,1.164,1.139,1.139,0,0,0,1.08-1.164v-19.933A1.076,1.076,0,0,0-1285.133,1437.024Zm-11.74,0a1.076,1.076,0,0,0-1.08,1.095v19.933a1.139,1.139,0,0,0,1.08,1.164,1.139,1.139,0,0,0,1.079-1.164v-19.933A1.075,1.075,0,0,0-1296.874,1437.024Zm72.466-13.494a.613.613,0,0,0-.608.618v4.589a.612.612,0,0,0,.608.615h4.522a.612.612,0,0,0,.607-.615v-4.589a.613.613,0,0,0-.607-.618Zm-9.648,0a.627.627,0,0,0-.675.618v4.589a.626.626,0,0,0,.675.615h4.52a.612.612,0,0,0,.608-.615v-4.589a.613.613,0,0,0-.608-.618Zm-9.717,0a.613.613,0,0,0-.607.618v4.589a.612.612,0,0,0,.607.615h4.589a.612.612,0,0,0,.608-.615v-4.589a.613.613,0,0,0-.608-.618Zm19.3-9.726a.613.613,0,0,0-.607.616v4.657a.613.613,0,0,0,.607.616h4.589a.613.613,0,0,0,.607-.616v-4.657a.613.613,0,0,0-.607-.616Zm-9.648,0a.613.613,0,0,0-.607.616v4.657a.605.605,0,0,0,.607.616h4.521a.626.626,0,0,0,.674-.616v-4.657a.626.626,0,0,0-.674-.616Zm-9.649,0a.613.613,0,0,0-.607.616v4.657a.613.613,0,0,0,.607.616h4.52a.606.606,0,0,0,.607-.616v-4.657a.613.613,0,0,0-.607-.616Zm19.3-9.659a.613.613,0,0,0-.607.618v4.658a.612.612,0,0,0,.607.616h4.52a.676.676,0,0,0,.676-.616v-4.658a.674.674,0,0,0-.676-.618Zm-9.648,0a.606.606,0,0,0-.607.618v4.658a.613.613,0,0,0,.607.616h4.521a.612.612,0,0,0,.607-.616v-4.658a.613.613,0,0,0-.607-.618Zm-9.649,0a.627.627,0,0,0-.675.618v4.658a.626.626,0,0,0,.675.616h4.52a.612.612,0,0,0,.607-.616v-4.658a.606.606,0,0,0-.607-.618Zm2.362-30.205a1.7,1.7,0,0,0-1.232.539,1.88,1.88,0,0,0-.523,1.31v18.289a1.88,1.88,0,0,0,.523,1.309,1.7,1.7,0,0,0,1.232.539h18.081a1.7,1.7,0,0,0,1.232-.539,1.879,1.879,0,0,0,.524-1.309v-18.289a1.88,1.88,0,0,0-.524-1.31,1.7,1.7,0,0,0-1.232-.539Zm-41.564-9.589a6.058,6.058,0,0,0-6.005,6.1,6.058,6.058,0,0,0,6.005,6.1h15.991a6.058,6.058,0,0,0,6.006-6.1,6.058,6.058,0,0,0-6.006-6.1Zm15.587,8.767h-7.221a2.655,2.655,0,0,1-2.631-2.672,2.684,2.684,0,0,1,.759-1.9,2.6,2.6,0,0,1,1.873-.77h7.221a2.6,2.6,0,0,1,1.872.77,2.683,2.683,0,0,1,.759,1.9A2.655,2.655,0,0,1-1267.387,1373.118Zm40.079-16.1H-1315.5v-2.809a.757.757,0,0,1,.741-.754h86.7a.759.759,0,0,1,.743.754v2.808Zm-67.34-5.96h-13.495v-1.78a.758.758,0,0,1,.743-.753h4.992V1343.8h-3.576v-1.849a.758.758,0,0,1,.743-.754h7.692a.757.757,0,0,1,.741.754v1.849h-3.576v4.726h4.994a.757.757,0,0,1,.741.753v1.78Z" transform="translate(2774 -3063)" fill="#b8e9f4" stroke="rgba(0,0,0,0)" stroke-miterlimit="10" stroke-width="1"/>
    <path id="Sustracci贸n_4" data-name="Sustracci贸n 4" d="M-1225.366,1558.313h-138.44a.374.374,0,0,1-.343-.348v-7.192h138.783v7.538Zm0-10.569h-138.783a9.578,9.578,0,0,1-3.816-.789,9.92,9.92,0,0,1-3.134-2.146,10.042,10.042,0,0,1-2.122-3.169,9.876,9.876,0,0,1-.781-3.859V1522.7a10.093,10.093,0,0,1,.781-3.909,10.085,10.085,0,0,1,2.122-3.2,9.881,9.881,0,0,1,3.134-2.156,9.555,9.555,0,0,1,3.816-.791H-1257.5v-60.905h-78.471v17.414a4.966,4.966,0,0,1-1.5,3.552,5.033,5.033,0,0,1-3.554,1.473h-17.9a5.037,5.037,0,0,1-3.588-1.473,4.987,4.987,0,0,1-1.467-3.552v-46.785a4.261,4.261,0,0,1,4.284-4.331h134.328v18.367h-15.51a2.164,2.164,0,0,0-1.564.682,2.372,2.372,0,0,0-.664,1.656v23.134a2.372,2.372,0,0,0,.664,1.656,2.164,2.164,0,0,0,1.564.682h15.51v10.6a.764.764,0,0,0-.52-.2h-5.739a.777.777,0,0,0-.771.781v5.892a.776.776,0,0,0,.771.78h5.739a.766.766,0,0,0,.52-.2v5.114a.93.93,0,0,0-.52-.148h-5.739a.776.776,0,0,0-.771.78v5.892a.767.767,0,0,0,.771.779h5.739a.932.932,0,0,0,.52-.147v5.133a.764.764,0,0,0-.435-.134h-5.74a.794.794,0,0,0-.856.781v5.8a.793.793,0,0,0,.856.779h5.74a.764.764,0,0,0,.435-.134v41.375Zm-71.022-31.537a1.512,1.512,0,0,0-1.018.4,1.336,1.336,0,0,0-.439.985v25.213a1.5,1.5,0,0,0,1.457,1.472,1.31,1.31,0,0,0,.975-.444,1.545,1.545,0,0,0,.4-1.028v-25.213A1.363,1.363,0,0,0-1296.388,1516.207Zm-14.906,0a1.363,1.363,0,0,0-1.371,1.385v25.213a1.545,1.545,0,0,0,.4,1.028,1.31,1.31,0,0,0,.975.444,1.31,1.31,0,0,0,.974-.444,1.544,1.544,0,0,0,.4-1.028v-25.213A1.363,1.363,0,0,0-1311.294,1516.207Zm67.418-17.069a.777.777,0,0,0-.771.781v5.8a.776.776,0,0,0,.771.779h5.826a.776.776,0,0,0,.771-.779v-5.8a.777.777,0,0,0-.771-.781Zm0-12.3a.776.776,0,0,0-.771.78v5.892a.776.776,0,0,0,.771.779h5.739a.767.767,0,0,0,.771-.779v-5.892a.776.776,0,0,0-.771-.78Zm0-12.217a.794.794,0,0,0-.856.781v5.892a.793.793,0,0,0,.856.78h5.739a.776.776,0,0,0,.771-.78V1475.4a.768.768,0,0,0-.771-.781Zm-49.771-50.336a7.529,7.529,0,0,0-5.387,2.264,7.7,7.7,0,0,0-2.238,5.447,7.7,7.7,0,0,0,2.238,5.447,7.53,7.53,0,0,0,5.387,2.263h20.3a7.529,7.529,0,0,0,5.387-2.263,7.7,7.7,0,0,0,2.238-5.447,7.7,7.7,0,0,0-2.238-5.447,7.528,7.528,0,0,0-5.387-2.264Zm-44.974,85.339h-22.787v-2.34a.888.888,0,0,1,.856-.953h20.989a.96.96,0,0,1,.942.953v2.34Zm-8.908-11.437h-4.97c-.164,0-.341-.081-.341-.259V1495.5h-3.513a.945.945,0,0,1-.858-.953.934.934,0,0,1,.858-.866h3.513V1483.63h5.567v14.3A.228.228,0,0,1-1347.529,1498.186Zm4.281-17.673h-13.62a.887.887,0,0,1-.942-.868v-2.425h15.505v2.425A.888.888,0,0,1-1343.248,1480.513Zm69.391-45.139h-9.167a3.364,3.364,0,0,1-3.341-3.38,3.387,3.387,0,0,1,.963-2.4,3.312,3.312,0,0,1,2.377-.974h9.167a3.312,3.312,0,0,1,2.377.974,3.387,3.387,0,0,1,.964,2.4A3.364,3.364,0,0,1-1273.857,1435.374Zm48.491-20.359h-109.571v-3.554a.96.96,0,0,1,.941-.953h108.63v4.506Zm-83.1-7.539H-1325.6v-2.251a.961.961,0,0,1,.943-.953h6.339v-5.978h-4.541v-2.34a.961.961,0,0,1,.943-.953h9.766a.96.96,0,0,1,.941.953v2.34h-4.54v5.978h6.341a.96.96,0,0,1,.941.953v2.251Z" transform="translate(4136.866 -3245)" fill="#b8e9f4" stroke="rgba(0,0,0,0)" stroke-miterlimit="10" stroke-width="1"/>
  </g>
</svg>
