<svg xmlns="http://www.w3.org/2000/svg" width="119.488" height="95.286" viewBox="0 0 119.488 95.286">
  <g id="Grupo_13396" data-name="Grupo 13396" transform="translate(-1612.817 -423.128)">
    <path id="Trazado_19767" data-name="Trazado 19767" d="M1704.362,430.611h7.482v11.224h-7.482Z" fill="#ffe462"/>
    <path id="Trazado_19768" data-name="Trazado 19768" d="M1704.362,438.094h7.482v3.741h-7.482Z" fill="#ffbf5d"/>
    <path id="Trazado_19769" data-name="Trazado 19769" d="M1629.536,475.507h7.482V486.73h-7.482Z" fill="#d7eef6"/>
    <path id="Trazado_19770" data-name="Trazado 19770" d="M1629.536,475.507h7.482v3.741h-7.482Z" fill="#d7eef6"/>
    <path id="Trazado_19771" data-name="Trazado 19771" d="M1622.053,441.835v33.672H1644.5l11.224-11.224h67.343V441.835Z" fill="#a7c4d9"/>
    <path id="Trazado_19772" data-name="Trazado 19772" d="M1717.456,441.835h5.612v22.448h-5.612Z" fill="#92adbf"/>
    <path id="Trazado_19773" data-name="Trazado 19773" d="M1629.536,449.317h7.482v18.707h-7.482Z" fill="#49f0f6"/>
    <path id="Trazado_19774" data-name="Trazado 19774" d="M1723.068,449.317h7.483v22.448h-7.483Z" fill="#49f0f6"/>
    <path id="Trazado_19775" data-name="Trazado 19775" d="M1723.068,466.153h7.483v5.612h-7.483Z" fill="#54d3f5"/>
    <path id="Trazado_19776" data-name="Trazado 19776" d="M1614.571,501.7h78.567v14.965h-78.567Z" fill="#a7c4d9"/>
    <path id="Trazado_19777" data-name="Trazado 19777" d="M1687.526,501.7h5.612v14.965h-5.612Z" fill="#92adbf"/>
    <path id="Trazado_19778" data-name="Trazado 19778" d="M1648.242,501.7v7.482H1625.8V501.7" fill="#d7eef6"/>
    <path id="Trazado_19779" data-name="Trazado 19779" d="M1693.138,464.283h29.93v52.378h-29.93Z" fill="#a7c4d9"/>
    <path id="Trazado_19780" data-name="Trazado 19780" d="M1717.456,464.283h5.612v52.378h-5.612Z" fill="#92adbf"/>
    <path id="Trazado_19781" data-name="Trazado 19781" d="M1693.138,464.283h29.93v3.741h-29.93Z" fill="#92adbf"/>
    <circle id="Elipse_530" data-name="Elipse 530" cx="7.483" cy="7.483" r="7.483" transform="translate(1700.62 475.507)" fill="#d7eef6"/>
    <path id="Trazado_19782" data-name="Trazado 19782" d="M1700.62,449.317h14.966V456.8H1700.62Z" fill="#fff"/>
    <g id="Grupo_13394" data-name="Grupo 13394">
      <g id="Grupo_13392" data-name="Grupo 13392">
        <path id="Trazado_19783" data-name="Trazado 19783" d="M1698.75,499.942h3.741v3.507h-3.741Z" fill="#fff"/>
      </g>
      <g id="Grupo_13393" data-name="Grupo 13393">
        <path id="Trazado_19784" data-name="Trazado 19784" d="M1713.715,499.942h3.741v3.507h-3.741Z" fill="#fff"/>
      </g>
    </g>
    <path id="Trazado_19785" data-name="Trazado 19785" d="M1663.208,449.317h7.482V456.8h-7.482Z" fill="#fff"/>
    <g id="Grupo_13395" data-name="Grupo 13395">
      <path id="Trazado_19786" data-name="Trazado 19786" d="M1698.867,447.564v10.99h18.472v-10.99Zm3.507,3.507h3.975v3.975h-3.975Zm11.458,3.975h-3.975v-3.975h3.975Z"/>
      <path id="Trazado_19787" data-name="Trazado 19787" d="M1701.572,476.458a9.236,9.236,0,1,0,13.062,0A9.247,9.247,0,0,0,1701.572,476.458Zm10.582,10.582a5.727,5.727,0,1,1-1.436-9.146l-2.532,2.532,2.48,2.481,2.532-2.533A5.738,5.738,0,0,1,1712.154,487.04Z"/>
      <path id="Trazado_19788" data-name="Trazado 19788" d="M1706.232,499.942h3.742v3.507h-3.742Z"/>
      <path id="Trazado_19789" data-name="Trazado 19789" d="M1672.444,458.554v-3.742h20.694V451.3h-20.694v-3.741h-10.99V451.3h-5.729v3.507h5.729v3.742Zm-7.483-7.483h3.975v3.975h-3.975Z"/>
      <path id="Trazado_19790" data-name="Trazado 19790" d="M1638.772,469.778V447.564h-10.99v22.214Zm-7.482-18.707h3.975v15.2h-3.975Z"/>
      <path id="Trazado_19791" data-name="Trazado 19791" d="M1732.305,447.564h-7.483v-7.483H1713.6v-7.716h1.988v-3.508h-5.729v-5.729h-3.508v5.729h-5.729v3.508h1.988v7.716h-11.341v3.508h30.047v18.94H1655l-11.224,11.224h-19.968V443.589h63.719v-3.508h-52.495v-5.729h-3.508v5.729H1620.3V477.26h7.482v11.224h3.741v5.729h3.508v-5.729h7.6v-3.507h-3.858V477.26h6.455l11.224-11.224h34.933v33.906h-28.176v3.507h28.176v11.458h-75.06V503.449h7.717v7.483H1650v-7.483h9.47v-3.507h-46.649v18.472h112.005V473.519h7.483Zm-26.19-15.2h3.976v7.716h-3.976Zm-70.85,52.612h-3.975V477.26h3.975Zm11.224,22.447h-18.941v-3.975h18.941Zm48.4,7.483V466.036h26.422v48.871Zm33.905-44.895h-3.975V451.071h3.975Z"/>
    </g>
  </g>
</svg>
