<svg xmlns="http://www.w3.org/2000/svg" width="107.023" height="112" viewBox="0 0 107.023 112">
  <g id="filled_outline" data-name="filled outline" transform="translate(-1455.494 -406.06)">
    <path id="Trazado_19792" data-name="Trazado 19792" d="M1530.161,416.016a2.489,2.489,0,0,1-2.489-2.489v-4.978a2.489,2.489,0,1,1,4.978,0v4.978A2.489,2.489,0,0,1,1530.161,416.016Z" fill="#a8a8a8"/>
    <path id="Trazado_19793" data-name="Trazado 19793" d="M1475.405,463.3h1.506a6.941,6.941,0,0,0,5.555-2.778l1.276-1.7a13.687,13.687,0,0,1,10.952-5.476h14.311a13.689,13.689,0,0,1,0,27.378h-46.044a4.978,4.978,0,0,0-4.978,4.978v19.911h94.578V443.394a9.955,9.955,0,0,0-9.956-9.956h-67.2Z" fill="#eaeae8"/>
    <path id="Trazado_19794" data-name="Trazado 19794" d="M1510.25,480.727v24.889h-52.267V485.7a4.978,4.978,0,0,1,4.978-4.978Z" fill="#cbcbcb"/>
    <path id="Trazado_19795" data-name="Trazado 19795" d="M1467.939,480.727h29.866V495.66h-29.866Z" fill="#d32b39"/>
    <path id="Trazado_19796" data-name="Trazado 19796" d="M1470.428,475.749a2.489,2.489,0,0,1-2.489-2.489V463.3a2.489,2.489,0,0,1,4.978,0v9.955A2.489,2.489,0,0,1,1470.428,475.749Z" fill="#026ca2"/>
    <circle id="Elipse_531" data-name="Elipse 531" cx="4.978" cy="4.978" r="4.978" transform="translate(1532.65 448.371)" fill="#0296e5"/>
    <circle id="Elipse_532" data-name="Elipse 532" cx="4.978" cy="4.978" r="4.978" transform="translate(1532.65 465.794)" fill="#0296e5"/>
    <path id="Trazado_19797" data-name="Trazado 19797" d="M1495.317,445.883h-4.978a2.489,2.489,0,1,1,0-4.978h4.978a2.489,2.489,0,0,1,0,4.978Z" fill="#a8a8a8"/>
    <path id="Trazado_19798" data-name="Trazado 19798" d="M1507.761,445.883h-2.489a2.489,2.489,0,1,1,0-4.978h2.489a2.489,2.489,0,1,1,0,4.978Z" fill="#a8a8a8"/>
    <path id="Trazado_19799" data-name="Trazado 19799" d="M1552.561,448.371h7.467v12.445h-7.467Z" fill="#0296e5"/>
    <path id="Trazado_19800" data-name="Trazado 19800" d="M1552.561,470.771h7.467v12.445h-7.467Z" fill="#0296e5"/>
    <path id="Trazado_19801" data-name="Trazado 19801" d="M1552.561,448.371h2.489v12.445h-2.489Z" fill="#026ca2"/>
    <path id="Trazado_19802" data-name="Trazado 19802" d="M1552.561,470.771h2.489v12.445h-2.489Z" fill="#026ca2"/>
    <path id="Trazado_19803" data-name="Trazado 19803" d="M1542.6,493.171h-22.4a2.488,2.488,0,0,1,0-4.977h22.4a2.488,2.488,0,1,1,0,4.977Z" fill="#a8a8a8"/>
    <path id="Trazado_19804" data-name="Trazado 19804" d="M1522.694,413.527h14.934v19.911h-14.934Z" fill="#ff6268"/>
    <path id="Trazado_19805" data-name="Trazado 19805" d="M1522.694,420.994h14.934v4.977h-14.934Z" fill="#ee5e5b"/>
    <path id="Trazado_19806" data-name="Trazado 19806" d="M1460.472,505.616h14.933v9.955h-14.933Z" fill="#eaeae8"/>
    <path id="Trazado_19807" data-name="Trazado 19807" d="M1532.65,505.616h14.933v9.955H1532.65Z" fill="#eaeae8"/>
    <path id="Trazado_19808" data-name="Trazado 19808" d="M1460.472,505.616h14.933v4.978h-14.933Z" fill="#a8a8a8"/>
    <path id="Trazado_19809" data-name="Trazado 19809" d="M1532.65,505.616h14.933v4.978H1532.65Z" fill="#a8a8a8"/>
    <path id="Trazado_19810" data-name="Trazado 19810" d="M1474.161,433.438h1.244V463.3h-4.977a7.467,7.467,0,0,1-7.467-7.467v-11.2a11.2,11.2,0,0,1,11.2-11.2Z" fill="#0296e5"/>
    <circle id="Elipse_533" data-name="Elipse 533" cx="4.978" cy="4.978" r="4.978" transform="translate(1525.183 485.705)" fill="#0296e5"/>
    <path id="Trazado_19811" data-name="Trazado 19811" d="M1467.939,480.727h4.978v2.489h-4.978Z" fill="#ff6268"/>
    <path id="Trazado_19812" data-name="Trazado 19812" d="M1537.628,445.883a7.467,7.467,0,1,0,7.466,7.466A7.467,7.467,0,0,0,1537.628,445.883Zm0,9.955a2.489,2.489,0,1,1,2.489-2.489A2.489,2.489,0,0,1,1537.628,455.838Z"/>
    <path id="Trazado_19813" data-name="Trazado 19813" d="M1537.628,463.3a7.467,7.467,0,1,0,7.466,7.466A7.467,7.467,0,0,0,1537.628,463.3Zm0,9.955a2.489,2.489,0,1,1,2.489-2.489A2.489,2.489,0,0,1,1537.628,473.26Z"/>
    <path id="Trazado_19814" data-name="Trazado 19814" d="M1495.317,440.9h-4.978a2.489,2.489,0,1,0,0,4.978h4.978a2.489,2.489,0,0,0,0-4.978Z"/>
    <path id="Trazado_19815" data-name="Trazado 19815" d="M1507.761,440.9h-2.489a2.489,2.489,0,1,0,0,4.978h2.489a2.489,2.489,0,1,0,0-4.978Z"/>
    <path id="Trazado_19816" data-name="Trazado 19816" d="M1560.028,445.883h-4.978v-2.489a12.459,12.459,0,0,0-12.445-12.445h-2.488V413.527a2.489,2.489,0,0,0-2.489-2.489h-4.978v-2.489a2.489,2.489,0,1,0-4.978,0v2.489h-4.978a2.489,2.489,0,0,0-2.489,2.489v17.422h-46.044a13.7,13.7,0,0,0-13.689,13.689v11.2a9.974,9.974,0,0,0,7.467,9.641v7.781a2.489,2.489,0,0,0,4.978,0v-7.466h3.994a9.48,9.48,0,0,0,7.548-3.773l1.275-1.7a11.252,11.252,0,0,1,8.96-4.48h14.311a11.2,11.2,0,0,1,0,22.4h-46.044a7.476,7.476,0,0,0-7.467,7.467v19.911a2.49,2.49,0,0,0,2.489,2.489v7.466a2.489,2.489,0,0,0,2.489,2.489h14.933a2.489,2.489,0,0,0,2.489-2.489v-7.466h52.267v7.466a2.489,2.489,0,0,0,2.489,2.489h14.933a2.489,2.489,0,0,0,2.489-2.489v-7.466h2.489a2.489,2.489,0,0,0,2.489-2.489V485.7h4.978a2.49,2.49,0,0,0,2.489-2.489V470.771a2.489,2.489,0,0,0-2.489-2.488h-4.978V463.3h4.978a2.49,2.49,0,0,0,2.489-2.489V448.371A2.489,2.489,0,0,0,1560.028,445.883Zm-87.111,14.933h-2.489a4.984,4.984,0,0,1-4.978-4.978v-11.2a8.724,8.724,0,0,1,7.467-8.622Zm-2.489,22.4h24.889v9.955h-24.889Zm2.489,29.867h-9.956v-4.978h9.956Zm34.844-9.956h-47.289V485.7a2.492,2.492,0,0,1,2.489-2.489h2.489V495.66a2.489,2.489,0,0,0,2.489,2.489h29.866a2.488,2.488,0,0,0,2.489-2.489V483.216h7.467Zm17.422-87.111h9.956v4.978h-9.956Zm0,9.955h9.956v4.978h-9.956Zm19.911,87.112h-9.955v-4.978h9.955Zm4.978-9.956h-37.333V482.776a16.176,16.176,0,0,0-3.734-31.916h-14.311a16.255,16.255,0,0,0-12.942,6.471l-1.275,1.7a4.481,4.481,0,0,1-2.583,1.668V435.927H1542.6a7.476,7.476,0,0,1,7.467,7.467Zm7.467-29.867v7.467h-2.489V473.26Zm0-14.933h-2.489V450.86h2.489Z"/>
    <path id="Trazado_19817" data-name="Trazado 19817" d="M1542.6,488.194H1537.2a7.467,7.467,0,0,0-14.078,0H1520.2a2.488,2.488,0,0,0,0,4.977h2.917a7.467,7.467,0,0,0,14.078,0h5.405a2.488,2.488,0,1,0,0-4.977Zm-12.444,4.977a2.488,2.488,0,1,1,2.489-2.488A2.488,2.488,0,0,1,1530.161,493.171Z"/>
  </g>
</svg>
